<?xml version="1.0" encoding="utf-8"?>
<!-- Generator: Adobe Illustrator 22.0.0, SVG Export Plug-In . SVG Version: 6.00 Build 0)  -->
<svg version="1.1" id="Layer_1" xmlns="http://www.w3.org/2000/svg" xmlns:xlink="http://www.w3.org/1999/xlink" x="0px" y="0px"
	 width="298.5px" height="932.3px" viewBox="0 0 298.5 932.3" style="enable-background:new 0 0 298.5 932.3;" xml:space="preserve"
	>
<style type="text/css">
	.st0{fill:#1A1A1A;}
</style>
<g>
	<g>
		<path d="M272.2,24.6h25.5V32h-18.1v7.6H298v7.2h-18.4v7.7H298v7.4h-25.8V24.6z"/>
		<path d="M214,24.6h7.6v37.4H214V24.6z"/>
		<path d="M230.1,24.6h8.2l8.9,26.2l8.9-26.2h8.1l-13.7,37.5h-6.6L230.1,24.6z"/>
		<path d="M195.3,62.3v-13v-0.6v-9.5v-0.3c0-2.8-2.5-5.8-5-5.8h-20.9L161.2,21v26.8v14.4c-4.1-1.8-7.6-6.7-7.6-12.6V37.9
			c0-2.7,0-37.9,0-37.9l20.7,24.1H191c6.7,0,11.9,6.3,11.9,13.7v1.8v10.2v12.6H195.3z"/>
		<path d="M29.6,36.1c-0.9-2.2-2.2-4.2-3.9-5.9c-1.7-1.7-3.7-3-6-3.9c-2.3-0.9-4.9-1.4-7.7-1.4H0v37h11.9c2.8,0,5.3-0.5,7.7-1.4
			c2.3-0.9,4.4-2.3,6-3.9c1.7-1.7,3-3.6,3.9-5.9c0.9-2.2,1.4-4.7,1.4-7.4C31,40.7,30.5,38.3,29.6,36.1z M3.3,28.2h8.6
			c2.3,0,4.5,0.4,6.4,1.2c1.9,0.8,3.6,1.9,4.9,3.2c1.4,1.4,2.4,3,3.2,4.8c0.8,1.8,1.1,3.8,1.1,6.1c0,2.1-0.4,4.1-1.1,5.9
			c-0.8,1.8-1.8,3.4-3.2,4.8c-1.4,1.4-3,2.4-4.9,3.2c-1.9,0.8-4.1,1.2-6.4,1.2H3.3V28.2z"/>
		<path d="M51.2,24.9l-17.3,37h3.7l4.8-10.4h19.9l4.8,10.4h3.7l-17.3-37H51.2z M44,48.3l8.4-18.1l8.4,18.1H44z"/>
		<rect x="77.5" y="24.9" width="3.3" height="37"/>
		<polygon points="94.8,58.6 94.8,24.9 91.5,24.9 91.5,61.9 115.6,61.9 115.6,58.6 		"/>
		<polygon points="141.8,24.7 129,43.1 116.1,24.7 112,24.7 127.3,46.4 127.3,61.7 130.6,61.7 130.6,46.4 145.9,24.7 		"/>
	</g>
	<g>
		<path d="M272.2,164.8h25.5v7.4h-18.1v7.6H298v7.2h-18.4v7.7H298v7.4h-25.8V164.8z"/>
		<path d="M214,164.8h7.6v37.4H214V164.8z"/>
		<path d="M230.1,164.8h8.2l8.9,26.2l8.9-26.2h8.1l-13.7,37.5h-6.6L230.1,164.8z"/>
		<path d="M195.3,202.5v-13v-0.6v-9.5v-0.3c0-2.8-2.5-5.8-5-5.8h-20.9l-8.2-12.2V188v14.4c-4.1-1.8-7.6-6.7-7.6-12.6v-11.7
			c0-2.7,0-37.9,0-37.9l20.7,24.1H191c6.7,0,11.9,6.3,11.9,13.7v1.8v10.2v12.6H195.3z"/>
		<path d="M29.6,176.3c-0.9-2.2-2.2-4.2-3.9-5.9c-1.7-1.7-3.7-3-6-3.9c-2.3-0.9-4.9-1.4-7.7-1.4H0v37h11.9c2.8,0,5.3-0.5,7.7-1.4
			c2.3-0.9,4.4-2.3,6-3.9c1.7-1.7,3-3.6,3.9-5.9c0.9-2.2,1.4-4.7,1.4-7.4C31,181,30.5,178.5,29.6,176.3z M3.3,168.4h8.6
			c2.3,0,4.5,0.4,6.4,1.2c1.9,0.8,3.6,1.9,4.9,3.2c1.4,1.4,2.4,3,3.2,4.8c0.8,1.8,1.1,3.8,1.1,6.1c0,2.1-0.4,4.1-1.1,5.9
			c-0.8,1.8-1.8,3.4-3.2,4.8c-1.4,1.4-3,2.4-4.9,3.2c-1.9,0.8-4.1,1.2-6.4,1.2H3.3V168.4z"/>
		<path d="M51.2,165.1l-17.3,37h3.7l4.8-10.4h19.9l4.8,10.4h3.7l-17.3-37H51.2z M44,188.5l8.4-18.1l8.4,18.1H44z"/>
		<rect x="77.5" y="165.1" width="3.3" height="37"/>
		<polygon points="94.8,198.8 94.8,165.1 91.5,165.1 91.5,202.1 115.6,202.1 115.6,198.8 		"/>
		<polygon points="141.8,164.9 129,183.3 116.1,164.9 112,164.9 127.3,186.6 127.3,201.9 130.6,201.9 130.6,186.6 145.9,164.9 		"/>
	</g>
	<g>
		<path d="M272.2,444.6h25.5v7.4h-18.1v7.6H298v7.2h-18.4v7.7H298v7.4h-25.8V444.6z"/>
		<path d="M214,444.6h7.6v37.4H214V444.6z"/>
		<path d="M230.1,444.6h8.2l8.9,26.2l8.9-26.2h8.1l-13.7,37.5h-6.6L230.1,444.6z"/>
		<path d="M195.3,482.3v-13v-0.6v-9.5v-0.3c0-2.8-2.5-5.8-5-5.8h-20.9l-8.2-12.2v26.8v14.4c-4.1-1.8-7.6-6.7-7.6-12.6v-11.7
			c0-2.7,0-37.9,0-37.9l20.7,24.1H191c6.7,0,11.9,6.3,11.9,13.7v1.8v10.2v12.6H195.3z"/>
		<path d="M29.6,456.1c-0.9-2.2-2.2-4.2-3.9-5.9c-1.7-1.7-3.7-3-6-3.9c-2.3-0.9-4.9-1.4-7.7-1.4H0v37h11.9c2.8,0,5.3-0.5,7.7-1.4
			c2.3-0.9,4.4-2.3,6-3.9c1.7-1.7,3-3.6,3.9-5.9c0.9-2.2,1.4-4.7,1.4-7.4C31,460.8,30.5,458.3,29.6,456.1z M3.3,448.2h8.6
			c2.3,0,4.5,0.4,6.4,1.2c1.9,0.8,3.6,1.9,4.9,3.2c1.4,1.4,2.4,3,3.2,4.8c0.8,1.8,1.1,3.8,1.1,6.1c0,2.1-0.4,4.1-1.1,5.9
			c-0.8,1.8-1.8,3.4-3.2,4.8c-1.4,1.4-3,2.4-4.9,3.2c-1.9,0.8-4.1,1.2-6.4,1.2H3.3V448.2z"/>
		<path d="M51.2,444.9l-17.3,37h3.7l4.8-10.4h19.9l4.8,10.4h3.7l-17.3-37H51.2z M44,468.3l8.4-18.1l8.4,18.1H44z"/>
		<rect x="77.5" y="444.9" width="3.3" height="37"/>
		<polygon points="94.8,478.6 94.8,444.9 91.5,444.9 91.5,481.9 115.6,481.9 115.6,478.6 		"/>
		<polygon points="141.8,444.7 129,463.1 116.1,444.7 112,444.7 127.3,466.4 127.3,481.7 130.6,481.7 130.6,466.4 145.9,444.7 		"/>
	</g>
	<g>
		<path d="M272.2,304.6h25.5v7.4h-18.1v7.6H298v7.2h-18.4v7.7H298v7.4h-25.8V304.6z"/>
		<path d="M214,304.6h7.6v37.4H214V304.6z"/>
		<path d="M230.1,304.6h8.2l8.9,26.2l8.9-26.2h8.1l-13.7,37.5h-6.6L230.1,304.6z"/>
		<path d="M195.3,342.3v-13v-0.6v-9.5v-0.3c0-2.8-2.5-5.8-5-5.8h-20.9l-8.2-12.2v26.8v14.4c-4.1-1.8-7.6-6.7-7.6-12.6v-11.7
			c0-2.7,0-37.9,0-37.9l20.7,24.1H191c6.7,0,11.9,6.3,11.9,13.7v1.8v10.2v12.6H195.3z"/>
		<path d="M29.6,316.1c-0.9-2.2-2.2-4.2-3.9-5.9c-1.7-1.7-3.7-3-6-3.9c-2.3-0.9-4.9-1.4-7.7-1.4H0v37h11.9c2.8,0,5.3-0.5,7.7-1.4
			c2.3-0.9,4.4-2.3,6-3.9c1.7-1.7,3-3.6,3.9-5.9c0.9-2.2,1.4-4.7,1.4-7.4C31,320.8,30.5,318.3,29.6,316.1z M3.3,308.2h8.6
			c2.3,0,4.5,0.4,6.4,1.2c1.9,0.8,3.6,1.9,4.9,3.2c1.4,1.4,2.4,3,3.2,4.8c0.8,1.8,1.1,3.8,1.1,6.1c0,2.1-0.4,4.1-1.1,5.9
			c-0.8,1.8-1.8,3.4-3.2,4.8c-1.4,1.4-3,2.4-4.9,3.2c-1.9,0.8-4.1,1.2-6.4,1.2H3.3V308.2z"/>
		<path d="M51.2,304.9l-17.3,37h3.7l4.8-10.4h19.9l4.8,10.4h3.7l-17.3-37H51.2z M44,328.3l8.4-18.1l8.4,18.1H44z"/>
		<rect x="77.5" y="304.9" width="3.3" height="37"/>
		<polygon points="94.8,338.6 94.8,304.9 91.5,304.9 91.5,341.9 115.6,341.9 115.6,338.6 		"/>
		<polygon points="141.8,304.7 129,323.1 116.1,304.7 112,304.7 127.3,326.4 127.3,341.7 130.6,341.7 130.6,326.4 145.9,304.7 		"/>
	</g>
	<g>
		<path d="M54.8,81.6h3.8l5.8,14.9l5.8-14.9h3.7l-8.1,19.5h-3L54.8,81.6z"/>
		<path d="M84.1,81.4h3.2l8.5,19.5h-3.6l-2-4.7H81l-2,4.7h-3.5L84.1,81.4z M89,93.3l-3.4-7.8l-3.3,7.8H89z"/>
		<path d="M99.1,81.6h3.2L112.6,95V81.6h3.4V101h-2.8l-10.7-13.8V101h-3.4V81.6z"/>
		<path d="M130,101.3c-1.4,0-2.7-0.3-3.9-0.8c-1.2-0.5-2.2-1.2-3.1-2.1s-1.6-2-2.1-3.2s-0.8-2.5-0.8-3.9v-0.1c0-1.4,0.2-2.7,0.7-3.9
			c0.5-1.2,1.2-2.3,2.1-3.2c0.9-0.9,1.9-1.6,3.2-2.2s2.6-0.8,4-0.8c0.9,0,1.7,0.1,2.4,0.2c0.7,0.1,1.4,0.4,2,0.6s1.2,0.6,1.7,1
			c0.5,0.4,1,0.8,1.5,1.2l-2.2,2.5c-0.8-0.7-1.6-1.3-2.5-1.7c-0.9-0.4-1.9-0.7-3-0.7c-0.9,0-1.8,0.2-2.6,0.5c-0.8,0.4-1.5,0.8-2,1.5
			s-1,1.3-1.3,2.2s-0.5,1.7-0.5,2.7v0.1c0,0.9,0.2,1.8,0.5,2.7c0.3,0.8,0.8,1.6,1.3,2.2c0.6,0.6,1.3,1.1,2,1.5
			c0.8,0.4,1.6,0.5,2.6,0.5c1.2,0,2.2-0.2,3-0.7c0.8-0.5,1.7-1.1,2.5-1.8l2.2,2.2c-0.5,0.5-1,1-1.6,1.4c-0.5,0.4-1.1,0.8-1.8,1.1
			c-0.6,0.3-1.3,0.5-2.1,0.7C131.7,101.2,130.9,101.3,130,101.3z"/>
		<path d="M150.7,101.3c-1.5,0-2.9-0.3-4.1-0.8s-2.3-1.2-3.2-2.1c-0.9-0.9-1.6-2-2.1-3.2s-0.7-2.5-0.7-3.9v-0.1
			c0-1.4,0.2-2.7,0.7-3.9s1.2-2.3,2.1-3.2s2-1.6,3.2-2.2c1.2-0.5,2.6-0.8,4.1-0.8c1.5,0,2.9,0.3,4.1,0.8c1.2,0.5,2.3,1.2,3.2,2.1
			c0.9,0.9,1.6,2,2.1,3.2c0.5,1.2,0.7,2.5,0.7,3.9v0.1c0,1.4-0.2,2.7-0.7,3.9c-0.5,1.2-1.2,2.3-2.1,3.2s-2,1.6-3.2,2.2
			C153.5,101,152.2,101.3,150.7,101.3z M150.7,98.2c1,0,1.8-0.2,2.6-0.5c0.8-0.4,1.5-0.8,2.1-1.5c0.6-0.6,1-1.3,1.3-2.2
			c0.3-0.8,0.5-1.7,0.5-2.7v-0.1c0-0.9-0.2-1.8-0.5-2.7c-0.3-0.8-0.8-1.6-1.4-2.2s-1.3-1.1-2.1-1.5s-1.7-0.6-2.6-0.6
			c-1,0-1.8,0.2-2.6,0.5c-0.8,0.4-1.5,0.8-2.1,1.5s-1,1.3-1.3,2.2c-0.3,0.8-0.5,1.7-0.5,2.7v0.1c0,0.9,0.2,1.8,0.5,2.7
			c0.3,0.8,0.8,1.6,1.4,2.2s1.3,1.1,2.1,1.5C148.9,98,149.8,98.2,150.7,98.2z"/>
		<path d="M172.9,101.3c-1.3,0-2.4-0.2-3.4-0.5c-1-0.4-1.9-0.9-2.6-1.6s-1.3-1.6-1.7-2.7s-0.6-2.3-0.6-3.7V81.6h3.4v11
			c0,1.8,0.4,3.2,1.3,4.1c0.9,0.9,2.1,1.4,3.6,1.4c1.5,0,2.7-0.5,3.6-1.4c0.9-0.9,1.3-2.3,1.3-4V81.6h3.4v11c0,1.4-0.2,2.7-0.6,3.8
			c-0.4,1.1-1,2-1.7,2.7s-1.6,1.3-2.6,1.6C175.3,101.1,174.2,101.3,172.9,101.3z"/>
		<path d="M184.3,81.6h3.8l5.8,14.9l5.8-14.9h3.7l-8.1,19.5h-3L184.3,81.6z"/>
		<path d="M206.7,81.6h14.3v3.1h-11v5h9.7v3.1h-9.7v5.2h11.1v3.1h-14.5V81.6z"/>
		<path d="M225.3,81.6h8.6c1.2,0,2.3,0.2,3.2,0.5c0.9,0.3,1.7,0.8,2.4,1.4c0.5,0.5,0.9,1.2,1.2,1.9c0.3,0.7,0.4,1.5,0.4,2.3v0.1
			c0,0.8-0.1,1.5-0.3,2.1c-0.2,0.6-0.5,1.2-1,1.7c-0.4,0.5-0.9,0.9-1.5,1.2s-1.2,0.6-1.9,0.8l5.2,7.3h-4l-4.8-6.8h-0.1h-4.2v6.8
			h-3.4V81.6z M233.7,91.2c1.2,0,2.2-0.3,2.9-0.9c0.7-0.6,1.1-1.4,1.1-2.4v-0.1c0-1.1-0.4-1.9-1.1-2.4c-0.7-0.5-1.7-0.8-3-0.8h-5
			v6.5H233.7z"/>
	</g>
	<g>
		<path d="M88.8,241.3c-1.4,0-2.7-0.3-3.9-0.8c-1.2-0.5-2.2-1.2-3.1-2.1s-1.6-2-2.1-3.2s-0.8-2.5-0.8-3.9v-0.1
			c0-1.4,0.2-2.7,0.7-3.9c0.5-1.2,1.2-2.3,2.1-3.2c0.9-0.9,1.9-1.6,3.2-2.2s2.6-0.8,4-0.8c0.9,0,1.7,0.1,2.4,0.2
			c0.7,0.1,1.4,0.4,2,0.6s1.2,0.6,1.7,1s1,0.8,1.5,1.2l-2.2,2.5c-0.8-0.7-1.6-1.3-2.5-1.7s-1.9-0.7-3-0.7c-0.9,0-1.8,0.2-2.6,0.5
			c-0.8,0.4-1.5,0.8-2,1.5c-0.6,0.6-1,1.3-1.3,2.2s-0.5,1.7-0.5,2.7v0.1c0,0.9,0.2,1.8,0.5,2.7c0.3,0.8,0.8,1.6,1.3,2.2
			c0.6,0.6,1.3,1.1,2,1.5c0.8,0.4,1.6,0.5,2.6,0.5c1.2,0,2.2-0.2,3-0.7c0.8-0.5,1.7-1.1,2.5-1.8l2.2,2.2c-0.5,0.5-1,1-1.6,1.4
			c-0.5,0.4-1.1,0.8-1.8,1.1c-0.6,0.3-1.3,0.5-2.1,0.7S89.7,241.3,88.8,241.3z"/>
		<path d="M107.1,221.4h3.2l8.5,19.5h-3.6l-2-4.7H104l-2,4.7h-3.5L107.1,221.4z M111.9,233.2l-3.4-7.8l-3.3,7.8H111.9z"/>
		<path d="M122.1,221.6h3.4v16.3h10.2v3.1h-13.6V221.6z"/>
		<path d="M148.4,241.3c-1.5,0-2.9-0.3-4.1-0.8s-2.3-1.2-3.2-2.1c-0.9-0.9-1.6-1.9-2-3.2c-0.5-1.2-0.7-2.5-0.7-3.9v-0.1
			c0-1.3,0.2-2.6,0.7-3.9c0.5-1.2,1.2-2.3,2.1-3.2c0.9-0.9,2-1.6,3.2-2.2c1.2-0.5,2.6-0.8,4-0.8c0.8,0,1.6,0.1,2.3,0.2
			c0.7,0.1,1.3,0.3,1.9,0.5c0.6,0.2,1.1,0.5,1.7,0.8s1,0.7,1.5,1.1l-2.2,2.6c-0.4-0.3-0.7-0.6-1.1-0.9c-0.4-0.3-0.8-0.5-1.2-0.7
			s-0.9-0.3-1.4-0.4c-0.5-0.1-1.1-0.2-1.7-0.2c-0.9,0-1.7,0.2-2.5,0.6c-0.8,0.4-1.4,0.9-2,1.5c-0.6,0.6-1,1.3-1.3,2.2
			c-0.3,0.8-0.5,1.7-0.5,2.6v0.1c0,1,0.2,1.9,0.5,2.8c0.3,0.9,0.8,1.6,1.3,2.2c0.6,0.6,1.3,1.1,2.1,1.4c0.8,0.4,1.7,0.5,2.7,0.5
			c0.9,0,1.8-0.1,2.6-0.4c0.8-0.3,1.5-0.6,2.1-1.1v-3.6h-5v-3h8.3v8.1c-0.5,0.4-1,0.8-1.6,1.2s-1.2,0.7-1.9,1
			c-0.7,0.3-1.4,0.5-2.2,0.7C150.1,241.2,149.3,241.3,148.4,241.3z"/>
		<path d="M167.8,221.4h3.2l8.5,19.5h-3.6l-2-4.7h-9.2l-2,4.7h-3.5L167.8,221.4z M172.7,233.2l-3.4-7.8l-3.3,7.8H172.7z"/>
		<path d="M182.8,221.6h8.6c1.2,0,2.3,0.2,3.2,0.5c0.9,0.3,1.7,0.8,2.4,1.4c0.5,0.5,0.9,1.2,1.2,1.9c0.3,0.7,0.4,1.5,0.4,2.3v0.1
			c0,0.8-0.1,1.5-0.3,2.1c-0.2,0.6-0.5,1.2-1,1.7c-0.4,0.5-0.9,0.9-1.5,1.2s-1.2,0.6-1.9,0.8l5.2,7.3h-4l-4.8-6.8h-0.1h-4.2v6.8
			h-3.4V221.6z M191.2,231.2c1.2,0,2.2-0.3,2.9-0.9c0.7-0.6,1.1-1.4,1.1-2.4v-0.1c0-1.1-0.4-1.9-1.1-2.4s-1.7-0.8-3-0.8h-5v6.5
			H191.2z"/>
		<path d="M208.6,233.3l-7.7-11.7h4l5.4,8.6l5.5-8.6h3.9l-7.7,11.7v7.7h-3.4V233.3z"/>
	</g>
	<g>
		<path d="M82.5,365h-6.1v-3.1H92v3.1h-6.1v16.1h-3.4V365z"/>
		<path d="M104.8,381.4c-1.5,0-2.8-0.3-4.1-0.8c-1.2-0.5-2.3-1.2-3.2-2.1c-0.9-0.9-1.6-1.9-2.1-3.1c-0.5-1.2-0.7-2.5-0.7-3.8v-0.1
			c0-1.4,0.2-2.6,0.7-3.8c0.5-1.2,1.2-2.3,2.1-3.2c0.9-0.9,2-1.6,3.2-2.2c1.2-0.5,2.6-0.8,4.1-0.8c1.5,0,2.8,0.3,4.1,0.8
			c1.2,0.5,2.3,1.2,3.2,2.1c0.9,0.9,1.6,1.9,2.1,3.1c0.5,1.2,0.7,2.5,0.7,3.8v0.1c0,1.4-0.2,2.6-0.7,3.8c-0.5,1.2-1.2,2.3-2.1,3.2
			c-0.9,0.9-2,1.6-3.2,2.2C107.6,381.2,106.2,381.4,104.8,381.4z M104.8,378.3c0.9,0,1.8-0.2,2.6-0.5s1.5-0.8,2-1.5
			c0.6-0.6,1-1.3,1.3-2.2c0.3-0.8,0.5-1.7,0.5-2.6v-0.1c0-0.9-0.2-1.8-0.5-2.7c-0.3-0.8-0.8-1.6-1.3-2.2c-0.6-0.6-1.3-1.1-2.1-1.5
			c-0.8-0.4-1.7-0.6-2.6-0.6c-0.9,0-1.8,0.2-2.6,0.5c-0.8,0.4-1.5,0.8-2,1.5s-1,1.3-1.3,2.2c-0.3,0.8-0.5,1.7-0.5,2.6v0.1
			c0,0.9,0.2,1.8,0.5,2.7c0.3,0.8,0.8,1.6,1.3,2.2c0.6,0.6,1.3,1.1,2.1,1.5C103,378.1,103.9,378.3,104.8,378.3z"/>
		<path d="M118.9,361.8h8.6c1.2,0,2.3,0.2,3.2,0.5c0.9,0.3,1.7,0.8,2.3,1.4c0.5,0.5,0.9,1.1,1.2,1.8c0.3,0.7,0.4,1.5,0.4,2.3v0.1
			c0,0.8-0.1,1.5-0.3,2.1c-0.2,0.6-0.5,1.2-0.9,1.7c-0.4,0.5-0.9,0.9-1.4,1.2c-0.6,0.3-1.2,0.6-1.9,0.8l5.2,7.3h-4l-4.7-6.7h-0.1
			h-4.2v6.7h-3.4V361.8z M127.3,371.4c1.2,0,2.2-0.3,2.9-0.9c0.7-0.6,1.1-1.4,1.1-2.4v-0.1c0-1-0.3-1.8-1-2.4s-1.7-0.8-3-0.8h-4.9
			v6.5H127.3z"/>
		<path d="M148,381.4c-1.5,0-2.8-0.3-4.1-0.8c-1.2-0.5-2.3-1.2-3.2-2.1c-0.9-0.9-1.6-1.9-2.1-3.1c-0.5-1.2-0.7-2.5-0.7-3.8v-0.1
			c0-1.4,0.2-2.6,0.7-3.8c0.5-1.2,1.2-2.3,2.1-3.2c0.9-0.9,2-1.6,3.2-2.2c1.2-0.5,2.6-0.8,4.1-0.8c1.5,0,2.8,0.3,4.1,0.8
			c1.2,0.5,2.3,1.2,3.2,2.1c0.9,0.9,1.6,1.9,2.1,3.1c0.5,1.2,0.7,2.5,0.7,3.8v0.1c0,1.4-0.2,2.6-0.7,3.8c-0.5,1.2-1.2,2.3-2.1,3.2
			c-0.9,0.9-2,1.6-3.2,2.2C150.9,381.2,149.5,381.4,148,381.4z M148.1,378.3c0.9,0,1.8-0.2,2.6-0.5s1.5-0.8,2-1.5
			c0.6-0.6,1-1.3,1.3-2.2c0.3-0.8,0.5-1.7,0.5-2.6v-0.1c0-0.9-0.2-1.8-0.5-2.7c-0.3-0.8-0.8-1.6-1.3-2.2c-0.6-0.6-1.3-1.1-2.1-1.5
			c-0.8-0.4-1.7-0.6-2.6-0.6c-0.9,0-1.8,0.2-2.6,0.5c-0.8,0.4-1.5,0.8-2,1.5s-1,1.3-1.3,2.2c-0.3,0.8-0.5,1.7-0.5,2.6v0.1
			c0,0.9,0.2,1.8,0.5,2.7c0.3,0.8,0.8,1.6,1.3,2.2c0.6,0.6,1.3,1.1,2.1,1.5C146.2,378.1,147.1,378.3,148.1,378.3z"/>
		<path d="M162.2,361.8h3.1l10.3,13.3v-13.3h3.4v19.2h-2.8l-10.6-13.7v13.7h-3.4V361.8z"/>
		<path d="M188.7,365h-6.1v-3.1h15.6v3.1h-6.1v16.1h-3.4V365z"/>
		<path d="M210.9,381.4c-1.5,0-2.8-0.3-4.1-0.8c-1.2-0.5-2.3-1.2-3.2-2.1c-0.9-0.9-1.6-1.9-2.1-3.1c-0.5-1.2-0.7-2.5-0.7-3.8v-0.1
			c0-1.4,0.2-2.6,0.7-3.8c0.5-1.2,1.2-2.3,2.1-3.2c0.9-0.9,2-1.6,3.2-2.2c1.2-0.5,2.6-0.8,4.1-0.8c1.5,0,2.8,0.3,4.1,0.8
			c1.2,0.5,2.3,1.2,3.2,2.1c0.9,0.9,1.6,1.9,2.1,3.1c0.5,1.2,0.7,2.5,0.7,3.8v0.1c0,1.4-0.2,2.6-0.7,3.8c-0.5,1.2-1.2,2.3-2.1,3.2
			c-0.9,0.9-2,1.6-3.2,2.2C213.8,381.2,212.4,381.4,210.9,381.4z M211,378.3c0.9,0,1.8-0.2,2.6-0.5s1.5-0.8,2-1.5
			c0.6-0.6,1-1.3,1.3-2.2c0.3-0.8,0.5-1.7,0.5-2.6v-0.1c0-0.9-0.2-1.8-0.5-2.7c-0.3-0.8-0.8-1.6-1.3-2.2c-0.6-0.6-1.3-1.1-2.1-1.5
			c-0.8-0.4-1.7-0.6-2.6-0.6c-0.9,0-1.8,0.2-2.6,0.5c-0.8,0.4-1.5,0.8-2,1.5s-1,1.3-1.3,2.2c-0.3,0.8-0.5,1.7-0.5,2.6v0.1
			c0,0.9,0.2,1.8,0.5,2.7c0.3,0.8,0.8,1.6,1.3,2.2c0.6,0.6,1.3,1.1,2.1,1.5C209.2,378.1,210,378.3,211,378.3z"/>
	</g>
	<g>
		<path d="M68.3,501.5h3.6l5.9,9.2l5.9-9.2h3.6v19.4H84V507l-6.1,9.1h-0.1l-6.1-9.1v13.8h-3.4V501.5z"/>
		<path d="M101.6,521.2c-1.5,0-2.9-0.3-4.1-0.8s-2.3-1.2-3.2-2.1c-0.9-0.9-1.6-2-2.1-3.2c-0.5-1.2-0.7-2.5-0.7-3.9v-0.1
			c0-1.4,0.2-2.7,0.7-3.9c0.5-1.2,1.2-2.3,2.1-3.2s2-1.6,3.2-2.2c1.2-0.5,2.6-0.8,4.1-0.8c1.5,0,2.9,0.3,4.1,0.8
			c1.2,0.5,2.3,1.2,3.2,2.1c0.9,0.9,1.6,2,2.1,3.2c0.5,1.2,0.7,2.5,0.7,3.9v0.1c0,1.4-0.2,2.7-0.7,3.9c-0.5,1.2-1.2,2.3-2.1,3.2
			s-2,1.6-3.2,2.2S103.1,521.2,101.6,521.2z M101.7,518.1c1,0,1.8-0.2,2.6-0.5c0.8-0.4,1.5-0.8,2.1-1.5c0.6-0.6,1-1.3,1.3-2.2
			c0.3-0.8,0.5-1.7,0.5-2.7v-0.1c0-0.9-0.2-1.8-0.5-2.7c-0.3-0.8-0.8-1.6-1.4-2.2c-0.6-0.6-1.3-1.1-2.1-1.5
			c-0.8-0.4-1.7-0.6-2.6-0.6c-1,0-1.8,0.2-2.6,0.5s-1.5,0.8-2.1,1.5c-0.6,0.6-1,1.3-1.3,2.2c-0.3,0.8-0.5,1.7-0.5,2.7v0.1
			c0,0.9,0.2,1.8,0.5,2.7c0.3,0.8,0.8,1.6,1.4,2.2c0.6,0.6,1.3,1.1,2.1,1.5C99.8,517.9,100.7,518.1,101.7,518.1z"/>
		<path d="M115.9,501.5h3.2l10.4,13.4v-13.4h3.4v19.4H130l-10.7-13.8v13.8h-3.4V501.5z"/>
		<path d="M142.6,504.7h-6.1v-3.2h15.7v3.2H146v16.2h-3.4V504.7z"/>
		<path d="M155.7,501.5h8.6c1.2,0,2.3,0.2,3.2,0.5c0.9,0.3,1.7,0.8,2.4,1.4c0.5,0.5,0.9,1.2,1.2,1.9s0.4,1.5,0.4,2.3v0.1
			c0,0.8-0.1,1.5-0.3,2.1c-0.2,0.6-0.5,1.2-1,1.7c-0.4,0.5-0.9,0.9-1.5,1.2s-1.2,0.6-1.9,0.8l5.2,7.3h-4l-4.8-6.8h-0.1h-4.2v6.8
			h-3.4V501.5z M164.1,511.1c1.2,0,2.2-0.3,2.9-0.9c0.7-0.6,1.1-1.4,1.1-2.4v-0.1c0-1.1-0.4-1.9-1.1-2.4c-0.7-0.5-1.7-0.8-3-0.8h-5
			v6.5H164.1z"/>
		<path d="M175.8,501.5h14.3v3.1h-11v5h9.7v3.1h-9.7v5.2h11.1v3.1h-14.5V501.5z"/>
		<path d="M201.2,501.4h3.2l8.5,19.5h-3.6l-2-4.7h-9.2l-2,4.7h-3.5L201.2,501.4z M206.1,513.2l-3.4-7.8l-3.3,7.8H206.1z"/>
		<path d="M216.2,501.5h3.4v16.3h10.2v3.1h-13.6V501.5z"/>
	</g>
</g>
<g>
	<path d="M272.2,586.3h25.5v7.4h-18.1v7.6H298v7.2h-18.4v7.7H298v7.4h-25.8V586.3z"/>
	<path d="M214,586.3h7.6v37.4H214V586.3z"/>
	<path d="M230.1,586.3h8.2l8.9,26.2l8.9-26.2h8.1l-13.7,37.5h-6.6L230.1,586.3z"/>
	<path d="M195.3,624v-13v-0.6v-9.5v-0.3c0-2.8-2.5-5.8-5-5.8h-20.9l-8.2-12.2v26.8V624c-4.1-1.8-7.6-6.7-7.6-12.6v-11.7
		c0-2.7,0-37.9,0-37.9l20.7,24.1H191c6.7,0,11.9,6.3,11.9,13.7v1.8v10.2V624H195.3z"/>
	<path d="M29.6,597.8c-0.9-2.2-2.2-4.2-3.9-5.9c-1.7-1.7-3.7-3-6-3.9c-2.3-0.9-4.9-1.4-7.7-1.4H0v37h11.9c2.8,0,5.3-0.5,7.7-1.4
		c2.3-0.9,4.4-2.3,6-3.9c1.7-1.7,3-3.6,3.9-5.9c0.9-2.2,1.4-4.7,1.4-7.4C31,602.5,30.5,600,29.6,597.8z M3.3,589.9h8.6
		c2.3,0,4.5,0.4,6.4,1.2c1.9,0.8,3.6,1.9,4.9,3.2c1.4,1.4,2.4,3,3.2,4.8c0.8,1.8,1.1,3.8,1.1,6.1c0,2.1-0.4,4.1-1.1,5.9
		c-0.8,1.8-1.8,3.4-3.2,4.8c-1.4,1.4-3,2.4-4.9,3.2c-1.9,0.8-4.1,1.2-6.4,1.2H3.3V589.9z"/>
	<path d="M51.2,586.6l-17.3,37h3.7l4.8-10.4h19.9l4.8,10.4h3.7l-17.3-37H51.2z M44,610l8.4-18.1l8.4,18.1H44z"/>
	<rect x="77.5" y="586.6" width="3.3" height="37"/>
	<polygon points="94.8,620.4 94.8,586.6 91.5,586.6 91.5,623.6 115.6,623.6 115.6,620.4 	"/>
	<polygon points="141.8,586.4 129,604.8 116.1,586.4 112,586.4 127.3,608.1 127.3,623.4 130.6,623.4 130.6,608.1 145.9,586.4 	"/>
</g>
<g>
	<path class="st0" d="M270.9,574.3h1.7l2.6,6.6l2.6-6.6h1.6l-3.6,8.7h-1.3L270.9,574.3z"/>
	<path class="st0" d="M283.2,574.2h1.4l3.8,8.7h-1.6l-0.9-2.1h-4.1l-0.9,2.1h-1.5L283.2,574.2z M285.4,579.5l-1.5-3.4l-1.5,3.4
		H285.4z"/>
	<path class="st0" d="M290.6,574.3h1.4l4.6,6v-6h1.5v8.6h-1.3l-4.7-6.1v6.1h-1.5V574.3z"/>
</g>
<g>
	<path d="M272.2,791.9h25.5v7.4h-18.1v7.6H298v7.2h-18.4v7.7H298v7.4h-25.8V791.9z"/>
	<path d="M214,791.9h7.6v37.4H214V791.9z"/>
	<path d="M230.1,791.9h8.2l8.9,26.2l8.9-26.2h8.1l-13.7,37.5h-6.6L230.1,791.9z"/>
	<path d="M195.3,829.6v-13V816v-9.5v-0.3c0-2.8-2.5-5.8-5-5.8h-20.9l-8.2-12.2v26.8v14.4c-4.1-1.8-7.6-6.7-7.6-12.6v-11.7
		c0-2.7,0-37.9,0-37.9l20.7,24.1H191c6.7,0,11.9,6.3,11.9,13.7v1.8V817v12.6H195.3z"/>
	<path d="M29.6,803.4c-0.9-2.2-2.2-4.2-3.9-5.9c-1.7-1.7-3.7-3-6-3.9c-2.3-0.9-4.9-1.4-7.7-1.4H0v37h11.9c2.8,0,5.3-0.5,7.7-1.4
		c2.3-0.9,4.4-2.3,6-3.9c1.7-1.7,3-3.6,3.9-5.9c0.9-2.2,1.4-4.7,1.4-7.4C31,808.1,30.5,805.6,29.6,803.4z M3.3,795.5h8.6
		c2.3,0,4.5,0.4,6.4,1.2c1.9,0.8,3.6,1.9,4.9,3.2c1.4,1.4,2.4,3,3.2,4.8c0.8,1.8,1.1,3.8,1.1,6.1c0,2.1-0.4,4.1-1.1,5.9
		c-0.8,1.8-1.8,3.4-3.2,4.8c-1.4,1.4-3,2.4-4.9,3.2c-1.9,0.8-4.1,1.2-6.4,1.2H3.3V795.5z"/>
	<path d="M51.2,792.2l-17.3,37h3.7l4.8-10.4h19.9l4.8,10.4h3.7l-17.3-37H51.2z M44,815.6l8.4-18.1l8.4,18.1H44z"/>
	<rect x="77.5" y="792.2" width="3.3" height="37"/>
	<polygon points="94.8,826 94.8,792.2 91.5,792.2 91.5,829.3 115.6,829.3 115.6,826 	"/>
	<polygon points="141.8,792 129,810.4 116.1,792 112,792 127.3,813.7 127.3,829 130.6,829 130.6,813.7 145.9,792 	"/>
</g>
<g>
	<path class="st0" d="M277.1,778.6h-3.6v-1.9h9.3v1.9h-3.6v9.6h-2V778.6z"/>
	<path class="st0" d="M290.4,788.5c-0.9,0-1.7-0.2-2.4-0.5c-0.7-0.3-1.4-0.7-1.9-1.3c-0.5-0.5-0.9-1.2-1.2-1.9
		c-0.3-0.7-0.4-1.5-0.4-2.3v0c0-0.8,0.1-1.6,0.4-2.3c0.3-0.7,0.7-1.3,1.2-1.9c0.5-0.5,1.2-1,1.9-1.3c0.7-0.3,1.5-0.5,2.4-0.5
		c0.9,0,1.7,0.2,2.4,0.5c0.7,0.3,1.4,0.7,1.9,1.3c0.5,0.5,0.9,1.2,1.2,1.9c0.3,0.7,0.4,1.5,0.4,2.3v0c0,0.8-0.1,1.6-0.4,2.3
		c-0.3,0.7-0.7,1.3-1.2,1.9c-0.5,0.5-1.2,1-1.9,1.3C292.1,788.3,291.3,788.5,290.4,788.5z M290.4,786.6c0.6,0,1.1-0.1,1.6-0.3
		c0.5-0.2,0.9-0.5,1.2-0.9c0.3-0.4,0.6-0.8,0.8-1.3c0.2-0.5,0.3-1,0.3-1.6v0c0-0.6-0.1-1.1-0.3-1.6c-0.2-0.5-0.5-0.9-0.8-1.3
		c-0.3-0.4-0.8-0.7-1.2-0.9c-0.5-0.2-1-0.3-1.6-0.3c-0.6,0-1.1,0.1-1.6,0.3c-0.5,0.2-0.9,0.5-1.2,0.9c-0.3,0.4-0.6,0.8-0.8,1.3
		c-0.2,0.5-0.3,1-0.3,1.6v0c0,0.6,0.1,1.1,0.3,1.6c0.2,0.5,0.5,0.9,0.8,1.3c0.3,0.4,0.8,0.7,1.2,0.9
		C289.3,786.5,289.9,786.6,290.4,786.6z"/>
</g>
<g>
	<path d="M272.2,894.3h25.5v7.4h-18.1v7.6H298v7.2h-18.4v7.7H298v7.4h-25.8V894.3z"/>
	<path d="M214,894.3h7.6v37.4H214V894.3z"/>
	<path d="M230.1,894.3h8.2l8.9,26.2l8.9-26.2h8.1l-13.7,37.5h-6.6L230.1,894.3z"/>
	<path d="M195.3,932v-13v-0.6v-9.5v-0.3c0-2.8-2.5-5.8-5-5.8h-20.9l-8.2-12.2v26.8V932c-4.1-1.8-7.6-6.7-7.6-12.6v-11.7
		c0-2.7,0-37.9,0-37.9l20.7,24.1H191c6.7,0,11.9,6.3,11.9,13.7v1.8v10.2V932H195.3z"/>
	<path d="M29.6,905.8c-0.9-2.2-2.2-4.2-3.9-5.9c-1.7-1.7-3.7-3-6-3.9c-2.3-0.9-4.9-1.4-7.7-1.4H0v37h11.9c2.8,0,5.3-0.5,7.7-1.4
		c2.3-0.9,4.4-2.3,6-3.9c1.7-1.7,3-3.6,3.9-5.9c0.9-2.2,1.4-4.7,1.4-7.4C31,910.5,30.5,908.1,29.6,905.8z M3.3,897.9h8.6
		c2.3,0,4.5,0.4,6.4,1.2c1.9,0.8,3.6,1.9,4.9,3.2c1.4,1.4,2.4,3,3.2,4.8c0.8,1.8,1.1,3.8,1.1,6.1c0,2.1-0.4,4.1-1.1,5.9
		c-0.8,1.8-1.8,3.4-3.2,4.8c-1.4,1.4-3,2.4-4.9,3.2c-1.9,0.8-4.1,1.2-6.4,1.2H3.3V897.9z"/>
	<path d="M51.2,894.7l-17.3,37h3.7l4.8-10.4h19.9l4.8,10.4h3.7l-17.3-37H51.2z M44,918l8.4-18.1l8.4,18.1H44z"/>
	<rect x="77.5" y="894.7" width="3.3" height="37"/>
	<polygon points="94.8,928.4 94.8,894.7 91.5,894.7 91.5,931.7 115.6,931.7 115.6,928.4 	"/>
	<polygon points="141.8,894.4 129,912.9 116.1,894.4 112,894.4 127.3,916.2 127.3,931.5 130.6,931.5 130.6,916.1 145.9,894.4 	"/>
</g>
<g>
	<path class="st0" d="M272.8,882.3h1.6l2.6,4.1l2.6-4.1h1.6v8.6h-1.5v-6.2l-2.7,4.1h0l-2.7-4v6.1h-1.5V882.3z"/>
	<path class="st0" d="M285.6,883.7h-2.7v-1.4h7v1.4h-2.7v7.2h-1.5V883.7z"/>
	<path class="st0" d="M291.4,882.3h1.5v7.2h4.5v1.4h-6V882.3z"/>
</g>
<g>
	<path d="M272.2,688.7h25.5v7.4h-18.1v7.6H298v7.2h-18.4v7.7H298v7.4h-25.8V688.7z"/>
	<path d="M214,688.7h7.6v37.4H214V688.7z"/>
	<path d="M230.1,688.7h8.2l8.9,26.2l8.9-26.2h8.1l-13.7,37.5h-6.6L230.1,688.7z"/>
	<path d="M195.3,726.4v-13v-0.6v-9.5V703c0-2.8-2.5-5.8-5-5.8h-20.9l-8.2-12.2V712v14.4c-4.1-1.8-7.6-6.7-7.6-12.6v-11.7
		c0-2.7,0-37.9,0-37.9l20.7,24.1H191c6.7,0,11.9,6.3,11.9,13.7v1.8v10.2v12.6H195.3z"/>
	<path d="M29.6,700.2c-0.9-2.2-2.2-4.2-3.9-5.9c-1.7-1.7-3.7-3-6-3.9c-2.3-0.9-4.9-1.4-7.7-1.4H0v37h11.9c2.8,0,5.3-0.5,7.7-1.4
		c2.3-0.9,4.4-2.3,6-3.9c1.7-1.7,3-3.6,3.9-5.9c0.9-2.2,1.4-4.7,1.4-7.4C31,704.9,30.5,702.5,29.6,700.2z M3.3,692.3h8.6
		c2.3,0,4.5,0.4,6.4,1.2c1.9,0.8,3.6,1.9,4.9,3.2c1.4,1.4,2.4,3,3.2,4.8c0.8,1.8,1.1,3.8,1.1,6.1c0,2.1-0.4,4.1-1.1,5.9
		c-0.8,1.8-1.8,3.4-3.2,4.8c-1.4,1.4-3,2.4-4.9,3.2c-1.9,0.8-4.1,1.2-6.4,1.2H3.3V692.3z"/>
	<path d="M51.2,689l-17.3,37h3.7l4.8-10.4h19.9l4.8,10.4h3.7l-17.3-37H51.2z M44,712.4l8.4-18.1l8.4,18.1H44z"/>
	<rect x="77.5" y="689" width="3.3" height="37"/>
	<polygon points="94.8,722.8 94.8,689 91.5,689 91.5,726.1 115.6,726.1 115.6,722.8 	"/>
	<polygon points="141.8,688.8 129,707.2 116.1,688.8 112,688.8 127.3,710.5 127.3,725.9 130.6,725.9 130.6,710.5 145.9,688.8 	"/>
</g>
<g>
	<path class="st0" d="M274.4,682l-3.4-5.2h1.8l2.4,3.8l2.4-3.8h1.7l-3.4,5.2v3.4h-1.5V682z"/>
	<path class="st0" d="M283.6,682l-3.4-5.2h1.8l2.4,3.8l2.4-3.8h1.7l-3.4,5.2v3.4h-1.5V682z"/>
	<path class="st0" d="M293.5,685.5c-0.6,0-1.2-0.1-1.7-0.3c-0.5-0.2-1-0.5-1.4-0.9s-0.7-0.9-0.9-1.4c-0.2-0.5-0.3-1.1-0.3-1.7v0
		c0-0.6,0.1-1.2,0.3-1.7c0.2-0.5,0.5-1,0.9-1.4c0.4-0.4,0.9-0.7,1.4-1s1.1-0.4,1.8-0.4c0.4,0,0.8,0,1.1,0.1c0.3,0.1,0.6,0.2,0.9,0.3
		s0.5,0.3,0.7,0.4c0.2,0.2,0.4,0.3,0.7,0.5l-1,1.1c-0.3-0.3-0.7-0.6-1.1-0.8c-0.4-0.2-0.8-0.3-1.3-0.3c-0.4,0-0.8,0.1-1.1,0.2
		c-0.3,0.2-0.6,0.4-0.9,0.7c-0.3,0.3-0.5,0.6-0.6,1c-0.1,0.4-0.2,0.8-0.2,1.2v0c0,0.4,0.1,0.8,0.2,1.2c0.1,0.4,0.3,0.7,0.6,1
		c0.3,0.3,0.6,0.5,0.9,0.7c0.3,0.2,0.7,0.2,1.1,0.2c0.5,0,1-0.1,1.4-0.3c0.4-0.2,0.7-0.5,1.1-0.8l1,1c-0.2,0.2-0.5,0.4-0.7,0.6
		c-0.2,0.2-0.5,0.3-0.8,0.5c-0.3,0.1-0.6,0.2-0.9,0.3C294.2,685.5,293.9,685.5,293.5,685.5z"/>
</g>
</svg>
