<?xml version="1.0" encoding="utf-8"?>
<!-- Generator: Adobe Illustrator 22.0.0, SVG Export Plug-In . SVG Version: 6.00 Build 0)  -->
<svg version="1.1" id="Layer_1" xmlns="http://www.w3.org/2000/svg" xmlns:xlink="http://www.w3.org/1999/xlink" x="0px" y="0px"
	 width="167.5px" height="1096.8px" viewBox="0 0 167.5 1096.8" style="enable-background:new 0 0 167.5 1096.8;"
	 xml:space="preserve">
<style type="text/css">
	.st0{clip-path:url(#SVGID_2_);}
	.st1{fill:#010101;}
	.st2{fill:#F3E71D;}
	.st3{fill:#FFFFFF;}
	.st4{clip-path:url(#SVGID_4_);}
	.st5{clip-path:url(#SVGID_6_);}
	.st6{clip-path:url(#SVGID_8_);}
	.st7{fill:#F5E929;}
</style>
<title>Dished cities logo</title>
<g>
	<g>
		<defs>
			<rect id="SVGID_1_" x="-3.1" y="-6.2" width="142.7" height="68.4"/>
		</defs>
		<clipPath id="SVGID_2_">
			<use xlink:href="#SVGID_1_"  style="overflow:visible;"/>
		</clipPath>
		<g class="st0">
			<path class="st1" d="M113.9,15.4L113.9,15.4L113.9,15.4z"/>
			<path class="st1" d="M130.1,27.3l0.7-3.1h-2.9l0.5-3.2l4-20.9h-7.1l-7.5,11.4c-0.9,0.4-1.6,1-2.3,1.7c-0.7,0.7-1.2,1.5-1.6,2.4
				v-0.1l-0.1,0.1l0.1-0.1l-0.1,0.2l-3.5,5.2l0.2-0.3c0.2-1.1,0.3-2.3,0.4-3.5c-0.2-3.8-3-6.2-7.4-6.2c-2.3,0-4.4,0.9-6,2.6
				c-0.5,0.6-1,1.3-1.5,2L92.3,21l0.5-2.4c0.2-0.9,0.3-1.8,0.3-2.7c-0.1-2.4-1.6-4.8-4.6-4.8c-2.1,0.2-3.9,1.4-4.9,3.3l-0.2,0.3
				l2.7-14.1l-7-0.1l0,0l-7.3,11c-0.9-0.3-1.9-0.4-2.9-0.4c-3,0-4.6,1-5.4,1.9c-0.3,0.3-0.7,0.7-0.7,0.7l-5.3,8.1
				c0.8-4.2,1.7-9.4,1.9-10l-1.9-0.1l2.2-3.5L59.8,8C59.9,7.6,60,7.2,60,6.8c-0.1-1.4-1.3-2.4-2.7-2.4c-0.7,0-1.3,0.3-1.8,0.7
				l-0.2,0.2l0,0l-0.2,0.2v0.1l0,0l-7.9,11.9l3.3-17.3l-7.1-0.1l-7.5,11.4c-0.9,0.4-1.6,1-2.3,1.7c-0.6,0.7-1.1,1.3-1.5,2.1L18,36.4
				l-1,1.5l-42,60l110.9,0.5L130.1,27.3L130.1,27.3L130.1,27.3L130.1,27.3z"/>
			<path class="st2" d="M132.5,0.1l-1.3,6.6l-2.7,14.4l-0.5,3.1h2.9l-0.7,3.2h-6.8l0.7-3.5c-1.2,2.1-3.4,3.5-5.8,3.6
				c-3.1,0-5.5-2.5-5.7-6.3c-0.3-5.6,3.4-10.5,8.2-10.5c2.1,0.2,4,1.5,4.8,3.5l1.5-8l0.5-2.7h-3.1l0.8-3.4L132.5,0.1z M120.1,24
				c2.8,0,5.2-2.8,5-6.3c-0.1-2.1-1.2-3.4-3.4-3.4c-2.8,0-4.9,3-4.7,6.3C117,22.5,118.1,24,120.1,24L120.1,24z"/>
			<path class="st2" d="M110.5,20.6H99v0.3c0.1,1.8,1.7,3.4,4.9,3.4c1.9,0,3.8-0.5,5.5-1.4l-0.6,3.7c-1.8,0.8-3.7,1.2-5.6,1.1
				c-4.1,0-8-2.5-8.2-7c-0.3-5.5,3.6-9.8,8.6-9.8c4.2,0,7.3,2.2,7.5,6.2C110.9,18.3,110.8,19.4,110.5,20.6z M103.7,14.1
				c-2.1,0-3.7,1.4-4.4,3.6h7.5c0.1-0.4,0.1-0.7,0.1-1.1C106.8,15.1,105.7,14.1,103.7,14.1z"/>
			<path class="st2" d="M86.1,0.4l-2.6,13.8c1.1-1.7,2.9-3.2,5-3.2c2.4,0,4.6,1.7,4.7,4.8c0,0.9-0.1,1.8-0.3,2.7l-1.9,9h-4.3l2-9.5
				c0.1-0.4,0.2-0.9,0.1-1.3c0-1.2-1-2.2-2.2-2.3c-0.1,0-0.1,0-0.2,0c-1.8,0-3,1.1-3.5,3.7L82.3,21l-1.2,6.5h-4.3l1.3-7l3.1-16.8
				h-3.1l0.8-3.4L86.1,0.4z"/>
			<path class="st2" d="M57.3,4.4c1.4,0,2.6,1.1,2.7,2.5c0.1,1.3-1,2.4-2.3,2.5c-0.1,0-0.1,0-0.2,0c-1.4,0-2.6-1.1-2.7-2.5
				c-0.1-1.3,1-2.4,2.3-2.5C57.2,4.4,57.2,4.4,57.3,4.4z"/>
			<path class="st2" d="M68.8,10.9c2-0.1,4.1,0.6,5.6,1.9c0.6,0.6,1,1.4,1.1,2.2c0.1,1.1-0.6,2.1-1.7,2.2c-0.1,0-0.2,0-0.3,0
				c-1.2,0-2.1-0.9-2.2-2.1c0-0.3,0.1-0.6,0.2-0.9c-0.2-0.1-0.4-0.2-0.6-0.2c-0.6-0.2-1.2-0.3-1.9-0.3c-1.4,0-2.8,0.4-2.7,1.5
				s1.9,1.8,3.8,2.6c2.2,0.9,4.6,2.1,4.7,4.7c0.2,3.2-2.4,5.1-7,5.1c-2.3,0.1-4.6-0.6-6.4-2c-0.7-0.6-1.1-1.4-1.2-2.3
				c-0.2-1.1,0.6-2.1,1.7-2.3c0.1,0,0.3,0,0.4,0c1.1,0,2.1,0.9,2.2,2c0,0.3-0.1,0.6-0.2,0.9c0.2,0.1,0.4,0.2,0.6,0.3
				c0.9,0.3,1.9,0.5,2.8,0.5c1.6,0,3-0.5,2.9-1.5s-1.9-1.8-3.8-2.6c-2.2-0.9-4.6-2-4.8-4.7S64.2,10.9,68.8,10.9z"/>
			<path class="st2" d="M59.4,11.6c0,0-2.7,14.7-3,15.9H52L54.4,15h-3l0.8-3.4H59.4z"/>
			<path class="st2" d="M50.6,0.1l-1.3,6.6l-2.7,14.4l-0.5,3.1H49l-0.7,3.2h-6.8l0.7-3.5c-1.2,2.1-3.4,3.5-5.8,3.6
				c-3.1,0-5.5-2.5-5.7-6.3c-0.3-5.6,3.4-10.5,8.2-10.5c2.1,0.2,4,1.5,4.8,3.5l1.5-8l0.5-2.7h-3l0.8-3.4L50.6,0.1z M38.3,24
				c2.8,0,5.2-2.8,5-6.3c-0.1-2.1-1.2-3.4-3.4-3.4c-2.8,0-4.9,3-4.7,6.3C35.2,22.5,36.2,24,38.3,24L38.3,24z"/>
			<path class="st3" d="M38.7,47.3L38.7,47.3l1.4-9.7h1.7L40,49.4h-2.8l-1.8-11.8h1.9L38.7,47.3z"/>
			<path class="st3" d="M49.8,49.5h-1.9l-0.4-2.1h-2.2L45,49.6h-1.7l1.9-11.9h2.7L49.8,49.5z M45.5,45.8h1.8l-0.9-6l0,0L45.5,45.8z"
				/>
			<path class="st3" d="M53.8,40.9L53.8,40.9v8.6h-1.7V37.7h2.3l1.9,7.1l0,0v-7.1H58v11.9h-1.9L53.8,40.9z"/>
			<path class="st3" d="M66.2,45.1v1.6c0,1.9-0.9,3-2.8,3c-1.9,0-2.8-1.1-2.8-3v-6.2c0-1.9,0.9-3,2.8-3c1.9,0,2.8,1.1,2.8,3v1.2
				h-1.8v-1.3c0-0.8-0.4-1.2-1-1.2c-0.6,0-1,0.3-1,1.2v6.4c0,0.8,0.4,1.2,1,1.2c0.6,0,1-0.3,1-1.2v-1.7H66.2z"/>
			<path class="st3" d="M68.5,40.5c0-1.9,1-3,2.8-3s2.8,1.1,2.8,3v6.2c0,1.9-1,3-2.8,3s-2.8-1.1-2.8-3V40.5z M70.4,46.8
				c0,0.8,0.4,1.2,1,1.2s1-0.3,1-1.2v-6.4c0-0.8-0.4-1.2-1-1.2s-1,0.3-1,1.2V46.8z"/>
			<path class="st3" d="M78.6,37.7v9.2c0,0.8,0.4,1.2,1,1.2s1-0.3,1-1.2v-9.2h1.8v9c0,1.9-0.9,3-2.8,3s-2.8-1.1-2.8-3v-9H78.6z"/>
			<path class="st3" d="M87.8,47.3L87.8,47.3l1.4-9.7h1.7l-1.8,11.9h-2.8l-1.8-11.9h1.9L87.8,47.3z"/>
			<path class="st3" d="M95.2,42.7h2.5v1.7h-2.6v3.5h3.2v1.7h-5.1V37.7h5.1v1.7h-3.2L95.2,42.7L95.2,42.7z"/>
			<path class="st3" d="M104.9,49.5c-0.2-0.5-0.2-1-0.2-1.5v-1.9c0-1.1-0.4-1.5-1.2-1.5h-0.6v4.8H101V37.7h2.8
				c1.9,0,2.8,0.9,2.8,2.7v0.9c0.1,1-0.4,1.9-1.2,2.4l0,0c0.9,0.4,1.2,1.3,1.2,2.5v1.9c0,0.5,0,1,0.2,1.4H104.9z M102.9,39.4V43h0.7
				c0.7,0,1.1-0.3,1.1-1.2v-1.2c0-0.8-0.3-1.2-0.9-1.2L102.9,39.4z"/>
		</g>
	</g>
</g>
<g>
	<g>
		<defs>
			<rect id="SVGID_3_" x="-3.1" y="62.2" width="142.7" height="68"/>
		</defs>
		<clipPath id="SVGID_4_">
			<use xlink:href="#SVGID_3_"  style="overflow:visible;"/>
		</clipPath>
		<g class="st4">
			<path class="st1" d="M113.4,83.6L113.4,83.6L113.4,83.6z"/>
			<path class="st1" d="M129.7,95.5l0.7-3.1h-2.9l0.5-3.2l4-20.9l-7.1-0.1l-7.5,11.3c-0.9,0.4-1.6,1-2.3,1.7
				c-0.7,0.7-1.2,1.5-1.6,2.4v-0.1l-0.1,0.1l0.1-0.1l-0.1,0.2l-3.5,5.3l0.2-0.3c0.2-1.1,0.3-2.3,0.4-3.5c-0.2-3.8-3-6.2-7.4-6.2
				c-2.3,0-4.4,0.9-6,2.6c-0.5,0.6-1,1.3-1.5,1.9L91.9,89l0.5-2.4c0.2-0.9,0.3-1.8,0.3-2.7c-0.1-2.4-1.6-4.8-4.6-4.8
				c-2.1,0.2-3.9,1.4-4.9,3.2L83,82.6l2.7-14.1l-7-0.1l0,0l-7.3,11c-0.9-0.3-1.9-0.4-2.9-0.4c-3,0-4.6,1-5.4,1.9
				c-0.3,0.3-0.7,0.7-0.7,0.7l-5.3,8.1c0.8-4.2,1.7-9.3,1.9-10.1l-1.9-0.1l2.2-3.4l0.1-0.2c0.1-0.4,0.2-0.8,0.2-1.2
				c-0.1-1.4-1.3-2.4-2.7-2.4c-0.7,0-1.3,0.3-1.8,0.7l-0.2,0.2l0,0l-0.2,0.2v0.1l0,0l-8,12.3L50,68.5l-7.1-0.1l-7.5,11.3
				c-0.9,0.4-1.6,1-2.3,1.7c-0.6,0.7-1.1,1.3-1.6,2.1l-14.1,21.2l-1,1.5l-42,60l110.8,0.5L129.7,95.5L129.7,95.5L129.7,95.5
				L129.7,95.5z"/>
			<path class="st2" d="M132,68.3l-1.3,6.6l-2.8,14.4l-0.5,3.1h2.9l-0.7,3.2h-6.8l0.7-3.6c-1.2,2.1-3.4,3.5-5.8,3.6
				c-3.1,0-5.5-2.5-5.7-6.3c-0.3-5.6,3.4-10.5,8.2-10.5c2.1,0.2,4,1.5,4.8,3.5l1.5-8l0.5-2.7h-3.1l0.8-3.4L132,68.3z M119.7,92.3
				c2.8,0,5.2-2.8,5-6.3c-0.1-2.1-1.2-3.4-3.4-3.4c-2.8,0-4.9,3-4.7,6.3C116.6,90.7,117.6,92.3,119.7,92.3L119.7,92.3z"/>
			<path class="st2" d="M110,88.8H98.5v0.3c0.1,1.8,1.7,3.4,4.9,3.4c1.9,0,3.8-0.5,5.5-1.4l-0.6,3.7c-1.8,0.8-3.7,1.2-5.6,1.1
				c-4.1,0-8-2.5-8.2-6.9c-0.3-5.5,3.6-9.8,8.6-9.8c4.2,0,7.3,2.2,7.5,6.2C110.5,86.5,110.3,87.7,110,88.8z M103.2,82.4
				c-2.1,0-3.7,1.4-4.4,3.6h7.5c0.1-0.4,0.1-0.7,0.1-1.1C106.3,83.3,105.2,82.4,103.2,82.4z"/>
			<path class="st2" d="M85.7,68.6l-2.6,13.8c1.1-1.7,2.9-3.2,5-3.2c2.4,0,4.6,1.7,4.7,4.8c0,0.9-0.1,1.8-0.3,2.7l-1.9,9h-4.3l2-9.5
				c0.1-0.4,0.2-0.9,0.1-1.3c0-1.2-1-2.2-2.2-2.3c-0.1,0-0.1,0-0.2,0c-1.8,0-3,1.1-3.5,3.7l-0.6,2.9l-1.2,6.5h-4.3l1.3-7l3.2-16.6
				h-3.1l0.8-3.4L85.7,68.6z"/>
			<path class="st2" d="M56.8,72.6c1.4,0,2.6,1.1,2.7,2.5c0.1,1.3-1,2.4-2.3,2.5c-0.1,0-0.1,0-0.2,0c-1.4,0-2.6-1.1-2.7-2.5
				c0-1.3,1-2.4,2.3-2.5C56.7,72.6,56.8,72.6,56.8,72.6z"/>
			<path class="st2" d="M68.3,79.2c2-0.1,4.1,0.6,5.6,1.9c0.6,0.6,1,1.4,1.1,2.2c0.1,1.1-0.6,2.1-1.7,2.2c-0.1,0-0.2,0-0.3,0
				c-1.2,0-2.1-0.9-2.2-2.1c0-0.3,0.1-0.6,0.2-0.9c-0.2-0.1-0.4-0.2-0.6-0.2c-0.6-0.2-1.2-0.3-1.9-0.3c-1.4,0-2.8,0.4-2.7,1.5
				s1.9,1.8,3.8,2.6c2.2,0.9,4.6,2.1,4.7,4.7c0.2,3.2-2.4,5.1-7,5.1c-2.3,0.1-4.6-0.6-6.4-2c-0.7-0.6-1.1-1.4-1.2-2.3
				c-0.2-1.1,0.6-2.1,1.7-2.3c0.1,0,0.3,0,0.4,0c1.1,0,2.1,0.9,2.2,2c0,0.3-0.1,0.6-0.2,0.9c0.2,0.1,0.4,0.2,0.6,0.3
				c0.9,0.3,1.9,0.5,2.8,0.5c1.6,0,3-0.4,2.9-1.5s-1.8-1.8-3.7-2.5c-2.2-0.8-4.6-2-4.8-4.7S63.7,79.2,68.3,79.2z"/>
			<path class="st2" d="M58.9,79.8c0,0-2.7,14.7-3,15.9h-4.4l2.4-12.5h-3l0.8-3.4H58.9z"/>
			<path class="st2" d="M50.2,68.3l-1.3,6.6l-2.8,14.4l-0.5,3.1h2.9l-0.7,3.2H41l0.7-3.6c-1.2,2.1-3.4,3.5-5.8,3.6
				c-3.1,0-5.5-2.5-5.7-6.3c-0.3-5.6,3.4-10.5,8.2-10.5c2.1,0.2,4,1.5,4.8,3.5l1.5-8l0.5-2.6h-3.1l0.8-3.4L50.2,68.3z M37.8,92.3
				c2.8,0,5.2-2.8,5-6.3c-0.1-2.1-1.2-3.4-3.4-3.4c-2.8,0-4.9,3-4.7,6.3C34.7,90.7,35.8,92.3,37.8,92.3L37.8,92.3z"/>
			<path class="st3" d="M52.4,113.5v1.6c0,1.9-1,3-2.8,3s-2.8-1.1-2.8-3v-6.2c0-1.9,1-3,2.8-3s2.8,1.1,2.8,3v1.2h-1.8v-1.3
				c0-0.8-0.4-1.2-1-1.2s-1,0.3-1,1.2v6.4c0,0.8,0.4,1.2,1,1.2s1-0.3,1-1.2v-1.7H52.4z"/>
			<path class="st3" d="M60.9,117.9H59l-0.3-2.2h-2.3l-0.3,2.2h-1.7l1.9-11.9h2.8L60.9,117.9z M56.6,114.2h1.8l-0.9-6l0,0
				L56.6,114.2z"/>
			<path class="st3" d="M63,106h1.9v10.2H68v1.7h-5L63,106z"/>
			<path class="st3" d="M72.9,111.3h2.6v3.8c0,1.9-1,3-2.8,3s-2.8-1.1-2.8-3v-6.2c0-1.9,1-3,2.8-3s2.8,1.1,2.8,3v1.2h-1.8v-1.3
				c0-0.8-0.4-1.2-1-1.2s-1,0.3-1,1.2v6.4c0,0.8,0.4,1.2,1,1.2s1-0.3,1-1.2V113h-0.8L72.9,111.3z"/>
			<path class="st3" d="M84.1,117.9h-1.9l-0.3-2.2h-2.3l-0.3,2.2h-1.7l1.9-11.9h2.8L84.1,117.9z M79.8,114.2h1.8l-0.9-6l0,0
				L79.8,114.2z"/>
			<path class="st3" d="M90.2,117.9c-0.2-0.5-0.2-1-0.2-1.5v-1.9c0-1.1-0.4-1.5-1.2-1.5h-0.7v4.9h-1.9V106H89c1.9,0,2.8,0.9,2.8,2.8
				v0.9c0.1,1-0.4,1.9-1.2,2.4l0,0c0.9,0.4,1.2,1.3,1.2,2.5v1.8c0,0.5,0,1,0.2,1.4L90.2,117.9z M88.2,107.7v3.7h0.7
				c0.7,0,1.1-0.3,1.1-1.3v-1.2c0-0.8-0.3-1.2-1-1.2H88.2z"/>
			<path class="st3" d="M96,114l-2.4-8h2l1.4,5.4l0,0l1.4-5.4h1.8l-2.4,8v4h-1.9L96,114z"/>
		</g>
	</g>
</g>
<g>
	<g>
		<defs>
			<rect id="SVGID_5_" x="-3.1" y="130.3" width="142.7" height="68"/>
		</defs>
		<clipPath id="SVGID_6_">
			<use xlink:href="#SVGID_5_"  style="overflow:visible;"/>
		</clipPath>
		<g class="st5">
			<path class="st1" d="M113.4,151.8L113.4,151.8L113.4,151.8z"/>
			<path class="st1" d="M129.7,163.7l0.7-3.1h-2.9l0.5-3.2l4-20.9l-7.1-0.1l-7.5,11.4c-0.9,0.4-1.6,1-2.3,1.7
				c-0.7,0.7-1.2,1.5-1.6,2.4v-0.1l-0.1,0.1l0.1-0.1l-0.1,0.2l-3.5,5.3l0.2-0.3c0.2-1.1,0.3-2.3,0.4-3.5c-0.2-3.8-3-6.2-7.4-6.2
				c-2.3,0-4.4,0.9-6,2.6c-0.5,0.6-1,1.3-1.5,1.9l-3.7,5.5l0.5-2.4c0.2-0.9,0.3-1.8,0.3-2.7c-0.1-2.4-1.6-4.8-4.6-4.8
				c-2.1,0.2-3.9,1.4-4.9,3.2l-0.2,0.3l2.7-14.1l-7-0.1l0,0l-7.3,11c-0.9-0.3-1.9-0.4-2.9-0.4c-3,0-4.6,1-5.4,1.9
				c-0.3,0.3-0.7,0.7-0.7,0.7l-5.3,8.1c0.8-4.2,1.7-9.4,1.9-10.1l-1.9-0.1l2.2-3.4l0.1-0.2c0.1-0.4,0.2-0.8,0.2-1.2
				c-0.1-1.4-1.3-2.4-2.7-2.4c-0.7,0-1.3,0.3-1.8,0.7l-0.2,0.2l0,0l-0.2,0.2v0.1l0,0l-7.9,11.9l3.3-17.3l-7.1-0.1l-7.5,11.4
				c-0.9,0.4-1.6,1-2.3,1.7c-0.6,0.7-1.1,1.3-1.6,2.1l-14.1,21.2l-1,1.5l-42,60l110.8,0.5L129.7,163.7L129.7,163.7L129.7,163.7
				L129.7,163.7z"/>
			<path class="st2" d="M132.1,136.5l-1.3,6.6l-2.8,14.4l-0.5,3.1h2.9l-0.7,3.2h-6.8l0.7-3.6c-1.2,2.1-3.4,3.5-5.8,3.6
				c-3.1,0-5.5-2.5-5.7-6.3c-0.3-5.6,3.4-10.5,8.2-10.5c2.1,0.2,4,1.5,4.8,3.5l1.5-8l0.5-2.7H124l0.8-3.4L132.1,136.5z M119.7,160.4
				c2.8,0,5.2-2.8,5-6.3c-0.1-2.1-1.2-3.4-3.4-3.4c-2.8,0-4.9,3-4.7,6.3C116.6,158.9,117.7,160.4,119.7,160.4L119.7,160.4z"/>
			<path class="st2" d="M110,157H98.5v0.3c0.1,1.8,1.7,3.4,4.9,3.4c1.9,0,3.8-0.5,5.5-1.4l-0.6,3.7c-1.8,0.8-3.7,1.2-5.6,1.1
				c-4.1,0-8-2.5-8.2-6.9c-0.3-5.5,3.6-9.8,8.6-9.8c4.2,0,7.3,2.2,7.5,6.2C110.5,154.7,110.3,155.9,110,157z M103.2,150.6
				c-2.1,0-3.7,1.4-4.4,3.6h7.5c0.1-0.4,0.1-0.7,0.1-1.1C106.3,151.5,105.2,150.6,103.2,150.6z"/>
			<path class="st2" d="M85.7,136.7l-2.6,13.8c1.1-1.7,2.9-3.2,5-3.2c2.4,0,4.6,1.7,4.7,4.8c0,0.9-0.1,1.8-0.3,2.7l-1.9,9h-4.3
				l2-9.5c0.1-0.4,0.2-0.9,0.1-1.3c0-1.2-1-2.2-2.2-2.3c-0.1,0-0.1,0-0.2,0c-1.8,0-3,1.1-3.5,3.7l-0.6,2.9l-1.2,6.5h-4.3l1.3-7
				l3.2-16.7h-3.1l0.7-3.4H85.7z"/>
			<path class="st2" d="M56.8,140.7c1.4,0,2.6,1.1,2.7,2.5c0.1,1.3-1,2.4-2.3,2.5c-0.1,0-0.1,0-0.2,0c-1.4,0-2.6-1.1-2.7-2.5
				c-0.1-1.3,0.9-2.4,2.3-2.5C56.7,140.7,56.8,140.7,56.8,140.7z"/>
			<path class="st2" d="M68.4,147.3c2-0.1,4.1,0.6,5.6,1.9c0.6,0.6,1,1.4,1.1,2.2c0.2,1.1-0.6,2.1-1.7,2.3c-0.1,0-0.3,0-0.4,0
				c-1.2,0-2.1-0.9-2.2-2.1c0-0.3,0.1-0.6,0.2-0.9c-0.2-0.1-0.4-0.2-0.6-0.2c-0.6-0.2-1.2-0.3-1.9-0.3c-1.4,0-2.8,0.4-2.7,1.5
				s1.9,1.8,3.8,2.6c2.2,0.9,4.6,2.1,4.7,4.7c0.2,3.2-2.4,5.1-7,5.1c-2.3,0.1-4.6-0.6-6.4-2c-0.7-0.6-1.1-1.4-1.2-2.3
				c-0.2-1.1,0.6-2.1,1.7-2.3c0.1,0,0.3,0,0.4,0c1.1,0,2.1,0.9,2.2,2c0,0.3-0.1,0.6-0.2,0.9c0.2,0.1,0.4,0.2,0.6,0.3
				c0.9,0.3,1.9,0.5,2.8,0.5c1.6,0,3-0.4,2.9-1.5s-1.8-1.8-3.8-2.6c-2.2-0.9-4.6-2-4.8-4.7S63.7,147.3,68.4,147.3z"/>
			<path class="st2" d="M58.9,148c0,0-2.7,14.7-3,15.9h-4.4l2.4-12.5h-3l0.8-3.4H58.9z"/>
			<path class="st2" d="M50.2,136.5l-1.3,6.6l-2.8,14.4l-0.5,3.1h2.9l-0.7,3.2h-6.7l0.7-3.6c-1.2,2.1-3.4,3.5-5.8,3.6
				c-3.1,0-5.5-2.5-5.7-6.3c-0.3-5.6,3.4-10.5,8.2-10.5c2.1,0.2,4,1.5,4.8,3.5l1.5-8l0.5-2.7h-3.1l0.8-3.4L50.2,136.5z M37.8,160.4
				c2.8,0,5.2-2.8,5-6.3c-0.1-2.1-1.2-3.4-3.4-3.4c-2.8,0-4.9,3-4.7,6.3C34.7,158.9,35.8,160.4,37.8,160.4L37.8,160.4z"/>
			<path class="st3" d="M45.4,174.9h5.8v1.7h-2v10.2h-1.8v-10.2h-2V174.9z"/>
			<path class="st3" d="M53.1,177.7c0-1.9,1-3,2.8-3s2.8,1.1,2.8,3v6.2c0,1.9-1,3-2.8,3s-2.8-1.1-2.8-3V177.7z M55,184.1
				c0,0.9,0.4,1.2,1,1.2s1-0.3,1-1.2v-6.4c0-0.9-0.4-1.2-1-1.2s-1,0.3-1,1.2V184.1z"/>
			<path class="st3" d="M65.2,186.8c-0.2-0.5-0.2-1-0.2-1.5v-1.9c0-1.1-0.4-1.5-1.2-1.5h-0.7v4.9h-1.9v-11.9H64
				c1.9,0,2.8,0.9,2.8,2.8v0.9c0.1,1-0.4,1.9-1.2,2.4l0,0c0.9,0.4,1.2,1.3,1.2,2.5v1.8c0,0.5,0,1,0.2,1.4L65.2,186.8z M63.2,176.6
				v3.7h0.7c0.7,0,1.1-0.3,1.1-1.3v-1.2c0-0.9-0.3-1.2-1-1.2H63.2z"/>
			<path class="st3" d="M69.3,177.7c0-1.9,1-3,2.8-3s2.8,1.1,2.8,3v6.2c0,1.9-1,3-2.8,3s-2.8-1.1-2.8-3V177.7z M71.2,184.1
				c0,0.9,0.4,1.2,1,1.2s1-0.3,1-1.2v-6.4c0-0.9-0.4-1.2-1-1.2s-1,0.3-1,1.2V184.1z"/>
			<path class="st3" d="M79.2,178.2L79.2,178.2v8.6h-1.7v-11.9h2.3l1.9,7.1l0,0v-7.1h1.7v11.9h-1.9L79.2,178.2z"/>
			<path class="st3" d="M85.5,174.9h5.8v1.7h-2v10.2h-1.8v-10.2h-2V174.9z"/>
			<path class="st3" d="M93.2,177.7c0-1.9,1-3,2.8-3s2.8,1.1,2.8,3v6.2c0,1.9-1,3-2.8,3s-2.8-1.1-2.8-3V177.7z M95.1,184.1
				c0,0.9,0.4,1.2,1,1.2s1-0.3,1-1.2v-6.4c0-0.9-0.4-1.2-1-1.2s-1,0.3-1,1.2V184.1z"/>
		</g>
	</g>
</g>
<g>
	<g>
		<defs>
			<rect id="SVGID_7_" x="-3.1" y="198.3" width="142.7" height="68"/>
		</defs>
		<clipPath id="SVGID_8_">
			<use xlink:href="#SVGID_7_"  style="overflow:visible;"/>
		</clipPath>
		<g class="st6">
			<path class="st1" d="M113.4,219.8L113.4,219.8L113.4,219.8z"/>
			<path class="st1" d="M129.7,231.7l0.7-3.1h-2.9l0.5-3.2l4-20.9l-7.1-0.1l-7.5,11.4c-0.9,0.4-1.6,1-2.3,1.7
				c-0.7,0.7-1.2,1.5-1.6,2.4v-0.1l-0.1,0.1l0.1-0.1l-0.1,0.2l-3.5,5.3l0.2-0.3c0.2-1.1,0.3-2.3,0.4-3.5c-0.2-3.8-3-6.2-7.4-6.2
				c-2.3,0-4.4,0.9-6,2.6c-0.5,0.6-1,1.3-1.5,1.9l-3.7,5.5l0.5-2.4c0.2-0.9,0.3-1.8,0.3-2.7c-0.1-2.4-1.6-4.8-4.6-4.8
				c-2.1,0.2-3.9,1.4-4.9,3.2l-0.2,0.3l2.7-14.1l-7-0.1l0,0l-7.3,11c-0.9-0.3-1.9-0.4-2.9-0.4c-3,0-4.6,1-5.4,1.9
				c-0.3,0.3-0.7,0.7-0.7,0.7l-5.3,8.1c0.8-4.2,1.7-9.4,1.9-10.1l-1.9-0.1l2.2-3.4l0.1-0.2c0.1-0.4,0.2-0.8,0.2-1.2
				c-0.1-1.4-1.3-2.4-2.7-2.4c-0.7,0-1.3,0.3-1.8,0.7l-0.2,0.2l0,0l-0.2,0.2v0.1l0,0l-7.9,11.9l3.3-17.3l-7.1-0.1l-7.5,11.4
				c-0.9,0.4-1.6,1-2.3,1.7c-0.6,0.7-1.1,1.3-1.6,2.1l-14.1,21.2l-1,1.5l-42,60l110.8,0.5L129.7,231.7L129.7,231.7L129.7,231.7
				L129.7,231.7z"/>
			<path class="st2" d="M132.1,204.5l-1.3,6.6l-2.8,14.4l-0.5,3.1h2.9l-0.7,3.2h-6.8l0.7-3.6c-1.2,2.1-3.4,3.5-5.8,3.6
				c-3.1,0-5.5-2.5-5.7-6.3c-0.3-5.6,3.4-10.5,8.2-10.5c2.1,0.2,4,1.5,4.8,3.5l1.5-8l0.5-2.7H124l0.8-3.4L132.1,204.5z M119.7,228.4
				c2.8,0,5.2-2.8,5-6.3c-0.1-2.1-1.2-3.4-3.4-3.4c-2.8,0-4.9,3-4.7,6.3C116.6,226.9,117.7,228.4,119.7,228.4L119.7,228.4z"/>
			<path class="st2" d="M110,225H98.5v0.3c0.1,1.8,1.7,3.4,4.9,3.4c1.9,0,3.8-0.5,5.5-1.4l-0.6,3.7c-1.8,0.8-3.7,1.2-5.6,1.1
				c-4.1,0-8-2.5-8.2-6.9c-0.3-5.5,3.6-9.8,8.6-9.8c4.2,0,7.3,2.2,7.5,6.2C110.5,222.7,110.3,223.9,110,225z M103.2,218.6
				c-2.1,0-3.7,1.4-4.4,3.6h7.5c0.1-0.4,0.1-0.7,0.1-1.1C106.3,219.5,105.2,218.6,103.2,218.6z"/>
			<path class="st2" d="M85.7,204.7l-2.6,13.8c1.1-1.7,2.9-3.2,5-3.2c2.4,0,4.6,1.7,4.7,4.8c0,0.9-0.1,1.8-0.3,2.7l-1.9,9h-4.3
				l2-9.5c0.1-0.4,0.2-0.9,0.1-1.3c0-1.2-1-2.2-2.2-2.3c-0.1,0-0.1,0-0.2,0c-1.8,0-3,1.1-3.5,3.7l-0.6,2.9l-1.2,6.5h-4.3l1.3-7
				l3.2-16.7h-3.1l0.7-3.4H85.7z"/>
			<path class="st2" d="M56.8,208.7c1.4,0,2.6,1.1,2.7,2.5c0.1,1.3-1,2.4-2.3,2.5c-0.1,0-0.1,0-0.2,0c-1.4,0-2.6-1.1-2.7-2.5
				c-0.1-1.3,0.9-2.4,2.3-2.5C56.7,208.7,56.8,208.7,56.8,208.7z"/>
			<path class="st2" d="M68.4,215.4c2-0.1,4.1,0.6,5.6,1.9c0.6,0.6,1,1.4,1.1,2.2c0.2,1.1-0.6,2.1-1.7,2.3c-0.1,0-0.3,0-0.4,0
				c-1.2,0-2.1-0.9-2.2-2.1c0-0.3,0.1-0.6,0.2-0.9c-0.2-0.1-0.4-0.2-0.6-0.2c-0.6-0.2-1.2-0.3-1.9-0.3c-1.4,0-2.8,0.4-2.7,1.5
				s1.9,1.8,3.8,2.6c2.2,0.9,4.6,2.1,4.7,4.7c0.2,3.2-2.4,5.1-7,5.1c-2.3,0.1-4.6-0.6-6.4-2c-0.7-0.6-1.1-1.4-1.2-2.3
				c-0.2-1.1,0.6-2.1,1.7-2.3c0.1,0,0.3,0,0.4,0c1.1,0,2.1,0.9,2.2,2c0,0.3-0.1,0.6-0.2,0.9c0.2,0.1,0.4,0.2,0.6,0.3
				c0.9,0.3,1.9,0.5,2.8,0.5c1.6,0,3-0.4,2.9-1.5s-1.8-1.8-3.8-2.6c-2.2-0.9-4.6-2-4.8-4.7S63.8,215.4,68.4,215.4z"/>
			<path class="st2" d="M58.9,216c0,0-2.7,14.7-3,15.9h-4.4l2.4-12.5h-3l0.8-3.4H58.9z"/>
			<path class="st2" d="M50.2,204.5l-1.3,6.6l-2.8,14.4l-0.5,3.1h2.9l-0.7,3.2h-6.7l0.7-3.6c-1.2,2.1-3.4,3.5-5.8,3.6
				c-3.1,0-5.5-2.5-5.7-6.3c-0.3-5.6,3.4-10.5,8.2-10.5c2.1,0.2,4,1.5,4.8,3.5l1.5-8l0.5-2.7h-3.1l0.8-3.4L50.2,204.5z M37.8,228.4
				c2.8,0,5.2-2.8,5-6.3c-0.1-2.1-1.2-3.4-3.4-3.4c-2.8,0-4.9,3-4.7,6.3C34.7,226.9,35.8,228.4,37.8,228.4L37.8,228.4z"/>
			<path class="st3" d="M43,251.5L43,251.5l1.3-8.5H47v11.9h-1.8v-8.6l0,0l-1.3,8.6h-1.8l-1.4-8.4l0,0v8.4H39V243h2.7L43,251.5z"/>
			<path class="st3" d="M49.4,245.9c0-1.9,1-3,2.8-3s2.8,1.1,2.8,3v6.2c0,1.9-1,3-2.8,3s-2.8-1.1-2.8-3V245.9z M51.3,252.2
				c0,0.9,0.4,1.2,1,1.2s1-0.3,1-1.2v-6.4c0-0.9-0.4-1.2-1-1.2s-1,0.3-1,1.2V252.2z"/>
			<path class="st3" d="M59.3,246.3L59.3,246.3v8.7h-1.7v-11.9h2.3l1.9,7.1l0,0v-7.1h1.7V255h-1.9L59.3,246.3z"/>
			<path class="st3" d="M65.6,243h5.8v1.8h-2V255h-1.9v-10.2h-2L65.6,243z"/>
			<path class="st3" d="M77.4,254.9c-0.2-0.5-0.2-1-0.2-1.5v-1.9c0-1.1-0.4-1.5-1.2-1.5h-0.7v4.9h-1.8V243h2.8
				c1.9,0,2.8,0.9,2.8,2.8v0.9c0.1,1-0.4,1.9-1.2,2.4l0,0c0.9,0.4,1.2,1.3,1.2,2.5v1.8c0,0.5,0,1,0.2,1.5H77.4z M75.4,244.7v3.7h0.7
				c0.7,0,1.1-0.3,1.1-1.3v-1.2c0-0.9-0.3-1.2-1-1.2H75.4z"/>
			<path class="st3" d="M83.5,248h2.6v1.7h-2.6v3.5h3.2v1.7h-5v-12h5.1v1.8h-3.2L83.5,248L83.5,248z"/>
			<path class="st3" d="M95.3,254.9h-1.9l-0.3-2.2h-2.3l-0.3,2.2h-1.8l1.9-11.9h2.8L95.3,254.9z M91,251.1h1.8l-0.9-6l0,0L91,251.1z
				"/>
			<path class="st3" d="M97.4,243h1.9v10.2h3.1v1.7h-5V243z"/>
		</g>
	</g>
</g>
<g>
	<g>
		<path d="M0,338.5l130.9,0.1l14.2-21.9l-0.1-0.1l0,0l-8.2,0l0.8-4.4c-1.6,2.4-3.9,4.5-7.1,4.5c-3.8,0-6.8-3.1-7-7.7
			c-0.1-2.5,0.4-4.8,1.3-6.8l-4,6c0,0,0,0,0,0c0,0,0,0.1,0,0.1l-14.1,0l0,0.3c0.1,2.2,2.1,4.2,6,4.2c2.1,0,4.2-0.5,6.7-1.8l-0.8,4.5
			c-2.1,1-3.9,1.4-6.9,1.4c-5,0-9.8-3-10.1-8.5c-0.1-2.4,0.4-4.7,1.4-6.5c0,0,0,0.1,0,0.1l-4.3,6.6l-1.7,8.2l-5.3,0l2.4-11.7
			c0.2-0.6,0.2-1.1,0.2-1.6c-0.1-1.7-1.2-2.8-3-2.8c-2.2,0-3.7,1.4-4.3,4.6l-0.7,3.6l-1.5,8l-5.3,0l1.6-8.6l3.8-20.5l-3.9,0l0.9-4.2
			l-8.9,13.5c1.4,0.4,2.5,1,3.4,1.8c0.8,0.8,1.3,1.7,1.4,2.7c0.1,1.7-1.1,2.8-2.5,2.8c-1.4,0-2.7-1.2-2.8-2.5c0-0.4,0-0.5,0.2-1.1
			c-0.2-0.1-0.4-0.2-0.7-0.3c-0.7-0.2-1.5-0.4-2.3-0.4c-1.7,0-3.4,0.5-3.3,1.8c0.1,1.4,2.3,2.2,4.7,3.2c2.7,1.1,5.6,2.6,5.8,5.8
			c0.2,4-2.9,6.3-8.6,6.3c-3.4,0-6.2-1-7.8-2.5c-0.9-0.8-1.4-1.8-1.5-2.8c-0.1-1.7,1-2.8,2.5-2.8c1.4,0,2.6,1.1,2.7,2.5
			c0,0.4-0.1,0.9-0.2,1.1c0.2,0.1,0.4,0.3,0.7,0.4c1,0.4,2.2,0.6,3.5,0.6c1.9,0,3.7-0.6,3.6-1.9c-0.1-1.5-2.3-2.2-4.6-3.1
			c-2.7-1-5.7-2.4-5.9-5.8c0-1,0.2-2.1,0.7-3c0,0,0,0,0,0l-6.4,9.8c-0.7,3.6-1.2,6.7-1.3,7.3l-5.5,0l2.9-15.4l-3.7,0l0.9-4.2l6.5,0
			l2.6-4c-0.5,0.8-1.5,1.2-2.5,1.2c-1.7,0-3.3-1.3-3.3-3c0-0.5,0.1-1,0.3-1.5l-9.5,14.4l0,0l-0.9,4.6l-0.6,3.8l3.6,0l-0.9,3.9
			l-8.3,0l0.8-4.4c-1.6,2.4-3.9,4.5-7.1,4.5c-3.9,0-6.8-3.1-7-7.7c-0.1-2.6,0.4-5.2,1.6-7.3L0,338.5z"/>
		<path d="M47,283.4l-4.1,21.4l0.1-0.2l-0.9,4.6l-0.6,3.8l3.6,0l-0.9,3.9l-8.3,0l0.8-4.4c-1.6,2.4-3.9,4.5-7.1,4.5
			c-3.9,0-6.8-3.1-7-7.7c-0.1-2.6,0.4-5.2,1.6-7.3c0,0,0,0,0,0l0.1-0.1c0,0,1.2-1.8,1.9-2.5c0.8-0.9,1.8-1.6,2.8-2.1l0.1-0.2
			l9.1-13.8L47,283.4z"/>
		<path d="M57.8,297.5c-0.2,0.9-1.3,7.2-2.3,12.4l0.1-0.2c-0.7,3.6-1.2,6.7-1.3,7.3l-5.5,0l2.9-15.4l-3.7,0l0.9-4.2l6.5,0
			L57.8,297.5z"/>
		<path d="M58.6,291.6c0,0.5-0.2,1.4-0.2,1.4l-0.1,0.2c0,0.1-0.1,0.1-0.1,0.2c-0.5,0.8-1.5,1.2-2.5,1.2c-1.7,0-3.3-1.3-3.3-3
			c0-0.5,0.1-1,0.3-1.5c0,0,0,0,0,0l0,0.1l0-0.1l0.2-0.3c0.1-0.1,0.1-0.2,0.2-0.3c0.6-0.6,1.4-0.9,2.2-0.9
			C57,288.6,58.5,289.9,58.6,291.6z"/>
		<path d="M77.8,301.6c0.1,1.7-1.1,2.8-2.5,2.8c-1.4,0-2.7-1.2-2.8-2.5c0-0.4,0-0.5,0.2-1.1c-0.2-0.1-0.4-0.2-0.7-0.3
			c-0.7-0.2-1.5-0.4-2.3-0.4c-1.7,0-3.4,0.5-3.3,1.8c0.1,1.4,2.3,2.2,4.7,3.2c2.7,1.1,5.6,2.6,5.8,5.8c0.2,4-2.9,6.3-8.6,6.3
			c-3.4,0-6.2-1-7.8-2.5c-0.9-0.8-1.4-1.8-1.5-2.8c-0.1-1.7,1-2.8,2.5-2.8c1.4,0,2.6,1.1,2.7,2.5c0,0.4-0.1,0.9-0.2,1.1
			c0.2,0.1,0.4,0.3,0.7,0.4c1,0.4,2.2,0.6,3.5,0.6c1.9,0,3.7-0.6,3.6-1.9c-0.1-1.5-2.3-2.2-4.6-3.1c-2.7-1-5.7-2.4-5.9-5.8
			c0-1,0.2-2.1,0.7-3c0.1-0.1,0.5-0.6,0.8-0.9c1-1.1,3-2.3,6.7-2.3c1.2,0,2.4,0.2,3.5,0.5l0-0.1c1.4,0.4,2.5,1,3.4,1.8
			C77.3,299.7,77.8,300.6,77.8,301.6z"/>
		<path d="M99.5,302.5c0.1,1.1-0.1,2.2-0.4,3.3l-0.6,3l0.1-0.2l-1.7,8.2l-5.3,0l2.4-11.7c0.2-0.6,0.2-1.1,0.2-1.6
			c-0.1-1.7-1.2-2.8-3-2.8c-2.2,0-3.7,1.4-4.3,4.6l-0.7,3.6l-1.5,8l-5.3,0l1.6-8.6l3.8-20.5l-3.9,0l0.9-4.2l0,0l8.7,0.1L87.5,301
			l0.2-0.4c1.8-2.9,4.4-4,6-4C97.5,296.6,99.3,299.6,99.5,302.5z"/>
		<path d="M120.8,308.3L120.8,308.3C120.8,308.3,120.8,308.3,120.8,308.3l-14.1,0.1l0,0.3c0.1,2.2,2.1,4.2,6,4.2
			c2.1,0,4.2-0.5,6.7-1.8l-0.8,4.5c-2.1,1-3.9,1.4-6.9,1.4c-5,0-9.8-3-10.1-8.5c-0.1-2.4,0.4-4.7,1.4-6.5c0,0,0,0,0,0
			c0.2-0.3,1.1-1.6,1.8-2.3c1.9-2,4.5-3.2,7.3-3.2c5.4,0,8.9,2.9,9.1,7.6C121.3,305.3,120.8,308.3,120.8,308.3z"/>
		<path d="M142.3,312.8l3.6,0l-0.8,3.8l0,0.1l-8.2,0l0.8-4.4c-1.6,2.4-3.9,4.5-7.1,4.5c-3.8,0-6.8-3.1-7-7.7
			c-0.1-2.5,0.4-4.8,1.3-6.8c0,0,0,0,0,0l0.1-0.1l0.1-0.2c0,0.1-0.1,0.1-0.1,0.2l0.1-0.1l0,0.1c0.5-1.1,1.2-2.1,2-2.9
			c0.8-0.9,1.8-1.6,2.8-2.1l0.1-0.2l9.1-13.8l8.7,0.1l-4.9,25.7L142.3,312.8z"/>
		<g>
			<g>
				<path class="st7" d="M146.4,291.2l1.5-8.1l-8.8,0l-0.9,4.2l3.8,0l-0.6,3.3l-1.9,9.8c-1-2.1-3.1-4.3-5.9-4.3
					c-1.3,0-2.5,0.3-3.6,0.8c-2.2,1-4,2.9-5.1,5.3c0,0,0,0,0,0c-1,2-1.5,4.4-1.3,6.8c0.2,4.6,3.2,7.7,7,7.7c3.2,0,5.6-2,7.1-4.5
					l-0.8,4.4l8.3,0l0.9-3.9l-3.6,0l0.6-3.8L146.4,291.2z M132.7,312.5c-2.5,0-3.8-1.9-3.9-4.2c-0.2-4,2.4-7.8,5.8-7.8
					c2.7,0,4.1,1.6,4.2,4.2C139.1,309,136.2,312.5,132.7,312.5z"/>
			</g>
			<path class="st7" d="M121.3,304c-0.2-5-4-7.7-9.2-7.7c-3.9,0-7.3,2.2-9.1,5.6c0,0,0,0,0,0c-1,1.9-1.5,4.1-1.4,6.5
				c0.3,5.5,5.1,8.5,10.1,8.5c3.1,0,4.8-0.4,6.9-1.4l0.8-4.5c-2.5,1.3-4.7,1.8-6.7,1.8c-3.9,0-5.9-1.9-6-4.2l0-0.3l14.1,0
				c0,0,0-0.1,0-0.1c0,0,0,0,0,0C121.2,306.7,121.4,305.3,121.3,304z M116.3,304.9l-9.2,0c0.9-2.7,2.8-4.5,5.4-4.5
				c2.5,0,3.9,1.1,4,3.1C116.4,303.9,116.4,304.4,116.3,304.9z"/>
			<path class="st7" d="M99.2,305.8l-0.6,2.8l-1.7,8.2l-5.3,0l2.4-11.7c0.2-0.6,0.2-1.1,0.2-1.6c-0.1-1.7-1.2-2.8-3-2.8
				c-2.2,0-3.7,1.4-4.3,4.6l-0.7,3.6l-1.5,8l-5.3,0l1.6-8.6l3.8-20.5l-3.9,0l0.9-4.2l8.8,0l-3.2,17c1.3-2.1,3.6-4,6.1-4
				c3,0,5.6,2,5.8,5.9C99.6,303.5,99.5,304.6,99.2,305.8z"/>
			<path class="st7" d="M58.7,291.6c0,0.6-0.1,1.2-0.4,1.7c0,0.1-0.1,0.1-0.1,0.2c-0.5,0.8-1.5,1.2-2.5,1.2c-1.7,0-3.3-1.3-3.3-3
				c0-0.5,0.1-1,0.3-1.5c0,0,0,0,0,0c0.5-0.9,1.5-1.6,2.7-1.6C57.1,288.5,58.6,289.8,58.7,291.6z"/>
			<path class="st7" d="M72.8,300.8c-0.2-0.1-0.4-0.2-0.7-0.3c-0.7-0.2-1.5-0.4-2.3-0.4c-1.7,0-3.4,0.5-3.3,1.8
				c0.1,1.4,2.3,2.2,4.7,3.2c2.7,1.1,5.6,2.6,5.8,5.8c0.2,4-2.9,6.3-8.6,6.3c-3.4,0-6.2-1-7.8-2.5c-0.9-0.8-1.4-1.8-1.5-2.8
				c-0.1-1.7,1-2.8,2.5-2.8c1.4,0,2.6,1.1,2.7,2.5c0,0.4-0.1,0.9-0.2,1.1c0.2,0.1,0.4,0.3,0.7,0.4c1,0.4,2.2,0.6,3.5,0.6
				c1.9,0,3.7-0.6,3.6-1.9c-0.1-1.5-2.3-2.2-4.6-3.1c-2.7-1-5.7-2.4-5.9-5.8c0-1,0.2-2.1,0.7-3c1.1-1.9,3.6-3.3,7.4-3.3
				c1.3,0,2.5,0.2,3.6,0.5c1.4,0.4,2.5,1,3.4,1.8c0.8,0.8,1.3,1.7,1.4,2.7c0.1,1.7-1.1,2.8-2.5,2.8c-1.4,0-2.7-1.2-2.8-2.5
				C72.5,301.5,72.6,301.3,72.8,300.8z"/>
			<path class="st7" d="M57.9,297.4c0,0-1.2,6.7-2.3,12.3c-0.7,3.6-1.2,6.7-1.3,7.3l-5.5,0l2.9-15.4l-3.7,0l0.9-4.2L57.9,297.4z"/>
			<path class="st7" d="M43.1,304.5L43.1,304.5l2.5-13.1l1.6-8.1l-8.8,0l-0.9,4.2l3.8,0l-0.6,3.3l-1.9,9.8c-0.9-2.1-3.1-4.3-5.9-4.3
				c-1.3,0-2.5,0.3-3.6,0.8c-2.1,0.9-3.7,2.7-4.9,4.8c0,0,0,0,0,0c-1.1,2.1-1.7,4.6-1.6,7.3c0.2,4.6,3.2,7.7,7,7.7
				c3.2,0,5.6-2,7.1-4.5l-0.8,4.4l8.3,0l0.9-3.9l-3.6,0l0.6-3.8L43.1,304.5z M32,312.8c-2.5,0-3.8-1.9-3.9-4.2
				c-0.2-4,2.4-7.8,5.8-7.8c2.7,0,4.1,1.6,4.2,4.2C38.3,309.2,35.4,312.7,32,312.8z"/>
		</g>
	</g>
	<g>
		<path class="st3" d="M148,276.3h1.2l1.5,4.3l1.6-4.3h1.2l-2.2,6.1h-1.2L148,276.3z"/>
		<path class="st3" d="M156.3,276.3h1.2l2.3,6.1h-1.2l-0.5-1.2h-2.6l-0.5,1.2h-1.2L156.3,276.3z M156.9,277.9l-0.8,2h1.6
			L156.9,277.9z"/>
		<path class="st3" d="M160.9,276.3h1.2l2.6,4.1v-4.1h1.2v6.1h-1.2l-2.6-4.1v4.1h-1.2V276.3z"/>
	</g>
</g>
<g>
	<g>
		<path class="st3" d="M148.9,348.5h1.3l1.1,2.2l1.1-2.2h1.2l-1.8,3.5v2.7h-1.2V352L148.9,348.5z"/>
		<path class="st3" d="M154.2,348.5h1.3l1.1,2.2l1.1-2.2h1.2l-1.8,3.5v2.7H156V352L154.2,348.5z"/>
		<path class="st3" d="M165.6,349.6l-0.8,0.8c-0.6-0.6-1.2-0.9-1.9-0.9c-0.6,0-1.1,0.2-1.5,0.6c-0.4,0.4-0.6,0.9-0.6,1.5
			c0,0.4,0.1,0.8,0.3,1.1c0.2,0.3,0.4,0.6,0.8,0.7c0.3,0.2,0.7,0.3,1.1,0.3c0.3,0,0.6-0.1,0.9-0.2c0.3-0.1,0.6-0.4,0.9-0.7l0.8,0.8
			c-0.5,0.4-0.9,0.8-1.3,0.9c-0.4,0.2-0.9,0.3-1.4,0.3c-1,0-1.7-0.3-2.3-0.9c-0.6-0.6-0.9-1.4-0.9-2.3c0-0.6,0.1-1.2,0.4-1.6
			c0.3-0.5,0.7-0.9,1.2-1.1c0.5-0.3,1.1-0.4,1.7-0.4c0.5,0,1,0.1,1.5,0.3S165.3,349.2,165.6,349.6z"/>
	</g>
	<g>
		<path d="M0,410.5h131.9l14.1-21.6l-0.1-0.1v0h-8.3l0.8-4.4c-1.6,2.5-4,4.5-7.2,4.5c-3.9,0-6.8-3.1-7-7.8c-0.1-2.5,0.4-4.9,1.4-6.9
			l-4,6.1c0,0,0,0,0,0c0,0,0,0.1,0,0.1h-14.2l0,0.3c0.1,2.2,2.1,4.2,6,4.2c2.1,0,4.2-0.5,6.8-1.8l-0.8,4.6c-2.1,1-3.9,1.4-7,1.4
			c-5.1,0-9.9-3.1-10.2-8.6c-0.1-2.4,0.4-4.7,1.4-6.6c0,0,0,0.1,0,0.1l-4.4,6.6l-1.7,8.3h-5.3l2.5-11.8c0.2-0.6,0.2-1.1,0.2-1.7
			c-0.1-1.7-1.2-2.8-3-2.8c-2.2,0-3.7,1.4-4.3,4.6l-0.7,3.6l-1.5,8h-5.3l1.6-8.7l3.9-20.6h-3.9l0.9-4.2l-9,13.6
			c1.4,0.4,2.5,1,3.4,1.8c0.8,0.8,1.3,1.7,1.4,2.7c0.1,1.7-1.1,2.8-2.6,2.8c-1.4,0-2.7-1.2-2.8-2.6c0-0.4,0-0.5,0.2-1.1
			c-0.2-0.1-0.4-0.2-0.7-0.3c-0.7-0.2-1.5-0.4-2.3-0.4c-1.7,0-3.4,0.5-3.4,1.8c0.1,1.4,2.3,2.2,4.7,3.2c2.7,1.1,5.7,2.7,5.8,5.8
			c0.2,4-3,6.4-8.6,6.4c-3.4,0-6.2-1-7.9-2.5c-0.9-0.8-1.5-1.8-1.5-2.8c-0.1-1.7,1-2.8,2.6-2.8c1.4,0,2.7,1.1,2.7,2.5
			c0,0.4-0.1,0.9-0.2,1.1c0.2,0.1,0.4,0.3,0.7,0.4c1,0.4,2.2,0.6,3.5,0.6c1.9,0,3.7-0.5,3.6-1.9c-0.1-1.5-2.3-2.2-4.6-3.2
			c-2.7-1-5.7-2.5-5.9-5.9c0-1.1,0.2-2.1,0.8-3c0,0,0,0,0,0l-6.5,9.8c-0.7,3.6-1.3,6.7-1.4,7.3h-5.5l3-15.4h-3.7l0.9-4.2h6.6l2.7-4
			c-0.6,0.8-1.5,1.2-2.5,1.2c-1.8,0-3.3-1.3-3.4-3.1c0-0.5,0.1-1,0.3-1.5l-9.6,14.5l0,0l-0.9,4.6l-0.6,3.8h3.6l-0.9,4h-8.4l0.8-4.4
			c-1.6,2.5-4,4.5-7.2,4.5c-3.9,0-6.8-3.1-7-7.8c-0.1-2.7,0.5-5.2,1.6-7.3L0,410.5z"/>
		<path d="M47.4,355.2l-4.1,21.5l0.1-0.2l-0.9,4.6l-0.6,3.8h3.6l-0.9,4h-8.4l0.8-4.4c-1.6,2.5-4,4.5-7.2,4.5c-3.9,0-6.8-3.1-7-7.8
			c-0.1-2.7,0.5-5.2,1.6-7.3c0,0,0,0,0,0l0.1-0.1c0,0,1.2-1.8,1.9-2.6c0.8-0.9,1.8-1.6,2.8-2.1l0.1-0.2l9.2-13.9L47.4,355.2z"/>
		<path d="M58.2,369.4c-0.2,0.9-1.3,7.2-2.3,12.5l0.1-0.2c-0.7,3.6-1.3,6.7-1.4,7.3h-5.5l3-15.5h-3.7l0.9-4.2h6.6L58.2,369.4z"/>
		<path d="M59.1,363.4c0,0.5-0.2,1.4-0.2,1.4l-0.1,0.2c0,0.1-0.1,0.1-0.1,0.2c-0.6,0.8-1.5,1.2-2.5,1.2c-1.8,0-3.3-1.3-3.4-3.1
			c0-0.5,0.1-1,0.3-1.5c0,0,0,0,0,0v0.1l0-0.1l0.2-0.3c0.1-0.1,0.1-0.2,0.2-0.3c0.6-0.6,1.4-0.9,2.2-0.9
			C57.5,360.5,59,361.8,59.1,363.4z"/>
		<path d="M78.4,373.6c0.1,1.7-1.1,2.8-2.6,2.8c-1.4,0-2.7-1.2-2.8-2.6c0-0.4,0-0.5,0.2-1.1c-0.2-0.1-0.4-0.2-0.7-0.3
			c-0.7-0.2-1.5-0.4-2.3-0.4c-1.7,0-3.4,0.5-3.4,1.8c0.1,1.4,2.3,2.2,4.7,3.2c2.7,1.1,5.7,2.7,5.8,5.8c0.2,4-3,6.4-8.6,6.4
			c-3.4,0-6.2-1-7.9-2.5c-0.9-0.8-1.5-1.8-1.5-2.8c-0.1-1.7,1-2.8,2.6-2.8c1.4,0,2.7,1.1,2.7,2.5c0,0.4-0.1,0.9-0.2,1.1
			c0.2,0.1,0.4,0.3,0.7,0.4c1,0.4,2.2,0.6,3.5,0.6c1.9,0,3.7-0.5,3.6-1.9c-0.1-1.5-2.3-2.2-4.6-3.2c-2.7-1-5.7-2.5-5.9-5.9
			c0-1.1,0.2-2.1,0.8-3c0.1-0.1,0.5-0.6,0.8-0.9c1-1.1,3-2.3,6.7-2.3c1.3,0,2.5,0.2,3.5,0.5l0-0.1c1.4,0.4,2.5,1,3.4,1.8
			C77.9,371.6,78.3,372.6,78.4,373.6z"/>
		<path d="M100.1,374.5c0.1,1.1-0.1,2.2-0.4,3.3l-0.6,3l0.1-0.2l-1.7,8.3h-5.3l2.5-11.8c0.2-0.6,0.2-1.1,0.2-1.7
			c-0.1-1.7-1.2-2.8-3-2.8c-2.2,0-3.7,1.4-4.3,4.6l-0.7,3.6l-1.5,8h-5.3l1.6-8.7l3.9-20.6h-3.9l0.9-4.2h0l8.7,0.1L88.1,373l0.2-0.4
			c1.8-2.9,4.4-4,6.1-4C98.2,368.6,100,371.6,100.1,374.5z"/>
		<path d="M121.6,380.4L121.6,380.4C121.6,380.4,121.6,380.4,121.6,380.4l-14.2,0.1l0,0.3c0.1,2.2,2.1,4.2,6,4.2
			c2.1,0,4.2-0.5,6.8-1.8l-0.8,4.6c-2.1,1-3.9,1.4-7,1.4c-5.1,0-9.9-3.1-10.2-8.6c-0.1-2.4,0.4-4.7,1.4-6.6c0,0,0,0,0,0
			c0.2-0.3,1.2-1.7,1.8-2.3c2-2,4.6-3.2,7.4-3.2c5.4,0,8.9,2.9,9.2,7.7C122.1,377.4,121.6,380.4,121.6,380.4z"/>
		<path d="M143.2,385h3.6l-0.8,3.8l0,0.1h-8.3l0.8-4.4c-1.6,2.5-4,4.5-7.2,4.5c-3.9,0-6.8-3.1-7-7.8c-0.1-2.5,0.4-4.9,1.4-6.9
			c0,0,0,0,0,0l0.1-0.1l0.1-0.2c0,0.1-0.1,0.1-0.1,0.2l0.1-0.1v0.1c0.5-1.1,1.2-2.1,2-2.9c0.8-0.9,1.8-1.6,2.8-2.1l0.1-0.2l9.2-13.9
			l8.8,0.1l-5,25.9L143.2,385z"/>
		<g>
			<g>
				<path class="st7" d="M147.4,363.2l1.6-8.2H140l-0.9,4.2h3.8l-0.6,3.3l-1.9,9.8c-1-2.1-3.1-4.3-5.9-4.3c-1.3,0-2.5,0.3-3.7,0.8
					c-2.2,1-4,2.9-5.1,5.3c0,0,0,0,0,0c-1,2-1.5,4.4-1.4,6.9c0.2,4.7,3.2,7.8,7,7.8c3.2,0,5.6-2,7.2-4.5l-0.8,4.4h8.4l0.9-4h-3.6
					l0.6-3.8L147.4,363.2z M133.6,384.7c-2.5,0-3.8-1.9-3.9-4.3c-0.2-4.1,2.4-7.8,5.9-7.8c2.7,0,4.1,1.6,4.3,4.3
					C140,381.2,137.1,384.7,133.6,384.7z"/>
			</g>
			<path class="st7" d="M122.2,376.1c-0.2-5-4-7.7-9.3-7.7c-4,0-7.4,2.2-9.2,5.6c0,0,0,0,0,0c-1,1.9-1.5,4.1-1.4,6.6
				c0.3,5.5,5.1,8.6,10.2,8.6c3.1,0,4.8-0.4,7-1.4l0.8-4.6c-2.5,1.3-4.7,1.8-6.8,1.8c-3.9,0-5.9-2-6-4.2l0-0.3h14.2c0,0,0-0.1,0-0.1
				c0,0,0,0,0,0C122.1,378.8,122.2,377.4,122.2,376.1z M117.1,377h-9.3c0.9-2.7,2.8-4.5,5.4-4.5c2.5,0,3.9,1.1,4,3.1
				C117.2,376,117.2,376.5,117.1,377z"/>
			<path class="st7" d="M99.9,377.9l-0.6,2.8l-1.7,8.3h-5.3l2.5-11.8c0.2-0.6,0.2-1.1,0.2-1.7c-0.1-1.7-1.2-2.8-3-2.8
				c-2.2,0-3.7,1.4-4.3,4.6l-0.7,3.6l-1.5,8h-5.3l1.6-8.7l3.9-20.6h-3.9l0.9-4.2h8.8l-3.2,17.1c1.3-2.1,3.6-4,6.1-4
				c3,0,5.6,2.1,5.8,6C100.3,375.5,100.2,376.6,99.9,377.9z"/>
			<path class="st7" d="M59.1,363.4c0,0.6-0.1,1.2-0.4,1.7c0,0.1-0.1,0.1-0.1,0.2c-0.6,0.8-1.5,1.2-2.5,1.2c-1.8,0-3.3-1.3-3.4-3.1
				c0-0.5,0.1-1,0.3-1.5c0,0,0,0,0,0c0.5-0.9,1.5-1.6,2.7-1.6C57.5,360.4,59.1,361.7,59.1,363.4z"/>
			<path class="st7" d="M73.3,372.7c-0.2-0.1-0.4-0.2-0.7-0.3c-0.7-0.2-1.5-0.4-2.3-0.4c-1.7,0-3.4,0.5-3.4,1.8
				c0.1,1.4,2.3,2.2,4.7,3.2c2.7,1.1,5.7,2.7,5.8,5.8c0.2,4-3,6.4-8.6,6.4c-3.4,0-6.2-1-7.9-2.5c-0.9-0.8-1.5-1.8-1.5-2.8
				c-0.1-1.7,1-2.8,2.6-2.8c1.4,0,2.7,1.1,2.7,2.5c0,0.4-0.1,0.9-0.2,1.1c0.2,0.1,0.4,0.3,0.7,0.4c1,0.4,2.2,0.6,3.5,0.6
				c1.9,0,3.7-0.5,3.6-1.9c-0.1-1.5-2.3-2.2-4.6-3.2c-2.7-1-5.7-2.5-5.9-5.9c0-1.1,0.2-2.1,0.8-3c1.2-1.9,3.6-3.3,7.5-3.3
				c1.3,0,2.5,0.2,3.6,0.5c1.4,0.4,2.5,1,3.4,1.8c0.8,0.8,1.3,1.7,1.4,2.7c0.1,1.7-1.1,2.8-2.6,2.8c-1.4,0-2.7-1.2-2.8-2.6
				C73,373.5,73.1,373.3,73.3,372.7z"/>
			<path class="st7" d="M58.3,369.3c0,0-1.3,6.8-2.3,12.4c-0.7,3.6-1.3,6.7-1.4,7.3h-5.5l3-15.5h-3.7l0.9-4.2H58.3z"/>
			<path class="st7" d="M43.4,376.5L43.4,376.5l2.5-13.2l1.6-8.2h-8.9l-0.9,4.2h3.8l-0.6,3.3l-1.9,9.8c-0.9-2.1-3.1-4.3-5.9-4.3
				c-1.3,0-2.5,0.3-3.7,0.8c-2.1,0.9-3.8,2.7-4.9,4.9c0,0,0,0,0,0c-1.1,2.1-1.7,4.7-1.6,7.3c0.2,4.7,3.2,7.8,7,7.8
				c3.2,0,5.6-2,7.2-4.5l-0.8,4.4h8.4l0.9-4h-3.6l0.6-3.8L43.4,376.5z M32.2,384.7c-2.5,0-3.8-1.9-3.9-4.3c-0.2-4.1,2.4-7.8,5.9-7.8
				c2.7,0,4.1,1.6,4.3,4.3C38.6,381.2,35.7,384.7,32.2,384.7z"/>
		</g>
	</g>
</g>
<g>
	<g>
		<path class="st3" d="M150,420.7h3.4v1.2h-1.1v5h-1.2v-5H150V420.7z"/>
		<path class="st3" d="M157.1,420.6c0.9,0,1.6,0.3,2.2,0.9c0.6,0.6,0.9,1.4,0.9,2.3c0,0.9-0.3,1.7-0.9,2.3c-0.6,0.6-1.4,0.9-2.2,0.9
			c-0.9,0-1.7-0.3-2.3-1c-0.6-0.6-0.9-1.4-0.9-2.3c0-0.6,0.1-1.1,0.4-1.6c0.3-0.5,0.7-0.9,1.2-1.2
			C156,420.7,156.5,420.6,157.1,420.6z M157.1,421.7c-0.6,0-1,0.2-1.4,0.6c-0.4,0.4-0.6,0.9-0.6,1.5c0,0.7,0.2,1.2,0.7,1.6
			c0.4,0.3,0.8,0.5,1.3,0.5c0.6,0,1-0.2,1.4-0.6c0.4-0.4,0.6-0.9,0.6-1.5c0-0.6-0.2-1.1-0.6-1.5
			C158.1,421.9,157.6,421.7,157.1,421.7z"/>
	</g>
	<g>
		<path d="M0,482.8h132.4l14.2-21.7l-0.1-0.1v0h-8.3l0.8-4.4c-1.6,2.5-4,4.5-7.2,4.5c-3.9,0-6.8-3.1-7.1-7.8
			c-0.1-2.5,0.4-4.9,1.4-6.9l-4,6.1c0,0,0,0,0,0c0,0,0,0.1,0,0.1h-14.3l0,0.3c0.1,2.3,2.1,4.2,6,4.2c2.1,0,4.2-0.5,6.8-1.8l-0.8,4.6
			c-2.1,1-3.9,1.4-7,1.4c-5.1,0-9.9-3.1-10.2-8.6c-0.1-2.4,0.4-4.7,1.4-6.6c0,0,0,0.1,0,0.1l-4.4,6.6l-1.7,8.3h-5.3l2.5-11.8
			c0.2-0.6,0.2-1.1,0.2-1.7c-0.1-1.7-1.2-2.8-3-2.8c-2.2,0-3.7,1.4-4.3,4.6l-0.7,3.6l-1.6,8.1h-5.3l1.6-8.7l3.9-20.7H82l0.9-4.2
			l-9,13.6c1.4,0.4,2.5,1,3.4,1.8c0.8,0.8,1.3,1.8,1.4,2.8c0.1,1.7-1.1,2.8-2.6,2.8c-1.4,0-2.7-1.2-2.8-2.6c0-0.4,0-0.6,0.2-1.1
			c-0.2-0.1-0.4-0.2-0.7-0.3c-0.7-0.2-1.5-0.4-2.3-0.4c-1.7,0-3.4,0.5-3.4,1.8c0.1,1.4,2.3,2.2,4.8,3.2c2.8,1.1,5.7,2.7,5.8,5.8
			c0.2,4-3,6.4-8.7,6.4c-3.4,0-6.3-1-7.9-2.5c-0.9-0.8-1.5-1.8-1.5-2.8c-0.1-1.7,1-2.8,2.6-2.8c1.4,0,2.7,1.1,2.7,2.5
			c0,0.4-0.1,0.9-0.2,1.1c0.2,0.1,0.4,0.3,0.7,0.4c1,0.4,2.2,0.6,3.5,0.6c1.9,0,3.7-0.6,3.7-1.9c-0.1-1.5-2.3-2.2-4.7-3.2
			c-2.8-1.1-5.8-2.5-5.9-5.9c0-1.1,0.2-2.1,0.8-3c0,0,0,0,0,0l-6.5,9.8c-0.7,3.6-1.3,6.8-1.4,7.3h-5.5l3-15.5h-3.7l0.9-4.2h6.6
			l2.7-4c-0.6,0.8-1.5,1.2-2.5,1.2c-1.8,0-3.3-1.3-3.4-3.1c0-0.5,0.1-1,0.3-1.5l-9.7,14.5l0,0l-0.9,4.6l-0.6,3.9h3.6l-0.9,4h-8.4
			l0.8-4.4c-1.6,2.5-4,4.5-7.2,4.5c-3.9,0-6.8-3.1-7.1-7.8c-0.1-2.7,0.5-5.2,1.6-7.4L0,482.8z"/>
		<path d="M47.6,427.2l-4.2,21.6l0.1-0.2l-0.9,4.6l-0.6,3.9h3.6l-0.9,4h-8.4l0.8-4.4c-1.6,2.5-4,4.5-7.2,4.5c-3.9,0-6.8-3.1-7.1-7.8
			c-0.1-2.7,0.5-5.2,1.6-7.4c0,0,0,0,0,0l0.1-0.1c0,0,1.2-1.8,1.9-2.6c0.9-0.9,1.8-1.6,2.9-2.1l0.1-0.2l9.2-13.9L47.6,427.2z"/>
		<path d="M58.4,441.5c-0.2,0.9-1.3,7.2-2.3,12.5l0.1-0.2c-0.7,3.6-1.3,6.8-1.4,7.3h-5.5l3-15.5h-3.8l0.9-4.2h6.6L58.4,441.5z"/>
		<path d="M59.3,435.5c0,0.5-0.2,1.4-0.2,1.4l-0.1,0.2c0,0.1-0.1,0.1-0.1,0.2c-0.6,0.8-1.5,1.2-2.5,1.2c-1.8,0-3.3-1.3-3.4-3.1
			c0-0.5,0.1-1,0.3-1.5c0,0,0,0,0,0v0.1l0-0.1l0.2-0.3c0.1-0.1,0.1-0.2,0.2-0.3c0.6-0.6,1.4-0.9,2.2-0.9
			C57.7,432.5,59.2,433.9,59.3,435.5z"/>
		<path d="M78.7,445.7c0.1,1.7-1.1,2.8-2.6,2.8c-1.4,0-2.7-1.2-2.8-2.6c0-0.4,0-0.6,0.2-1.1c-0.2-0.1-0.4-0.2-0.7-0.3
			c-0.7-0.2-1.5-0.4-2.3-0.4c-1.7,0-3.4,0.5-3.4,1.8c0.1,1.4,2.3,2.2,4.8,3.2c2.8,1.1,5.7,2.7,5.8,5.8c0.2,4-3,6.4-8.7,6.4
			c-3.4,0-6.3-1-7.9-2.5c-0.9-0.8-1.5-1.8-1.5-2.8c-0.1-1.7,1-2.9,2.6-2.9c1.4,0,2.7,1.1,2.7,2.5c0,0.4-0.1,0.9-0.2,1.1
			c0.2,0.1,0.4,0.3,0.7,0.4c1,0.4,2.2,0.6,3.5,0.6c1.9,0,3.7-0.6,3.7-1.9c-0.1-1.5-2.3-2.2-4.7-3.2c-2.8-1.1-5.8-2.5-5.9-5.9
			c0-1.1,0.2-2.1,0.8-3c0.1-0.1,0.5-0.6,0.8-0.9c1-1.1,3-2.3,6.7-2.3c1.3,0,2.5,0.2,3.6,0.5l0-0.1c1.4,0.4,2.5,1,3.4,1.8
			C78.1,443.7,78.6,444.7,78.7,445.7z"/>
		<path d="M100.5,446.6c0.1,1.1-0.1,2.2-0.4,3.3l-0.6,3l0.1-0.2l-1.7,8.3h-5.3l2.5-11.8c0.2-0.6,0.2-1.1,0.2-1.7
			c-0.1-1.7-1.2-2.8-3-2.8c-2.2,0-3.7,1.4-4.3,4.6l-0.7,3.6l-1.6,8.1h-5.3l1.6-8.7l3.9-20.7H82l0.9-4.2h0l8.8,0.1l-3.3,17.5l0.2-0.4
			c1.8-3,4.4-4,6.1-4C98.5,440.7,100.3,443.7,100.5,446.6z"/>
		<path d="M122,452.5L122,452.5C122.1,452.5,122,452.6,122,452.5l-14.3,0.1l0,0.3c0.1,2.3,2.1,4.2,6,4.2c2.1,0,4.2-0.5,6.8-1.8
			l-0.8,4.6c-2.1,1-3.9,1.4-7,1.4c-5.1,0-9.9-3.1-10.2-8.6c-0.1-2.4,0.4-4.7,1.4-6.6c0,0,0,0,0,0c0.2-0.3,1.2-1.7,1.8-2.3
			c2-2.1,4.6-3.2,7.4-3.2c5.5,0,9,2.9,9.2,7.7C122.6,449.5,122,452.5,122,452.5z"/>
		<path d="M143.7,457.1h3.6l-0.8,3.8l0,0.1h-8.3l0.8-4.4c-1.6,2.5-4,4.5-7.2,4.5c-3.9,0-6.8-3.1-7.1-7.8c-0.1-2.5,0.4-4.9,1.4-6.9
			c0,0,0,0,0,0l0.1-0.1l0.1-0.2c0,0.1-0.1,0.1-0.1,0.2l0.1-0.1v0.1c0.5-1.1,1.2-2.1,2-3c0.9-0.9,1.8-1.6,2.9-2.1l0.1-0.2l9.2-13.9
			l8.8,0.1l-5,26L143.7,457.1z"/>
		<g>
			<g>
				<path class="st7" d="M147.9,435.3l1.6-8.2h-8.9l-0.9,4.2h3.8l-0.6,3.3l-1.9,9.9c-1-2.1-3.2-4.3-5.9-4.3c-1.3,0-2.5,0.3-3.7,0.8
					c-2.2,1-4,2.9-5.2,5.3c0,0,0,0,0,0c-1,2-1.5,4.4-1.4,6.9c0.2,4.7,3.2,7.8,7.1,7.8c3.2,0,5.6-2,7.2-4.5l-0.8,4.4h8.4l0.9-4h-3.6
					l0.6-3.9L147.9,435.3z M134.1,456.9c-2.5,0-3.8-1.9-4-4.3c-0.2-4.1,2.4-7.9,5.9-7.9c2.7,0,4.2,1.7,4.3,4.3
					C140.5,453.3,137.5,456.9,134.1,456.9z"/>
			</g>
			<path class="st7" d="M122.6,448.2c-0.2-5-4-7.8-9.3-7.8c-4,0-7.4,2.2-9.2,5.6c0,0,0,0,0,0c-1,1.9-1.6,4.1-1.4,6.6
				c0.3,5.6,5.1,8.6,10.2,8.6c3.1,0,4.9-0.4,7-1.4l0.8-4.6c-2.6,1.3-4.7,1.8-6.8,1.8c-3.9,0-5.9-2-6-4.2l0-0.3H122c0,0,0-0.1,0-0.1
				c0,0,0,0,0,0C122.5,450.9,122.6,449.5,122.6,448.2z M117.5,449.1h-9.3c0.9-2.8,2.8-4.5,5.4-4.5c2.5,0,3.9,1.1,4,3.1
				C117.6,448.1,117.6,448.6,117.5,449.1z"/>
			<path class="st7" d="M100.2,450l-0.6,2.8l-1.7,8.3h-5.3l2.5-11.8c0.2-0.6,0.2-1.1,0.2-1.7c-0.1-1.7-1.2-2.8-3-2.8
				c-2.2,0-3.7,1.4-4.3,4.6l-0.7,3.6l-1.6,8.1h-5.3l1.6-8.7l3.9-20.7H82l0.9-4.2h8.9l-3.3,17.2c1.3-2.1,3.7-4,6.2-4
				c3,0,5.6,2.1,5.8,6C100.6,447.6,100.5,448.8,100.2,450z"/>
			<path class="st7" d="M59.3,435.5c0,0.6-0.1,1.2-0.4,1.7c0,0.1-0.1,0.1-0.1,0.2c-0.6,0.8-1.5,1.2-2.5,1.2c-1.8,0-3.3-1.3-3.4-3.1
				c0-0.5,0.1-1,0.3-1.5c0,0,0,0,0,0c0.5-1,1.5-1.6,2.7-1.6C57.7,432.4,59.3,433.8,59.3,435.5z"/>
			<path class="st7" d="M73.5,444.8c-0.2-0.1-0.4-0.2-0.7-0.3c-0.7-0.2-1.5-0.4-2.3-0.4c-1.7,0-3.4,0.5-3.4,1.8
				c0.1,1.4,2.3,2.2,4.8,3.2c2.8,1.1,5.7,2.7,5.8,5.8c0.2,4-3,6.4-8.7,6.4c-3.4,0-6.3-1-7.9-2.5c-0.9-0.8-1.5-1.8-1.5-2.8
				c-0.1-1.7,1-2.9,2.6-2.9c1.4,0,2.7,1.1,2.7,2.5c0,0.4-0.1,0.9-0.2,1.1c0.2,0.1,0.4,0.3,0.7,0.4c1,0.4,2.2,0.6,3.5,0.6
				c1.9,0,3.7-0.6,3.7-1.9c-0.1-1.5-2.3-2.2-4.7-3.2c-2.8-1.1-5.8-2.5-5.9-5.9c0-1.1,0.2-2.1,0.8-3c1.2-1.9,3.6-3.3,7.5-3.3
				c1.3,0,2.5,0.2,3.6,0.5c1.4,0.4,2.5,1,3.4,1.8c0.8,0.8,1.3,1.8,1.4,2.8c0.1,1.7-1.1,2.8-2.6,2.8c-1.4,0-2.7-1.2-2.8-2.6
				C73.3,445.6,73.3,445.4,73.5,444.8z"/>
			<path class="st7" d="M58.5,441.4c0,0-1.3,6.8-2.3,12.4c-0.7,3.6-1.3,6.8-1.4,7.3h-5.5l3-15.5h-3.8l0.9-4.2H58.5z"/>
			<path class="st7" d="M43.6,448.6L43.6,448.6l2.6-13.3l1.6-8.2h-8.9l-0.9,4.2h3.8l-0.6,3.3l-1.9,9.9c-1-2.1-3.1-4.3-5.9-4.3
				c-1.3,0-2.5,0.3-3.7,0.8c-2.1,1-3.8,2.7-4.9,4.9c0,0,0,0,0,0c-1.1,2.1-1.7,4.7-1.6,7.4c0.2,4.7,3.2,7.8,7.1,7.8
				c3.2,0,5.6-2,7.2-4.5l-0.8,4.4h8.4l0.9-4h-3.6l0.6-3.9L43.6,448.6z M32.3,456.9c-2.5,0-3.8-1.9-4-4.3c-0.2-4.1,2.4-7.9,5.9-7.9
				c2.7,0,4.2,1.7,4.3,4.3C38.7,453.3,35.8,456.9,32.3,456.9z"/>
		</g>
	</g>
</g>
<g>
	<g>
		<path class="st3" d="M153.4,492.8h1.2l1.4,4.3l1.4-4.3h1.2l1,6.2h-1.2l-0.7-4l-1.4,4h-0.8l-1.4-4l-0.7,4h-1.2L153.4,492.8z"/>
		<path class="st3" d="M160.1,492.8h3.4v1.2h-1.2v5H161v-5h-1L160.1,492.8L160.1,492.8z"/>
		<path class="st3" d="M164.5,492.8h1.2v5.1h1.7v1.2h-2.9L164.5,492.8L164.5,492.8z"/>
	</g>
	<g>
		<path d="M0,555h132.9l14.2-21.8l-0.1-0.1v0h-8.4l0.9-4.4c-1.6,2.5-4,4.5-7.2,4.5c-3.9,0-6.9-3.1-7.1-7.8c-0.1-2.5,0.4-4.9,1.4-6.9
			l-4.1,6.1c0,0,0,0,0,0c0,0,0,0.1,0,0.1h-14.3l0,0.3c0.1,2.3,2.1,4.2,6.1,4.2c2.1,0,4.3-0.5,6.8-1.8l-0.8,4.6c-2.1,1-3.9,1.4-7,1.4
			c-5.1,0-10-3.1-10.2-8.7c-0.1-2.5,0.4-4.7,1.4-6.6c0,0,0,0.1,0,0.1l-4.4,6.7l-1.8,8.4H93l2.5-11.9c0.2-0.6,0.2-1.1,0.2-1.7
			c-0.1-1.8-1.2-2.8-3-2.8c-2.2,0-3.7,1.4-4.3,4.6l-0.7,3.6l-1.6,8.1h-5.3l1.6-8.7l3.9-20.8h-3.9l0.9-4.2l-9.1,13.7
			c1.4,0.4,2.6,1,3.4,1.8c0.8,0.8,1.3,1.8,1.4,2.8c0.1,1.7-1.1,2.8-2.6,2.8c-1.4,0-2.7-1.2-2.8-2.6c0-0.4,0-0.6,0.2-1.1
			c-0.2-0.1-0.4-0.2-0.7-0.3c-0.7-0.2-1.5-0.4-2.3-0.4c-1.7,0-3.5,0.5-3.4,1.8c0.1,1.4,2.3,2.2,4.8,3.2c2.8,1.2,5.7,2.7,5.9,5.9
			c0.2,4.1-3,6.4-8.7,6.4c-3.4,0-6.3-1-7.9-2.5c-0.9-0.8-1.5-1.8-1.5-2.9c-0.1-1.8,1.1-2.9,2.6-2.9c1.4,0,2.7,1.2,2.7,2.5
			c0,0.4-0.1,0.9-0.2,1.1c0.2,0.1,0.4,0.3,0.7,0.4c1,0.4,2.2,0.6,3.5,0.6c1.9,0,3.7-0.6,3.7-1.9c-0.1-1.5-2.3-2.2-4.7-3.2
			c-2.8-1.1-5.8-2.5-6-5.9c0-1.1,0.2-2.1,0.8-3c0,0,0,0,0,0l-6.6,9.9c-0.7,3.6-1.3,6.8-1.4,7.4h-5.6l3-15.6h-3.8l0.9-4.2h6.6
			l2.7-4.1c-0.6,0.8-1.5,1.3-2.6,1.3c-1.8,0-3.3-1.3-3.4-3.1c0-0.5,0.1-1.1,0.3-1.5l-9.7,14.6l0,0l-0.9,4.6l-0.6,3.9h3.6l-0.9,4
			h-8.4l0.9-4.4c-1.6,2.5-4,4.5-7.2,4.5c-3.9,0-6.9-3.1-7.1-7.8c-0.1-2.7,0.5-5.2,1.6-7.4L0,555z"/>
		<path d="M47.8,499.2l-4.2,21.6l0.1-0.2l-0.9,4.6l-0.6,3.9h3.6l-0.9,4h-8.4l0.9-4.4c-1.6,2.5-4,4.5-7.2,4.5c-3.9,0-6.9-3.1-7.1-7.8
			c-0.1-2.7,0.5-5.2,1.6-7.4c0,0,0,0,0,0l0.1-0.1c0,0,1.2-1.8,1.9-2.6c0.9-0.9,1.8-1.6,2.9-2.1l0.1-0.2l9.3-14L47.8,499.2z"/>
		<path d="M58.7,513.5c-0.2,0.9-1.3,7.3-2.3,12.5l0.1-0.2c-0.7,3.6-1.3,6.8-1.4,7.4h-5.6l3-15.6h-3.8l0.9-4.2h6.6L58.7,513.5z"/>
		<path d="M59.5,507.6c0,0.5-0.2,1.5-0.2,1.5l-0.1,0.2c0,0.1-0.1,0.1-0.1,0.2c-0.6,0.8-1.5,1.3-2.6,1.3c-1.8,0-3.3-1.3-3.4-3.1
			c0-0.5,0.1-1.1,0.3-1.5c0,0,0,0,0,0v0.1l0-0.1l0.3-0.3c0.1-0.1,0.1-0.2,0.2-0.3c0.6-0.6,1.4-0.9,2.2-0.9
			C57.9,504.5,59.4,505.9,59.5,507.6z"/>
		<path d="M79,517.8c0.1,1.7-1.1,2.8-2.6,2.8c-1.4,0-2.7-1.2-2.8-2.6c0-0.4,0-0.6,0.2-1.1c-0.2-0.1-0.4-0.2-0.7-0.3
			c-0.7-0.2-1.5-0.4-2.3-0.4c-1.7,0-3.5,0.5-3.4,1.8c0.1,1.4,2.3,2.2,4.8,3.2c2.8,1.2,5.7,2.7,5.9,5.9c0.2,4.1-3,6.4-8.7,6.4
			c-3.4,0-6.3-1-7.9-2.5c-0.9-0.8-1.5-1.8-1.5-2.9c-0.1-1.8,1.1-2.9,2.6-2.9c1.4,0,2.7,1.2,2.7,2.5c0,0.4-0.1,0.9-0.2,1.1
			c0.2,0.1,0.4,0.3,0.7,0.4c1,0.4,2.2,0.6,3.5,0.6c1.9,0,3.7-0.6,3.7-1.9c-0.1-1.5-2.3-2.2-4.7-3.2c-2.8-1.1-5.8-2.5-6-5.9
			c0-1.1,0.2-2.1,0.8-3c0.1-0.1,0.5-0.6,0.8-0.9c1-1.1,3-2.3,6.8-2.3c1.3,0,2.5,0.2,3.6,0.5l0-0.1c1.4,0.4,2.6,1,3.4,1.8
			C78.5,515.8,78.9,516.8,79,517.8z"/>
		<path d="M100.9,518.7c0.1,1.1-0.1,2.2-0.4,3.3l-0.6,3l0.1-0.2l-1.8,8.4h-5.3l2.5-11.9c0.2-0.6,0.2-1.2,0.2-1.7
			c-0.1-1.8-1.2-2.8-3-2.8c-2.2,0-3.7,1.4-4.3,4.6l-0.7,3.6l-1.6,8.1h-5.3l1.7-8.7l3.9-20.8h-3.9l0.9-4.2h0l8.8,0.1l-3.3,17.6
			l0.2-0.4c1.9-3,4.5-4,6.1-4C98.9,512.8,100.8,515.8,100.9,518.7z"/>
		<path d="M122.5,524.6L122.5,524.6C122.6,524.6,122.5,524.7,122.5,524.6l-14.3,0.1l0,0.3c0.1,2.3,2.1,4.2,6.1,4.2
			c2.1,0,4.3-0.5,6.8-1.8l-0.8,4.6c-2.1,1-3.9,1.4-7,1.4c-5.1,0-10-3.1-10.2-8.7c-0.1-2.5,0.4-4.7,1.4-6.6c0,0,0,0,0,0
			c0.2-0.4,1.2-1.7,1.8-2.3c2-2.1,4.6-3.2,7.5-3.2c5.5,0,9,3,9.2,7.7C123.1,521.6,122.5,524.6,122.5,524.6z"/>
		<path d="M144.3,529.3h3.6l-0.8,3.8l0,0.1h-8.4l0.9-4.4c-1.6,2.5-4,4.5-7.2,4.5c-3.9,0-6.9-3.1-7.1-7.8c-0.1-2.5,0.4-4.9,1.4-6.9
			c0,0,0,0,0,0l0.1-0.1l0.1-0.2c0,0.1-0.1,0.1-0.1,0.2l0.1-0.1v0.1c0.5-1.1,1.2-2.1,2-3c0.9-0.9,1.8-1.6,2.9-2.1l0.1-0.2l9.3-14
			l8.9,0.1l-5,26.1L144.3,529.3z"/>
		<g>
			<g>
				<path class="st7" d="M148.5,507.4l1.6-8.2h-9l-0.9,4.2h3.9l-0.6,3.4l-1.9,9.9c-1-2.1-3.2-4.3-6-4.3c-1.3,0-2.6,0.3-3.7,0.8
					c-2.2,1-4,2.9-5.2,5.3c0,0,0,0,0,0c-1,2-1.5,4.4-1.4,6.9c0.2,4.7,3.2,7.8,7.1,7.8c3.2,0,5.6-2,7.2-4.5l-0.9,4.4h8.4l0.9-4h-3.6
					l0.6-3.9L148.5,507.4z M134.6,529c-2.5,0-3.9-1.9-4-4.3c-0.2-4.1,2.4-7.9,5.9-7.9c2.8,0,4.2,1.7,4.3,4.3
					C141.1,525.4,138.1,529,134.6,529z"/>
			</g>
			<path class="st7" d="M123.1,520.3c-0.2-5-4-7.8-9.3-7.8c-4,0-7.4,2.2-9.3,5.6c0,0,0,0,0,0c-1,1.9-1.6,4.2-1.4,6.6
				c0.3,5.6,5.1,8.7,10.2,8.7c3.1,0,4.9-0.4,7-1.4l0.8-4.6c-2.6,1.3-4.7,1.8-6.8,1.8c-4,0-6-2-6.1-4.2l0-0.3h14.3c0,0,0-0.1,0-0.1
				c0,0,0,0,0,0C123,523,123.2,521.6,123.1,520.3z M117.9,521.2h-9.3c0.9-2.8,2.8-4.5,5.5-4.5c2.5,0,3.9,1.2,4,3.1
				C118.1,520.2,118.1,520.7,117.9,521.2z"/>
			<path class="st7" d="M100.6,522.1l-0.6,2.8l-1.8,8.4h-5.3l2.5-11.9c0.2-0.6,0.2-1.2,0.2-1.7c-0.1-1.8-1.2-2.8-3-2.8
				c-2.2,0-3.7,1.4-4.3,4.6l-0.7,3.6l-1.6,8.1h-5.3l1.7-8.7l3.9-20.8h-3.9l0.9-4.2h8.9l-3.3,17.2c1.3-2.1,3.7-4.1,6.2-4.1
				c3,0,5.7,2.1,5.9,6C101,519.7,100.9,520.8,100.6,522.1z"/>
			<path class="st7" d="M59.6,507.5c0,0.6-0.1,1.2-0.4,1.7c0,0.1-0.1,0.1-0.1,0.2c-0.6,0.8-1.5,1.3-2.6,1.3c-1.8,0-3.3-1.3-3.4-3.1
				c0-0.5,0.1-1.1,0.3-1.5c0,0,0,0,0,0c0.5-1,1.5-1.6,2.7-1.6C58,504.5,59.5,505.8,59.6,507.5z"/>
			<path class="st7" d="M73.8,516.9c-0.2-0.1-0.4-0.2-0.7-0.3c-0.7-0.2-1.5-0.4-2.3-0.4c-1.7,0-3.5,0.5-3.4,1.8
				c0.1,1.4,2.3,2.2,4.8,3.2c2.8,1.2,5.7,2.7,5.9,5.9c0.2,4.1-3,6.4-8.7,6.4c-3.4,0-6.3-1-7.9-2.5c-0.9-0.8-1.5-1.8-1.5-2.9
				c-0.1-1.8,1.1-2.9,2.6-2.9c1.4,0,2.7,1.2,2.7,2.5c0,0.4-0.1,0.9-0.2,1.1c0.2,0.1,0.4,0.3,0.7,0.4c1,0.4,2.2,0.6,3.5,0.6
				c1.9,0,3.7-0.6,3.7-1.9c-0.1-1.5-2.3-2.2-4.7-3.2c-2.8-1.1-5.8-2.5-6-5.9c0-1.1,0.2-2.1,0.8-3c1.2-1.9,3.7-3.3,7.6-3.3
				c1.3,0,2.5,0.2,3.6,0.5c1.4,0.4,2.6,1,3.4,1.8c0.8,0.8,1.3,1.8,1.4,2.8c0.1,1.7-1.1,2.8-2.6,2.8c-1.4,0-2.7-1.2-2.8-2.6
				C73.6,517.6,73.6,517.5,73.8,516.9z"/>
			<path class="st7" d="M58.8,513.5c0,0-1.3,6.8-2.3,12.5c-0.7,3.6-1.3,6.8-1.4,7.4h-5.6l3-15.6h-3.8l0.9-4.2H58.8z"/>
			<path class="st7" d="M43.7,520.7L43.7,520.7l2.6-13.3l1.6-8.2h-9l-0.9,4.2h3.9l-0.6,3.4l-1.9,9.9c-1-2.1-3.2-4.3-6-4.3
				c-1.3,0-2.5,0.3-3.7,0.8c-2.1,1-3.8,2.7-5,4.9c0,0,0,0,0,0c-1.1,2.1-1.7,4.7-1.6,7.4c0.2,4.7,3.2,7.8,7.1,7.8
				c3.2,0,5.6-2,7.2-4.5l-0.9,4.4H45l0.9-4h-3.6l0.6-3.9L43.7,520.7z M32.5,529c-2.5,0-3.9-1.9-4-4.3c-0.2-4.1,2.4-7.9,5.9-7.9
				c2.8,0,4.2,1.7,4.3,4.3C38.9,525.4,35.9,529,32.5,529z"/>
		</g>
	</g>
</g>
<g>
	<path d="M0,758.1l130.9,0.1l14.2-21.9l-0.1-0.1l0,0l-8.2,0l0.8-4.4c-1.6,2.4-3.9,4.5-7.1,4.5c-3.8,0-6.8-3.1-7-7.7
		c-0.1-2.5,0.4-4.8,1.3-6.8l-4,6c0,0,0,0,0,0c0,0,0,0.1,0,0.1l-14.1,0l0,0.3c0.1,2.2,2.1,4.2,6,4.2c2.1,0,4.2-0.5,6.7-1.8l-0.8,4.5
		c-2.1,1-3.9,1.4-6.9,1.4c-5,0-9.8-3-10.1-8.5c-0.1-2.4,0.4-4.7,1.4-6.5c0,0,0,0.1,0,0.1l-4.3,6.6l-1.7,8.2l-5.3,0l2.4-11.7
		c0.2-0.6,0.2-1.1,0.2-1.6c-0.1-1.7-1.2-2.8-3-2.8c-2.2,0-3.7,1.4-4.3,4.6l-0.7,3.6l-1.5,8l-5.3,0l1.6-8.6l3.8-20.5l-3.9,0l0.9-4.2
		l-8.9,13.5c1.4,0.4,2.5,1,3.4,1.8c0.8,0.8,1.3,1.7,1.4,2.7c0.1,1.7-1.1,2.8-2.5,2.8c-1.4,0-2.7-1.2-2.8-2.5c0-0.4,0-0.5,0.2-1.1
		c-0.2-0.1-0.4-0.2-0.7-0.3c-0.7-0.2-1.5-0.4-2.3-0.4c-1.7,0-3.4,0.5-3.3,1.8c0.1,1.4,2.3,2.2,4.7,3.2c2.7,1.1,5.6,2.6,5.8,5.8
		c0.2,4-2.9,6.3-8.6,6.3c-3.4,0-6.2-1-7.8-2.5c-0.9-0.8-1.4-1.8-1.5-2.8c-0.1-1.7,1-2.8,2.5-2.8c1.4,0,2.6,1.1,2.7,2.5
		c0,0.4-0.1,0.9-0.2,1.1c0.2,0.1,0.4,0.3,0.7,0.4c1,0.4,2.2,0.6,3.5,0.6c1.9,0,3.7-0.6,3.6-1.9c-0.1-1.5-2.3-2.2-4.6-3.1
		c-2.7-1-5.7-2.4-5.9-5.8c0-1,0.2-2.1,0.7-3c0,0,0,0,0,0l-6.4,9.8c-0.7,3.6-1.2,6.7-1.3,7.3l-5.5,0l2.9-15.4l-3.7,0L49,717l6.5,0
		l2.6-4c-0.5,0.8-1.5,1.2-2.5,1.2c-1.7,0-3.3-1.3-3.3-3c0-0.5,0.1-1,0.3-1.5l-9.5,14.4l0,0l-0.9,4.6l-0.6,3.8l3.6,0l-0.9,3.9l-8.3,0
		l0.8-4.4c-1.6,2.4-3.9,4.5-7.1,4.5c-3.9,0-6.8-3.1-7-7.7c-0.1-2.6,0.4-5.2,1.6-7.3L0,758.1z"/>
	<path d="M47,703l-4.1,21.4l0.1-0.2l-0.9,4.6l-0.6,3.8l3.6,0l-0.9,3.9l-8.3,0l0.8-4.4c-1.6,2.4-3.9,4.5-7.1,4.5
		c-3.9,0-6.8-3.1-7-7.7c-0.1-2.6,0.4-5.2,1.6-7.3c0,0,0,0,0,0l0.1-0.1c0,0,1.2-1.8,1.9-2.5c0.8-0.9,1.8-1.6,2.8-2.1l0.1-0.2
		l9.1-13.8L47,703z"/>
	<path d="M57.8,717.1c-0.2,0.9-1.3,7.2-2.3,12.4l0.1-0.2c-0.7,3.6-1.2,6.7-1.3,7.3l-5.5,0l2.9-15.4l-3.7,0L49,717l6.5,0L57.8,717.1z
		"/>
	<path d="M58.6,711.1c0,0.5-0.2,1.4-0.2,1.4l-0.1,0.2c0,0.1-0.1,0.1-0.1,0.2c-0.5,0.8-1.5,1.2-2.5,1.2c-1.7,0-3.3-1.3-3.3-3
		c0-0.5,0.1-1,0.3-1.5c0,0,0,0,0,0l0,0.1l0-0.1l0.2-0.3c0.1-0.1,0.1-0.2,0.2-0.3c0.6-0.6,1.4-0.9,2.2-0.9
		C57,708.2,58.5,709.5,58.6,711.1z"/>
	<path d="M77.8,721.2c0.1,1.7-1.1,2.8-2.5,2.8c-1.4,0-2.7-1.2-2.8-2.5c0-0.4,0-0.5,0.2-1.1c-0.2-0.1-0.4-0.2-0.7-0.3
		c-0.7-0.2-1.5-0.4-2.3-0.4c-1.7,0-3.4,0.5-3.3,1.8c0.1,1.4,2.3,2.2,4.7,3.2c2.7,1.1,5.6,2.6,5.8,5.8c0.2,4-2.9,6.3-8.6,6.3
		c-3.4,0-6.2-1-7.8-2.5c-0.9-0.8-1.4-1.8-1.5-2.8c-0.1-1.7,1-2.8,2.5-2.8c1.4,0,2.6,1.1,2.7,2.5c0,0.4-0.1,0.9-0.2,1.1
		c0.2,0.1,0.4,0.3,0.7,0.4c1,0.4,2.2,0.6,3.5,0.6c1.9,0,3.7-0.6,3.6-1.9c-0.1-1.5-2.3-2.2-4.6-3.1c-2.7-1-5.7-2.4-5.9-5.8
		c0-1,0.2-2.1,0.7-3c0.1-0.1,0.5-0.6,0.8-0.9c1-1.1,3-2.3,6.7-2.3c1.2,0,2.4,0.2,3.5,0.5l0-0.1c1.4,0.4,2.5,1,3.4,1.8
		C77.3,719.2,77.8,720.2,77.8,721.2z"/>
	<path d="M99.5,722.1c0.1,1.1-0.1,2.2-0.4,3.3l-0.6,3l0.1-0.2l-1.7,8.2l-5.3,0l2.4-11.7c0.2-0.6,0.2-1.1,0.2-1.6
		c-0.1-1.7-1.2-2.8-3-2.8c-2.2,0-3.7,1.4-4.3,4.6l-0.7,3.6l-1.5,8l-5.3,0l1.6-8.6l3.8-20.5l-3.9,0l0.9-4.2h0l8.7,0.1l-3.2,17.4
		l0.2-0.4c1.8-2.9,4.4-4,6-4C97.5,716.2,99.3,719.2,99.5,722.1z"/>
	<path d="M120.8,727.9L120.8,727.9C120.8,727.9,120.8,727.9,120.8,727.9l-14.1,0.1l0,0.3c0.1,2.2,2.1,4.2,6,4.2
		c2.1,0,4.2-0.5,6.7-1.8l-0.8,4.5c-2.1,1-3.9,1.4-6.9,1.4c-5,0-9.8-3-10.1-8.5c-0.1-2.4,0.4-4.7,1.4-6.5c0,0,0,0,0,0
		c0.2-0.3,1.1-1.6,1.8-2.3c1.9-2,4.5-3.2,7.3-3.2c5.4,0,8.9,2.9,9.1,7.6C121.3,724.9,120.8,727.9,120.8,727.9z"/>
	<path d="M142.3,732.4l3.6,0l-0.8,3.8l0,0.1l-8.2,0l0.8-4.4c-1.6,2.4-3.9,4.5-7.1,4.5c-3.8,0-6.8-3.1-7-7.7
		c-0.1-2.5,0.4-4.8,1.3-6.8c0,0,0,0,0,0l0.1-0.1l0.1-0.2c0,0.1-0.1,0.1-0.1,0.2l0.1-0.1l0,0.1c0.5-1.1,1.2-2.1,2-2.9
		c0.8-0.9,1.8-1.6,2.8-2.1l0.1-0.2l9.1-13.8l8.7,0.1l-4.9,25.7L142.3,732.4z"/>
	<g>
		<g>
			<path class="st7" d="M146.4,710.8l1.5-8.1l-8.8,0l-0.9,4.2l3.8,0l-0.6,3.3l-1.9,9.8c-1-2.1-3.1-4.3-5.9-4.3
				c-1.3,0-2.5,0.3-3.6,0.8c-2.2,1-4,2.9-5.1,5.3c0,0,0,0,0,0c-1,2-1.5,4.4-1.3,6.8c0.2,4.6,3.2,7.7,7,7.7c3.2,0,5.6-2,7.1-4.5
				l-0.8,4.4l8.3,0l0.9-3.9l-3.6,0l0.6-3.8L146.4,710.8z M132.7,732.1c-2.5,0-3.8-1.9-3.9-4.2c-0.2-4,2.4-7.8,5.8-7.8
				c2.7,0,4.1,1.6,4.2,4.2C139.1,728.6,136.2,732.1,132.7,732.1z"/>
		</g>
		<path class="st7" d="M121.3,723.6c-0.2-5-4-7.7-9.2-7.7c-3.9,0-7.3,2.2-9.1,5.6c0,0,0,0,0,0c-1,1.9-1.5,4.1-1.4,6.5
			c0.3,5.5,5.1,8.5,10.1,8.5c3.1,0,4.8-0.4,6.9-1.4l0.8-4.5c-2.5,1.3-4.7,1.8-6.7,1.8c-3.9,0-5.9-1.9-6-4.2l0-0.3l14.1,0
			c0,0,0-0.1,0-0.1c0,0,0,0,0,0C121.2,726.3,121.4,724.9,121.3,723.6z M116.3,724.5l-9.2,0c0.9-2.7,2.8-4.5,5.4-4.5
			c2.5,0,3.9,1.1,4,3.1C116.4,723.5,116.4,724,116.3,724.5z"/>
		<path class="st7" d="M99.2,725.4l-0.6,2.8l-1.7,8.2l-5.3,0l2.4-11.7c0.2-0.6,0.2-1.1,0.2-1.6c-0.1-1.7-1.2-2.8-3-2.8
			c-2.2,0-3.7,1.4-4.3,4.6l-0.7,3.6l-1.5,8l-5.3,0l1.6-8.6l3.8-20.5l-3.9,0l0.9-4.2l8.8,0l-3.2,17c1.3-2.1,3.6-4,6.1-4
			c3,0,5.6,2,5.8,5.9C99.6,723.1,99.5,724.2,99.2,725.4z"/>
		<path class="st7" d="M58.7,711.1c0,0.6-0.1,1.2-0.4,1.7c0,0.1-0.1,0.1-0.1,0.2c-0.5,0.8-1.5,1.2-2.5,1.2c-1.7,0-3.3-1.3-3.3-3
			c0-0.5,0.1-1,0.3-1.5c0,0,0,0,0,0c0.5-0.9,1.5-1.6,2.7-1.6C57.1,708.1,58.6,709.4,58.7,711.1z"/>
		<path class="st7" d="M72.8,720.3c-0.2-0.1-0.4-0.2-0.7-0.3c-0.7-0.2-1.5-0.4-2.3-0.4c-1.7,0-3.4,0.5-3.3,1.8
			c0.1,1.4,2.3,2.2,4.7,3.2c2.7,1.1,5.6,2.6,5.8,5.8c0.2,4-2.9,6.3-8.6,6.3c-3.4,0-6.2-1-7.8-2.5c-0.9-0.8-1.4-1.8-1.5-2.8
			c-0.1-1.7,1-2.8,2.5-2.8c1.4,0,2.6,1.1,2.7,2.5c0,0.4-0.1,0.9-0.2,1.1c0.2,0.1,0.4,0.3,0.7,0.4c1,0.4,2.2,0.6,3.5,0.6
			c1.9,0,3.7-0.6,3.6-1.9c-0.1-1.5-2.3-2.2-4.6-3.1c-2.7-1-5.7-2.4-5.9-5.8c0-1,0.2-2.1,0.7-3c1.1-1.9,3.6-3.3,7.4-3.3
			c1.3,0,2.5,0.2,3.6,0.5c1.4,0.4,2.5,1,3.4,1.8c0.8,0.8,1.3,1.7,1.4,2.7c0.1,1.7-1.1,2.8-2.5,2.8c-1.4,0-2.7-1.2-2.8-2.5
			C72.5,721.1,72.6,720.9,72.8,720.3z"/>
		<path class="st7" d="M57.9,717c0,0-1.2,6.7-2.3,12.3c-0.7,3.6-1.2,6.7-1.3,7.3l-5.5,0l2.9-15.4l-3.7,0L49,717L57.9,717z"/>
		<path class="st7" d="M43.1,724.1L43.1,724.1l2.5-13.1l1.6-8.1l-8.8,0l-0.9,4.2l3.8,0l-0.6,3.3l-1.9,9.8c-0.9-2.1-3.1-4.3-5.9-4.3
			c-1.3,0-2.5,0.3-3.6,0.8c-2.1,0.9-3.7,2.7-4.9,4.8c0,0,0,0,0,0c-1.1,2.1-1.7,4.6-1.6,7.3c0.2,4.6,3.2,7.7,7,7.7
			c3.2,0,5.6-2,7.1-4.5l-0.8,4.4l8.3,0l0.9-3.9l-3.6,0l0.6-3.8L43.1,724.1z M32,732.3c-2.5,0-3.8-1.9-3.9-4.2
			c-0.2-4,2.4-7.8,5.8-7.8c2.7,0,4.1,1.6,4.2,4.2C38.3,728.8,35.4,732.3,32,732.3z"/>
	</g>
</g>
<g>
	<path d="M148,695.9h1.2l1.5,4.3l1.6-4.3h1.2l-2.2,6.1h-1.2L148,695.9z"/>
	<path d="M156.3,695.9h1.2l2.3,6.1h-1.2l-0.5-1.2h-2.6l-0.5,1.2h-1.2L156.3,695.9z M156.9,697.5l-0.8,2h1.6L156.9,697.5z"/>
	<path d="M160.9,695.9h1.2l2.6,4.1v-4.1h1.2v6.1h-1.2l-2.6-4.1v4.1h-1.2V695.9z"/>
</g>
<g>
	<path d="M148.9,768.1h1.3l1.1,2.2l1.1-2.2h1.2l-1.8,3.5v2.7h-1.2v-2.7L148.9,768.1z"/>
	<path d="M154.2,768.1h1.3l1.1,2.2l1.1-2.2h1.2l-1.8,3.5v2.7H156v-2.7L154.2,768.1z"/>
	<path d="M165.6,769.2l-0.8,0.8c-0.6-0.6-1.2-0.9-1.9-0.9c-0.6,0-1.1,0.2-1.5,0.6s-0.6,0.9-0.6,1.5c0,0.4,0.1,0.8,0.3,1.1
		c0.2,0.3,0.4,0.6,0.8,0.7c0.3,0.2,0.7,0.3,1.1,0.3c0.3,0,0.6-0.1,0.9-0.2c0.3-0.1,0.6-0.4,0.9-0.7l0.8,0.8
		c-0.5,0.4-0.9,0.8-1.3,0.9c-0.4,0.2-0.9,0.3-1.4,0.3c-1,0-1.7-0.3-2.3-0.9c-0.6-0.6-0.9-1.4-0.9-2.3c0-0.6,0.1-1.2,0.4-1.6
		c0.3-0.5,0.7-0.9,1.2-1.1c0.5-0.3,1.1-0.4,1.7-0.4c0.5,0,1,0.1,1.5,0.3C164.9,768.5,165.3,768.8,165.6,769.2z"/>
</g>
<g>
	<path d="M0,830.1h131.9l14.1-21.6l-0.1-0.1v0h-8.3l0.8-4.4c-1.6,2.5-4,4.5-7.2,4.5c-3.9,0-6.8-3.1-7-7.8c-0.1-2.5,0.4-4.9,1.4-6.9
		l-4,6.1c0,0,0,0,0,0c0,0,0,0.1,0,0.1h-14.2l0,0.3c0.1,2.2,2.1,4.2,6,4.2c2.1,0,4.2-0.5,6.8-1.8l-0.8,4.6c-2.1,1-3.9,1.4-7,1.4
		c-5.1,0-9.9-3.1-10.2-8.6c-0.1-2.4,0.4-4.7,1.4-6.6c0,0,0,0.1,0,0.1l-4.4,6.6l-1.7,8.3h-5.3l2.5-11.8c0.2-0.6,0.2-1.1,0.2-1.7
		c-0.1-1.7-1.2-2.8-3-2.8c-2.2,0-3.7,1.4-4.3,4.6l-0.7,3.6l-1.5,8h-5.3l1.6-8.7l3.9-20.6h-3.9l0.9-4.2l-9,13.6
		c1.4,0.4,2.5,1,3.4,1.8c0.8,0.8,1.3,1.7,1.4,2.7c0.1,1.7-1.1,2.8-2.6,2.8c-1.4,0-2.7-1.2-2.8-2.6c0-0.4,0-0.5,0.2-1.1
		c-0.2-0.1-0.4-0.2-0.7-0.3c-0.7-0.2-1.5-0.4-2.3-0.4c-1.7,0-3.4,0.5-3.4,1.8c0.1,1.4,2.3,2.2,4.7,3.2c2.7,1.1,5.7,2.7,5.8,5.8
		c0.2,4-3,6.4-8.6,6.4c-3.4,0-6.2-1-7.9-2.5c-0.9-0.8-1.5-1.8-1.5-2.8c-0.1-1.7,1-2.8,2.6-2.8c1.4,0,2.7,1.1,2.7,2.5
		c0,0.4-0.1,0.9-0.2,1.1c0.2,0.1,0.4,0.3,0.7,0.4c1,0.4,2.2,0.6,3.5,0.6c1.9,0,3.7-0.5,3.6-1.9c-0.1-1.5-2.3-2.2-4.6-3.2
		c-2.7-1-5.7-2.5-5.9-5.9c0-1.1,0.2-2.1,0.8-3c0,0,0,0,0,0l-6.5,9.8c-0.7,3.6-1.3,6.7-1.4,7.3h-5.5l3-15.4h-3.7l0.9-4.2h6.6l2.7-4
		c-0.6,0.8-1.5,1.2-2.5,1.2c-1.8,0-3.3-1.3-3.4-3.1c0-0.5,0.1-1,0.3-1.5L43.4,796l0,0l-0.9,4.6l-0.6,3.8h3.6l-0.9,4h-8.4l0.8-4.4
		c-1.6,2.5-4,4.5-7.2,4.5c-3.9,0-6.8-3.1-7-7.8c-0.1-2.7,0.5-5.2,1.6-7.3L0,830.1z"/>
	<path d="M47.4,774.8l-4.1,21.5l0.1-0.2l-0.9,4.6l-0.6,3.8h3.6l-0.9,4h-8.4l0.8-4.4c-1.6,2.5-4,4.5-7.2,4.5c-3.9,0-6.8-3.1-7-7.8
		c-0.1-2.7,0.5-5.2,1.6-7.3c0,0,0,0,0,0l0.1-0.1c0,0,1.2-1.8,1.9-2.6c0.8-0.9,1.8-1.6,2.8-2.1l0.1-0.2l9.2-13.9L47.4,774.8z"/>
	<path d="M58.2,789c-0.2,0.9-1.3,7.2-2.3,12.5l0.1-0.2c-0.7,3.6-1.3,6.7-1.4,7.3h-5.5l3-15.5h-3.7l0.9-4.2h6.6L58.2,789z"/>
	<path d="M59.1,783c0,0.5-0.2,1.4-0.2,1.4l-0.1,0.2c0,0.1-0.1,0.1-0.1,0.2c-0.6,0.8-1.5,1.2-2.5,1.2c-1.8,0-3.3-1.3-3.4-3.1
		c0-0.5,0.1-1,0.3-1.5c0,0,0,0,0,0v0.1l0-0.1l0.2-0.3c0.1-0.1,0.1-0.2,0.2-0.3c0.6-0.6,1.4-0.9,2.2-0.9C57.5,780,59,781.4,59.1,783z
		"/>
	<path d="M78.4,793.2c0.1,1.7-1.1,2.8-2.6,2.8c-1.4,0-2.7-1.2-2.8-2.6c0-0.4,0-0.5,0.2-1.1c-0.2-0.1-0.4-0.2-0.7-0.3
		c-0.7-0.2-1.5-0.4-2.3-0.4c-1.7,0-3.4,0.5-3.4,1.8c0.1,1.4,2.3,2.2,4.7,3.2c2.7,1.1,5.7,2.7,5.8,5.8c0.2,4-3,6.4-8.6,6.4
		c-3.4,0-6.2-1-7.9-2.5c-0.9-0.8-1.5-1.8-1.5-2.8c-0.1-1.7,1-2.8,2.6-2.8c1.4,0,2.7,1.1,2.7,2.5c0,0.4-0.1,0.9-0.2,1.1
		c0.2,0.1,0.4,0.3,0.7,0.4c1,0.4,2.2,0.6,3.5,0.6c1.9,0,3.7-0.5,3.6-1.9c-0.1-1.5-2.3-2.2-4.6-3.2c-2.7-1-5.7-2.5-5.9-5.9
		c0-1.1,0.2-2.1,0.8-3c0.1-0.1,0.5-0.6,0.8-0.9c1-1.1,3-2.3,6.7-2.3c1.3,0,2.5,0.2,3.5,0.5l0-0.1c1.4,0.4,2.5,1,3.4,1.8
		C77.9,791.2,78.3,792.2,78.4,793.2z"/>
	<path d="M100.1,794.1c0.1,1.1-0.1,2.2-0.4,3.3l-0.6,3l0.1-0.2l-1.7,8.3h-5.3l2.5-11.8c0.2-0.6,0.2-1.1,0.2-1.7
		c-0.1-1.7-1.2-2.8-3-2.8c-2.2,0-3.7,1.4-4.3,4.6l-0.7,3.6l-1.5,8h-5.3l1.6-8.7l3.9-20.6h-3.9l0.9-4.2h0l8.7,0.1l-3.3,17.5l0.2-0.4
		c1.8-2.9,4.4-4,6.1-4C98.2,788.2,100,791.2,100.1,794.1z"/>
	<path d="M121.6,800L121.6,800C121.6,800,121.6,800,121.6,800l-14.2,0.1l0,0.3c0.1,2.2,2.1,4.2,6,4.2c2.1,0,4.2-0.5,6.8-1.8
		l-0.8,4.6c-2.1,1-3.9,1.4-7,1.4c-5.1,0-9.9-3.1-10.2-8.6c-0.1-2.4,0.4-4.7,1.4-6.6c0,0,0,0,0,0c0.2-0.3,1.2-1.7,1.8-2.3
		c2-2,4.6-3.2,7.4-3.2c5.4,0,8.9,2.9,9.2,7.7C122.1,797,121.6,800,121.6,800z"/>
	<path d="M143.2,804.6h3.6l-0.8,3.8l0,0.1h-8.3l0.8-4.4c-1.6,2.5-4,4.5-7.2,4.5c-3.9,0-6.8-3.1-7-7.8c-0.1-2.5,0.4-4.9,1.4-6.9
		c0,0,0,0,0,0l0.1-0.1l0.1-0.2c0,0.1-0.1,0.1-0.1,0.2l0.1-0.1v0.1c0.5-1.1,1.2-2.1,2-2.9c0.8-0.9,1.8-1.6,2.8-2.1l0.1-0.2l9.2-13.9
		l8.8,0.1l-5,25.9L143.2,804.6z"/>
	<g>
		<g>
			<path class="st7" d="M147.4,782.8l1.6-8.2H140l-0.9,4.2h3.8l-0.6,3.3l-1.9,9.8c-1-2.1-3.1-4.3-5.9-4.3c-1.3,0-2.5,0.3-3.7,0.8
				c-2.2,1-4,2.9-5.1,5.3c0,0,0,0,0,0c-1,2-1.5,4.4-1.4,6.9c0.2,4.7,3.2,7.8,7,7.8c3.2,0,5.6-2,7.2-4.5l-0.8,4.4h8.4l0.9-4h-3.6
				l0.6-3.8L147.4,782.8z M133.6,804.3c-2.5,0-3.8-1.9-3.9-4.3c-0.2-4.1,2.4-7.8,5.9-7.8c2.7,0,4.1,1.6,4.3,4.3
				C140,800.8,137.1,804.3,133.6,804.3z"/>
		</g>
		<path class="st7" d="M122.2,795.7c-0.2-5-4-7.7-9.3-7.7c-4,0-7.4,2.2-9.2,5.6c0,0,0,0,0,0c-1,1.9-1.5,4.1-1.4,6.6
			c0.3,5.5,5.1,8.6,10.2,8.6c3.1,0,4.8-0.4,7-1.4l0.8-4.6c-2.5,1.3-4.7,1.8-6.8,1.8c-3.9,0-5.9-2-6-4.2l0-0.3h14.2c0,0,0-0.1,0-0.1
			c0,0,0,0,0,0C122.1,798.4,122.2,797,122.2,795.7z M117.1,796.6h-9.3c0.9-2.7,2.8-4.5,5.4-4.5c2.5,0,3.9,1.1,4,3.1
			C117.2,795.6,117.2,796.1,117.1,796.6z"/>
		<path class="st7" d="M99.9,797.5l-0.6,2.8l-1.7,8.3h-5.3l2.5-11.8c0.2-0.6,0.2-1.1,0.2-1.7c-0.1-1.7-1.2-2.8-3-2.8
			c-2.2,0-3.7,1.4-4.3,4.6l-0.7,3.6l-1.5,8h-5.3l1.6-8.7l3.9-20.6h-3.9l0.9-4.2h8.8l-3.2,17.1c1.3-2.1,3.6-4,6.1-4
			c3,0,5.6,2.1,5.8,6C100.3,795.1,100.2,796.2,99.9,797.5z"/>
		<path class="st7" d="M59.1,783c0,0.6-0.1,1.2-0.4,1.7c0,0.1-0.1,0.1-0.1,0.2c-0.6,0.8-1.5,1.2-2.5,1.2c-1.8,0-3.3-1.3-3.4-3.1
			c0-0.5,0.1-1,0.3-1.5c0,0,0,0,0,0c0.5-0.9,1.5-1.6,2.7-1.6C57.5,780,59.1,781.3,59.1,783z"/>
		<path class="st7" d="M73.3,792.3c-0.2-0.1-0.4-0.2-0.7-0.3c-0.7-0.2-1.5-0.4-2.3-0.4c-1.7,0-3.4,0.5-3.4,1.8
			c0.1,1.4,2.3,2.2,4.7,3.2c2.7,1.1,5.7,2.7,5.8,5.8c0.2,4-3,6.4-8.6,6.4c-3.4,0-6.2-1-7.9-2.5c-0.9-0.8-1.5-1.8-1.5-2.8
			c-0.1-1.7,1-2.8,2.6-2.8c1.4,0,2.7,1.1,2.7,2.5c0,0.4-0.1,0.9-0.2,1.1c0.2,0.1,0.4,0.3,0.7,0.4c1,0.4,2.2,0.6,3.5,0.6
			c1.9,0,3.7-0.5,3.6-1.9c-0.1-1.5-2.3-2.2-4.6-3.2c-2.7-1-5.7-2.5-5.9-5.9c0-1.1,0.2-2.1,0.8-3c1.2-1.9,3.6-3.3,7.5-3.3
			c1.3,0,2.5,0.2,3.6,0.5c1.4,0.4,2.5,1,3.4,1.8c0.8,0.8,1.3,1.7,1.4,2.7c0.1,1.7-1.1,2.8-2.6,2.8c-1.4,0-2.7-1.2-2.8-2.6
			C73,793.1,73.1,792.9,73.3,792.3z"/>
		<path class="st7" d="M58.3,788.9c0,0-1.3,6.8-2.3,12.4c-0.7,3.6-1.3,6.7-1.4,7.3h-5.5l3-15.5h-3.7l0.9-4.2H58.3z"/>
		<path class="st7" d="M43.4,796.1L43.4,796.1l2.5-13.2l1.6-8.2h-8.9l-0.9,4.2h3.8l-0.6,3.3l-1.9,9.8c-0.9-2.1-3.1-4.3-5.9-4.3
			c-1.3,0-2.5,0.3-3.7,0.8c-2.1,0.9-3.8,2.7-4.9,4.9c0,0,0,0,0,0c-1.1,2.1-1.7,4.7-1.6,7.3c0.2,4.7,3.2,7.8,7,7.8
			c3.2,0,5.6-2,7.2-4.5l-0.8,4.4h8.4l0.9-4h-3.6l0.6-3.8L43.4,796.1z M32.2,804.3c-2.5,0-3.8-1.9-3.9-4.3c-0.2-4.1,2.4-7.8,5.9-7.8
			c2.7,0,4.1,1.6,4.3,4.3C38.6,800.8,35.7,804.3,32.2,804.3z"/>
	</g>
</g>
<g>
	<path d="M150,840.3h3.4v1.2h-1.1v5h-1.2v-5H150V840.3z"/>
	<path d="M157.1,840.2c0.9,0,1.6,0.3,2.2,0.9c0.6,0.6,0.9,1.4,0.9,2.3c0,0.9-0.3,1.7-0.9,2.3c-0.6,0.6-1.4,0.9-2.2,0.9
		c-0.9,0-1.7-0.3-2.3-1s-0.9-1.4-0.9-2.3c0-0.6,0.1-1.1,0.4-1.6c0.3-0.5,0.7-0.9,1.2-1.2C156,840.3,156.5,840.2,157.1,840.2z
		 M157.1,841.3c-0.6,0-1,0.2-1.4,0.6c-0.4,0.4-0.6,0.9-0.6,1.5c0,0.7,0.2,1.2,0.7,1.6c0.4,0.3,0.8,0.5,1.3,0.5c0.6,0,1-0.2,1.4-0.6
		c0.4-0.4,0.6-0.9,0.6-1.5c0-0.6-0.2-1.1-0.6-1.5S157.6,841.3,157.1,841.3z"/>
</g>
<g>
	<path d="M0,902.4h132.4l14.2-21.7l-0.1-0.1v0h-8.3l0.8-4.4c-1.6,2.5-4,4.5-7.2,4.5c-3.9,0-6.8-3.1-7.1-7.8
		c-0.1-2.5,0.4-4.9,1.4-6.9l-4,6.1c0,0,0,0,0,0c0,0,0,0.1,0,0.1h-14.3l0,0.3c0.1,2.3,2.1,4.2,6,4.2c2.1,0,4.2-0.5,6.8-1.8l-0.8,4.6
		c-2.1,1-3.9,1.4-7,1.4c-5.1,0-9.9-3.1-10.2-8.6c-0.1-2.4,0.4-4.7,1.4-6.6c0,0,0,0.1,0,0.1l-4.4,6.6l-1.7,8.3h-5.3l2.5-11.8
		c0.2-0.6,0.2-1.1,0.2-1.7c-0.1-1.7-1.2-2.8-3-2.8c-2.2,0-3.7,1.4-4.3,4.6l-0.7,3.6l-1.6,8.1h-5.3L82,872l3.9-20.7H82l0.9-4.2
		l-9,13.6c1.4,0.4,2.5,1,3.4,1.8c0.8,0.8,1.3,1.8,1.4,2.8c0.1,1.7-1.1,2.8-2.6,2.8c-1.4,0-2.7-1.2-2.8-2.6c0-0.4,0-0.6,0.2-1.1
		c-0.2-0.1-0.4-0.2-0.7-0.3c-0.7-0.2-1.5-0.4-2.3-0.4c-1.7,0-3.4,0.5-3.4,1.8c0.1,1.4,2.3,2.2,4.8,3.2c2.8,1.1,5.7,2.7,5.8,5.8
		c0.2,4-3,6.4-8.7,6.4c-3.4,0-6.3-1-7.9-2.5c-0.9-0.8-1.5-1.8-1.5-2.8c-0.1-1.7,1-2.8,2.6-2.8c1.4,0,2.7,1.1,2.7,2.5
		c0,0.4-0.1,0.9-0.2,1.1c0.2,0.1,0.4,0.3,0.7,0.4c1,0.4,2.2,0.6,3.5,0.6c1.9,0,3.7-0.6,3.7-1.9c-0.1-1.5-2.3-2.2-4.7-3.2
		c-2.8-1.1-5.8-2.5-5.9-5.9c0-1.1,0.2-2.1,0.8-3c0,0,0,0,0,0l-6.5,9.8c-0.7,3.6-1.3,6.8-1.4,7.3h-5.5l3-15.5h-3.7l0.9-4.2h6.6l2.7-4
		c-0.6,0.8-1.5,1.2-2.5,1.2c-1.8,0-3.3-1.3-3.4-3.1c0-0.5,0.1-1,0.3-1.5l-9.7,14.5l0,0l-0.9,4.6l-0.6,3.9h3.6l-0.9,4h-8.4l0.8-4.4
		c-1.6,2.5-4,4.5-7.2,4.5c-3.9,0-6.8-3.1-7.1-7.8c-0.1-2.7,0.5-5.2,1.6-7.4L0,902.4z"/>
	<path d="M47.6,846.8l-4.2,21.6l0.1-0.2l-0.9,4.6l-0.6,3.9h3.6l-0.9,4h-8.4l0.8-4.4c-1.6,2.5-4,4.5-7.2,4.5c-3.9,0-6.8-3.1-7.1-7.8
		c-0.1-2.7,0.5-5.2,1.6-7.4c0,0,0,0,0,0l0.1-0.1c0,0,1.2-1.8,1.9-2.6c0.9-0.9,1.8-1.6,2.9-2.1l0.1-0.2l9.2-13.9L47.6,846.8z"/>
	<path d="M58.4,861.1c-0.2,0.9-1.3,7.2-2.3,12.5l0.1-0.2c-0.7,3.6-1.3,6.8-1.4,7.3h-5.5l3-15.5h-3.8l0.9-4.2h6.6L58.4,861.1z"/>
	<path d="M59.3,855.1c0,0.5-0.2,1.4-0.2,1.4l-0.1,0.2c0,0.1-0.1,0.1-0.1,0.2c-0.6,0.8-1.5,1.2-2.5,1.2c-1.8,0-3.3-1.3-3.4-3.1
		c0-0.5,0.1-1,0.3-1.5c0,0,0,0,0,0v0.1l0-0.1l0.2-0.3c0.1-0.1,0.1-0.2,0.2-0.3c0.6-0.6,1.4-0.9,2.2-0.9
		C57.7,852.1,59.2,853.4,59.3,855.1z"/>
	<path d="M78.7,865.3c0.1,1.7-1.1,2.8-2.6,2.8c-1.4,0-2.7-1.2-2.8-2.6c0-0.4,0-0.6,0.2-1.1c-0.2-0.1-0.4-0.2-0.7-0.3
		c-0.7-0.2-1.5-0.4-2.3-0.4c-1.7,0-3.4,0.5-3.4,1.8c0.1,1.4,2.3,2.2,4.8,3.2c2.8,1.1,5.7,2.7,5.8,5.8c0.2,4-3,6.4-8.7,6.4
		c-3.4,0-6.3-1-7.9-2.5c-0.9-0.8-1.5-1.8-1.5-2.8c-0.1-1.7,1-2.9,2.6-2.9c1.4,0,2.7,1.1,2.7,2.5c0,0.4-0.1,0.9-0.2,1.1
		c0.2,0.1,0.4,0.3,0.7,0.4c1,0.4,2.2,0.6,3.5,0.6c1.9,0,3.7-0.6,3.7-1.9c-0.1-1.5-2.3-2.2-4.7-3.2c-2.8-1.1-5.8-2.5-5.9-5.9
		c0-1.1,0.2-2.1,0.8-3c0.1-0.1,0.5-0.6,0.8-0.9c1-1.1,3-2.3,6.7-2.3c1.3,0,2.5,0.2,3.6,0.5l0-0.1c1.4,0.4,2.5,1,3.4,1.8
		C78.1,863.3,78.6,864.3,78.7,865.3z"/>
	<path d="M100.5,866.2c0.1,1.1-0.1,2.2-0.4,3.3l-0.6,3l0.1-0.2l-1.7,8.3h-5.3l2.5-11.8c0.2-0.6,0.2-1.1,0.2-1.7
		c-0.1-1.7-1.2-2.8-3-2.8c-2.2,0-3.7,1.4-4.3,4.6l-0.7,3.6l-1.6,8.1h-5.3L82,872l3.9-20.7H82l0.9-4.2h0l8.8,0.1l-3.3,17.5l0.2-0.4
		c1.8-3,4.4-4,6.1-4C98.5,860.3,100.3,863.3,100.5,866.2z"/>
	<path d="M122,872.1L122,872.1C122.1,872.1,122,872.1,122,872.1l-14.3,0.1l0,0.3c0.1,2.3,2.1,4.2,6,4.2c2.1,0,4.2-0.5,6.8-1.8
		l-0.8,4.6c-2.1,1-3.9,1.4-7,1.4c-5.1,0-9.9-3.1-10.2-8.6c-0.1-2.4,0.4-4.7,1.4-6.6c0,0,0,0,0,0c0.2-0.3,1.2-1.7,1.8-2.3
		c2-2.1,4.6-3.2,7.4-3.2c5.5,0,9,2.9,9.2,7.7C122.6,869.1,122,872.1,122,872.1z"/>
	<path d="M143.7,876.7h3.6l-0.8,3.8l0,0.1h-8.3l0.8-4.4c-1.6,2.5-4,4.5-7.2,4.5c-3.9,0-6.8-3.1-7.1-7.8c-0.1-2.5,0.4-4.9,1.4-6.9
		c0,0,0,0,0,0l0.1-0.1l0.1-0.2c0,0.1-0.1,0.1-0.1,0.2l0.1-0.1v0.1c0.5-1.1,1.2-2.1,2-3c0.9-0.9,1.8-1.6,2.9-2.1l0.1-0.2l9.2-13.9
		l8.8,0.1l-5,26L143.7,876.7z"/>
	<g>
		<g>
			<path class="st7" d="M147.9,854.9l1.6-8.2h-8.9l-0.9,4.2h3.8l-0.6,3.3l-1.9,9.9c-1-2.1-3.2-4.3-5.9-4.3c-1.3,0-2.5,0.3-3.7,0.8
				c-2.2,1-4,2.9-5.2,5.3c0,0,0,0,0,0c-1,2-1.5,4.4-1.4,6.9c0.2,4.7,3.2,7.8,7.1,7.8c3.2,0,5.6-2,7.2-4.5l-0.8,4.4h8.4l0.9-4h-3.6
				l0.6-3.9L147.9,854.9z M134.1,876.4c-2.5,0-3.8-1.9-4-4.3c-0.2-4.1,2.4-7.9,5.9-7.9c2.7,0,4.2,1.7,4.3,4.3
				C140.5,872.9,137.5,876.4,134.1,876.4z"/>
		</g>
		<path class="st7" d="M122.6,867.8c-0.2-5-4-7.8-9.3-7.8c-4,0-7.4,2.2-9.2,5.6c0,0,0,0,0,0c-1,1.9-1.6,4.1-1.4,6.6
			c0.3,5.6,5.1,8.6,10.2,8.6c3.1,0,4.9-0.4,7-1.4l0.8-4.6c-2.6,1.3-4.7,1.8-6.8,1.8c-3.9,0-5.9-2-6-4.2l0-0.3H122c0,0,0-0.1,0-0.1
			c0,0,0,0,0,0C122.5,870.5,122.6,869.1,122.6,867.8z M117.5,868.7h-9.3c0.9-2.8,2.8-4.5,5.4-4.5c2.5,0,3.9,1.1,4,3.1
			C117.6,867.7,117.6,868.2,117.5,868.7z"/>
		<path class="st7" d="M100.2,869.6l-0.6,2.8l-1.7,8.3h-5.3l2.5-11.8c0.2-0.6,0.2-1.1,0.2-1.7c-0.1-1.7-1.2-2.8-3-2.8
			c-2.2,0-3.7,1.4-4.3,4.6l-0.7,3.6l-1.6,8.1h-5.3L82,872l3.9-20.7H82l0.9-4.2h8.9l-3.3,17.2c1.3-2.1,3.7-4,6.2-4c3,0,5.6,2.1,5.8,6
			C100.6,867.2,100.5,868.3,100.2,869.6z"/>
		<path class="st7" d="M59.3,855.1c0,0.6-0.1,1.2-0.4,1.7c0,0.1-0.1,0.1-0.1,0.2c-0.6,0.8-1.5,1.2-2.5,1.2c-1.8,0-3.3-1.3-3.4-3.1
			c0-0.5,0.1-1,0.3-1.5c0,0,0,0,0,0c0.5-1,1.5-1.6,2.7-1.6C57.7,852,59.3,853.4,59.3,855.1z"/>
		<path class="st7" d="M73.5,864.4c-0.2-0.1-0.4-0.2-0.7-0.3c-0.7-0.2-1.5-0.4-2.3-0.4c-1.7,0-3.4,0.5-3.4,1.8
			c0.1,1.4,2.3,2.2,4.8,3.2c2.8,1.1,5.7,2.7,5.8,5.8c0.2,4-3,6.4-8.7,6.4c-3.4,0-6.3-1-7.9-2.5c-0.9-0.8-1.5-1.8-1.5-2.8
			c-0.1-1.7,1-2.9,2.6-2.9c1.4,0,2.7,1.1,2.7,2.5c0,0.4-0.1,0.9-0.2,1.1c0.2,0.1,0.4,0.3,0.7,0.4c1,0.4,2.2,0.6,3.5,0.6
			c1.9,0,3.7-0.6,3.7-1.9c-0.1-1.5-2.3-2.2-4.7-3.2c-2.8-1.1-5.8-2.5-5.9-5.9c0-1.1,0.2-2.1,0.8-3c1.2-1.9,3.6-3.3,7.5-3.3
			c1.3,0,2.5,0.2,3.6,0.5c1.4,0.4,2.5,1,3.4,1.8c0.8,0.8,1.3,1.8,1.4,2.8c0.1,1.7-1.1,2.8-2.6,2.8c-1.4,0-2.7-1.2-2.8-2.6
			C73.3,865.2,73.3,865,73.5,864.4z"/>
		<path class="st7" d="M58.5,861c0,0-1.3,6.8-2.3,12.4c-0.7,3.6-1.3,6.8-1.4,7.3h-5.5l3-15.5h-3.8l0.9-4.2H58.5z"/>
		<path class="st7" d="M43.6,868.2L43.6,868.2l2.6-13.3l1.6-8.2h-8.9l-0.9,4.2h3.8l-0.6,3.3l-1.9,9.9c-1-2.1-3.1-4.3-5.9-4.3
			c-1.3,0-2.5,0.3-3.7,0.8c-2.1,1-3.8,2.7-4.9,4.9c0,0,0,0,0,0c-1.1,2.1-1.7,4.7-1.6,7.4c0.2,4.7,3.2,7.8,7.1,7.8
			c3.2,0,5.6-2,7.2-4.5l-0.8,4.4h8.4l0.9-4h-3.6l0.6-3.9L43.6,868.2z M32.3,876.4c-2.5,0-3.8-1.9-4-4.3c-0.2-4.1,2.4-7.9,5.9-7.9
			c2.7,0,4.2,1.7,4.3,4.3C38.7,872.9,35.8,876.4,32.3,876.4z"/>
	</g>
</g>
<g>
	<path d="M153.4,912.4h1.2l1.4,4.3l1.4-4.3h1.2l1,6.2h-1.2l-0.7-4l-1.4,4h-0.8l-1.4-4l-0.7,4h-1.2L153.4,912.4z"/>
	<path d="M160.1,912.4h3.4v1.2h-1.2v5H161v-5h-1L160.1,912.4L160.1,912.4z"/>
	<path d="M164.5,912.4h1.2v5.1h1.7v1.2h-2.9L164.5,912.4L164.5,912.4z"/>
</g>
<g>
	<path d="M0,974.6h132.9l14.2-21.8l-0.1-0.1v0h-8.4l0.9-4.4c-1.6,2.5-4,4.5-7.2,4.5c-3.9,0-6.9-3.1-7.1-7.8
		c-0.1-2.5,0.4-4.9,1.4-6.9l-4.1,6.1c0,0,0,0,0,0c0,0,0,0.1,0,0.1h-14.3l0,0.3c0.1,2.3,2.1,4.2,6.1,4.2c2.1,0,4.3-0.5,6.8-1.8
		l-0.8,4.6c-2.1,1-3.9,1.4-7,1.4c-5.1,0-10-3.1-10.2-8.7c-0.1-2.5,0.4-4.7,1.4-6.6c0,0,0,0.1,0,0.1l-4.4,6.7l-1.8,8.4H93l2.5-11.9
		c0.2-0.6,0.2-1.1,0.2-1.7c-0.1-1.8-1.2-2.8-3-2.8c-2.2,0-3.7,1.4-4.3,4.6l-0.7,3.6l-1.6,8.1h-5.3l1.6-8.7l3.9-20.8h-3.9l0.9-4.2
		l-9.1,13.7c1.4,0.4,2.6,1,3.4,1.8c0.8,0.8,1.3,1.8,1.4,2.8c0.1,1.7-1.1,2.8-2.6,2.8c-1.4,0-2.7-1.2-2.8-2.6c0-0.4,0-0.6,0.2-1.1
		c-0.2-0.1-0.4-0.2-0.7-0.3c-0.7-0.2-1.5-0.4-2.3-0.4c-1.7,0-3.5,0.5-3.4,1.8c0.1,1.4,2.3,2.2,4.8,3.2c2.8,1.2,5.7,2.7,5.9,5.9
		c0.2,4.1-3,6.4-8.7,6.4c-3.4,0-6.3-1-7.9-2.5c-0.9-0.8-1.5-1.8-1.5-2.9c-0.1-1.8,1.1-2.9,2.6-2.9c1.4,0,2.7,1.2,2.7,2.5
		c0,0.4-0.1,0.9-0.2,1.1c0.2,0.1,0.4,0.3,0.7,0.4c1,0.4,2.2,0.6,3.5,0.6c1.9,0,3.7-0.6,3.7-1.9c-0.1-1.5-2.3-2.2-4.7-3.2
		c-2.8-1.1-5.8-2.5-6-5.9c0-1.1,0.2-2.1,0.8-3c0,0,0,0,0,0l-6.6,9.9c-0.7,3.6-1.3,6.8-1.4,7.4h-5.6l3-15.6h-3.8l0.9-4.2h6.6l2.7-4.1
		c-0.6,0.8-1.5,1.3-2.6,1.3c-1.8,0-3.3-1.3-3.4-3.1c0-0.5,0.1-1.1,0.3-1.5l-9.7,14.6l0,0l-0.9,4.6l-0.6,3.9h3.6l-0.9,4h-8.4l0.9-4.4
		c-1.6,2.5-4,4.5-7.2,4.5c-3.9,0-6.9-3.1-7.1-7.8c-0.1-2.7,0.5-5.2,1.6-7.4L0,974.6z"/>
	<path d="M47.8,918.8l-4.2,21.6l0.1-0.2l-0.9,4.6l-0.6,3.9h3.6l-0.9,4h-8.4l0.9-4.4c-1.6,2.5-4,4.5-7.2,4.5c-3.9,0-6.9-3.1-7.1-7.8
		c-0.1-2.7,0.5-5.2,1.6-7.4c0,0,0,0,0,0l0.1-0.1c0,0,1.2-1.8,1.9-2.6c0.9-0.9,1.8-1.6,2.9-2.1l0.1-0.2l9.3-14L47.8,918.8z"/>
	<path d="M58.7,933.1c-0.2,0.9-1.3,7.3-2.3,12.5l0.1-0.2c-0.7,3.6-1.3,6.8-1.4,7.4h-5.6l3-15.6h-3.8l0.9-4.2h6.6L58.7,933.1z"/>
	<path d="M59.5,927.1c0,0.5-0.2,1.5-0.2,1.5l-0.1,0.2c0,0.1-0.1,0.1-0.1,0.2c-0.6,0.8-1.5,1.3-2.6,1.3c-1.8,0-3.3-1.3-3.4-3.1
		c0-0.5,0.1-1.1,0.3-1.5c0,0,0,0,0,0v0.1l0-0.1l0.3-0.3c0.1-0.1,0.1-0.2,0.2-0.3c0.6-0.6,1.4-0.9,2.2-0.9
		C57.9,924.1,59.4,925.5,59.5,927.1z"/>
	<path d="M79,937.4c0.1,1.7-1.1,2.8-2.6,2.8c-1.4,0-2.7-1.2-2.8-2.6c0-0.4,0-0.6,0.2-1.1c-0.2-0.1-0.4-0.2-0.7-0.3
		c-0.7-0.2-1.5-0.4-2.3-0.4c-1.7,0-3.5,0.5-3.4,1.8c0.1,1.4,2.3,2.2,4.8,3.2c2.8,1.2,5.7,2.7,5.9,5.9c0.2,4.1-3,6.4-8.7,6.4
		c-3.4,0-6.3-1-7.9-2.5c-0.9-0.8-1.5-1.8-1.5-2.9c-0.1-1.8,1.1-2.9,2.6-2.9c1.4,0,2.7,1.2,2.7,2.5c0,0.4-0.1,0.9-0.2,1.1
		c0.2,0.1,0.4,0.3,0.7,0.4c1,0.4,2.2,0.6,3.5,0.6c1.9,0,3.7-0.6,3.7-1.9c-0.1-1.5-2.3-2.2-4.7-3.2c-2.8-1.1-5.8-2.5-6-5.9
		c0-1.1,0.2-2.1,0.8-3c0.1-0.1,0.5-0.6,0.8-0.9c1-1.1,3-2.3,6.8-2.3c1.3,0,2.5,0.2,3.6,0.5l0-0.1c1.4,0.4,2.6,1,3.4,1.8
		C78.5,935.4,78.9,936.4,79,937.4z"/>
	<path d="M100.9,938.3c0.1,1.1-0.1,2.2-0.4,3.3l-0.6,3l0.1-0.2l-1.8,8.4h-5.3l2.5-11.9c0.2-0.6,0.2-1.2,0.2-1.7
		c-0.1-1.8-1.2-2.8-3-2.8c-2.2,0-3.7,1.4-4.3,4.6l-0.7,3.6l-1.6,8.1h-5.3l1.7-8.7l3.9-20.8h-3.9l0.9-4.2h0l8.8,0.1l-3.3,17.6
		l0.2-0.4c1.9-3,4.5-4,6.1-4C98.9,932.4,100.8,935.3,100.9,938.3z"/>
	<path d="M122.5,944.2L122.5,944.2C122.6,944.2,122.5,944.3,122.5,944.2l-14.3,0.1l0,0.3c0.1,2.3,2.1,4.2,6.1,4.2
		c2.1,0,4.3-0.5,6.8-1.8l-0.8,4.6c-2.1,1-3.9,1.4-7,1.4c-5.1,0-10-3.1-10.2-8.7c-0.1-2.5,0.4-4.7,1.4-6.6c0,0,0,0,0,0
		c0.2-0.4,1.2-1.7,1.8-2.3c2-2.1,4.6-3.2,7.5-3.2c5.5,0,9,3,9.2,7.7C123.1,941.2,122.5,944.2,122.5,944.2z"/>
	<path d="M144.3,948.8h3.6l-0.8,3.8l0,0.1h-8.4l0.9-4.4c-1.6,2.5-4,4.5-7.2,4.5c-3.9,0-6.9-3.1-7.1-7.8c-0.1-2.5,0.4-4.9,1.4-6.9
		c0,0,0,0,0,0l0.1-0.1l0.1-0.2c0,0.1-0.1,0.1-0.1,0.2l0.1-0.1v0.1c0.5-1.1,1.2-2.1,2-3c0.9-0.9,1.8-1.6,2.9-2.1l0.1-0.2l9.3-14
		l8.9,0.1l-5,26.1L144.3,948.8z"/>
	<g>
		<g>
			<path class="st7" d="M148.5,926.9l1.6-8.2h-9l-0.9,4.2h3.9l-0.6,3.4l-1.9,9.9c-1-2.1-3.2-4.3-6-4.3c-1.3,0-2.6,0.3-3.7,0.8
				c-2.2,1-4,2.9-5.2,5.3c0,0,0,0,0,0c-1,2-1.5,4.4-1.4,6.9c0.2,4.7,3.2,7.8,7.1,7.8c3.2,0,5.6-2,7.2-4.5l-0.9,4.4h8.4l0.9-4h-3.6
				l0.6-3.9L148.5,926.9z M134.6,948.6c-2.5,0-3.9-1.9-4-4.3c-0.2-4.1,2.4-7.9,5.9-7.9c2.8,0,4.2,1.7,4.3,4.3
				C141.1,945,138.1,948.6,134.6,948.6z"/>
		</g>
		<path class="st7" d="M123.1,939.9c-0.2-5-4-7.8-9.3-7.8c-4,0-7.4,2.2-9.3,5.6c0,0,0,0,0,0c-1,1.9-1.6,4.2-1.4,6.6
			c0.3,5.6,5.1,8.7,10.2,8.7c3.1,0,4.9-0.4,7-1.4l0.8-4.6c-2.6,1.3-4.7,1.8-6.8,1.8c-4,0-6-2-6.1-4.2l0-0.3h14.3c0,0,0-0.1,0-0.1
			c0,0,0,0,0,0C123,942.6,123.2,941.2,123.1,939.9z M117.9,940.8h-9.3c0.9-2.8,2.8-4.5,5.5-4.5c2.5,0,3.9,1.2,4,3.1
			C118.1,939.8,118.1,940.3,117.9,940.8z"/>
		<path class="st7" d="M100.6,941.7l-0.6,2.8l-1.8,8.4h-5.3l2.5-11.9c0.2-0.6,0.2-1.2,0.2-1.7c-0.1-1.8-1.2-2.8-3-2.8
			c-2.2,0-3.7,1.4-4.3,4.6l-0.7,3.6l-1.6,8.1h-5.3l1.7-8.7l3.9-20.8h-3.9l0.9-4.2h8.9l-3.3,17.2c1.3-2.1,3.7-4.1,6.2-4.1
			c3,0,5.7,2.1,5.9,6C101,939.3,100.9,940.4,100.6,941.7z"/>
		<path class="st7" d="M59.6,927.1c0,0.6-0.1,1.2-0.4,1.7c0,0.1-0.1,0.1-0.1,0.2c-0.6,0.8-1.5,1.3-2.6,1.3c-1.8,0-3.3-1.3-3.4-3.1
			c0-0.5,0.1-1.1,0.3-1.5c0,0,0,0,0,0c0.5-1,1.5-1.6,2.7-1.6C58,924,59.5,925.4,59.6,927.1z"/>
		<path class="st7" d="M73.8,936.5c-0.2-0.1-0.4-0.2-0.7-0.3c-0.7-0.2-1.5-0.4-2.3-0.4c-1.7,0-3.5,0.5-3.4,1.8
			c0.1,1.4,2.3,2.2,4.8,3.2c2.8,1.2,5.7,2.7,5.9,5.9c0.2,4.1-3,6.4-8.7,6.4c-3.4,0-6.3-1-7.9-2.5c-0.9-0.8-1.5-1.8-1.5-2.9
			c-0.1-1.8,1.1-2.9,2.6-2.9c1.4,0,2.7,1.2,2.7,2.5c0,0.4-0.1,0.9-0.2,1.1c0.2,0.1,0.4,0.3,0.7,0.4c1,0.4,2.2,0.6,3.5,0.6
			c1.9,0,3.7-0.6,3.7-1.9c-0.1-1.5-2.3-2.2-4.7-3.2c-2.8-1.1-5.8-2.5-6-5.9c0-1.1,0.2-2.1,0.8-3c1.2-1.9,3.7-3.3,7.6-3.3
			c1.3,0,2.5,0.2,3.6,0.5c1.4,0.4,2.6,1,3.4,1.8c0.8,0.8,1.3,1.8,1.4,2.8c0.1,1.7-1.1,2.8-2.6,2.8c-1.4,0-2.7-1.2-2.8-2.6
			C73.6,937.2,73.6,937,73.8,936.5z"/>
		<path class="st7" d="M58.8,933c0,0-1.3,6.8-2.3,12.5c-0.7,3.6-1.3,6.8-1.4,7.4h-5.6l3-15.6h-3.8l0.9-4.2H58.8z"/>
		<path class="st7" d="M43.7,940.3L43.7,940.3l2.6-13.3l1.6-8.2h-9L38,923h3.9l-0.6,3.4l-1.9,9.9c-1-2.1-3.2-4.3-6-4.3
			c-1.3,0-2.5,0.3-3.7,0.8c-2.1,1-3.8,2.7-5,4.9c0,0,0,0,0,0c-1.1,2.1-1.7,4.7-1.6,7.4c0.2,4.7,3.2,7.8,7.1,7.8c3.2,0,5.6-2,7.2-4.5
			l-0.9,4.4H45l0.9-4h-3.6l0.6-3.9L43.7,940.3z M32.5,948.6c-2.5,0-3.9-1.9-4-4.3c-0.2-4.1,2.4-7.9,5.9-7.9c2.8,0,4.2,1.7,4.3,4.3
			C38.9,945,35.9,948.6,32.5,948.6z"/>
	</g>
</g>
<g>
	<path d="M0,620.7h132.4l14.2-21.7l-0.1-0.1v0h-8.3l0.8-4.4c-1.6,2.5-4,4.5-7.2,4.5c-3.9,0-6.8-3.1-7.1-7.8
		c-0.1-2.5,0.4-4.9,1.4-6.9l-4,6.1c0,0,0,0,0,0c0,0,0,0.1,0,0.1h-14.3l0,0.3c0.1,2.3,2.1,4.2,6,4.2c2.1,0,4.2-0.5,6.8-1.8l-0.8,4.6
		c-2.1,1-3.9,1.4-7,1.4c-5.1,0-9.9-3.1-10.2-8.6c-0.1-2.4,0.4-4.7,1.4-6.6c0,0,0,0.1,0,0.1l-4.4,6.6l-1.7,8.3h-5.3l2.5-11.8
		c0.2-0.6,0.2-1.1,0.2-1.7c-0.1-1.7-1.2-2.8-3-2.8c-2.2,0-3.7,1.4-4.3,4.6l-0.7,3.6l-1.6,8.1h-5.3l1.6-8.7l3.9-20.7H82l0.9-4.2
		l-9,13.6c1.4,0.4,2.5,1,3.4,1.8c0.8,0.8,1.3,1.8,1.4,2.8c0.1,1.7-1.1,2.8-2.6,2.8c-1.4,0-2.7-1.2-2.8-2.6c0-0.4,0-0.6,0.2-1.1
		c-0.2-0.1-0.4-0.2-0.7-0.3c-0.7-0.2-1.5-0.4-2.3-0.4c-1.7,0-3.4,0.5-3.4,1.8c0.1,1.4,2.3,2.2,4.8,3.2c2.8,1.1,5.7,2.7,5.8,5.8
		c0.2,4-3,6.4-8.7,6.4c-3.4,0-6.3-1-7.9-2.5c-0.9-0.8-1.5-1.8-1.5-2.8c-0.1-1.7,1-2.8,2.6-2.8c1.4,0,2.7,1.1,2.7,2.5
		c0,0.4-0.1,0.9-0.2,1.1c0.2,0.1,0.4,0.3,0.7,0.4c1,0.4,2.2,0.6,3.5,0.6c1.9,0,3.7-0.6,3.7-1.9c-0.1-1.5-2.3-2.2-4.7-3.2
		c-2.8-1.1-5.8-2.5-5.9-5.9c0-1.1,0.2-2.1,0.8-3c0,0,0,0,0,0l-6.5,9.8c-0.7,3.6-1.3,6.8-1.4,7.3h-5.5l3-15.5h-3.7l0.9-4.2h6.6l2.7-4
		c-0.6,0.8-1.5,1.2-2.5,1.2c-1.8,0-3.3-1.3-3.4-3.1c0-0.5,0.1-1,0.3-1.5l-9.7,14.5l0,0l-0.9,4.6l-0.6,3.9h3.6l-0.9,4h-8.4l0.8-4.4
		c-1.6,2.5-4,4.5-7.2,4.5c-3.9,0-6.8-3.1-7.1-7.8c-0.1-2.7,0.5-5.2,1.6-7.4L0,620.7z"/>
	<path d="M47.6,565.1l-4.2,21.6l0.1-0.2l-0.9,4.6l-0.6,3.9h3.6l-0.9,4h-8.4l0.8-4.4c-1.6,2.5-4,4.5-7.2,4.5c-3.9,0-6.8-3.1-7.1-7.8
		c-0.1-2.7,0.5-5.2,1.6-7.4c0,0,0,0,0,0l0.1-0.1c0,0,1.2-1.8,1.9-2.6c0.9-0.9,1.8-1.6,2.9-2.1l0.1-0.2l9.2-13.9L47.6,565.1z"/>
	<path d="M58.4,579.4c-0.2,0.9-1.3,7.2-2.3,12.5l0.1-0.2c-0.7,3.6-1.3,6.8-1.4,7.3h-5.5l3-15.5h-3.8l0.9-4.2h6.6L58.4,579.4z"/>
	<path d="M59.3,573.4c0,0.5-0.2,1.4-0.2,1.4l-0.1,0.2c0,0.1-0.1,0.1-0.1,0.2c-0.6,0.8-1.5,1.2-2.5,1.2c-1.8,0-3.3-1.3-3.4-3.1
		c0-0.5,0.1-1,0.3-1.5c0,0,0,0,0,0v0.1l0-0.1l0.2-0.3c0.1-0.1,0.1-0.2,0.2-0.3c0.6-0.6,1.4-0.9,2.2-0.9
		C57.7,570.4,59.2,571.8,59.3,573.4z"/>
	<path d="M78.7,583.6c0.1,1.7-1.1,2.8-2.6,2.8c-1.4,0-2.7-1.2-2.8-2.6c0-0.4,0-0.6,0.2-1.1c-0.2-0.1-0.4-0.2-0.7-0.3
		c-0.7-0.2-1.5-0.4-2.3-0.4c-1.7,0-3.4,0.5-3.4,1.8c0.1,1.4,2.3,2.2,4.8,3.2c2.8,1.1,5.7,2.7,5.8,5.8c0.2,4-3,6.4-8.7,6.4
		c-3.4,0-6.3-1-7.9-2.5c-0.9-0.8-1.5-1.8-1.5-2.8c-0.1-1.7,1-2.9,2.6-2.9c1.4,0,2.7,1.1,2.7,2.5c0,0.4-0.1,0.9-0.2,1.1
		c0.2,0.1,0.4,0.3,0.7,0.4c1,0.4,2.2,0.6,3.5,0.6c1.9,0,3.7-0.6,3.7-1.9c-0.1-1.5-2.3-2.2-4.7-3.2c-2.8-1.1-5.8-2.5-5.9-5.9
		c0-1.1,0.2-2.1,0.8-3c0.1-0.1,0.5-0.6,0.8-0.9c1-1.1,3-2.3,6.7-2.3c1.3,0,2.5,0.2,3.6,0.5l0-0.1c1.4,0.4,2.5,1,3.4,1.8
		C78.1,581.6,78.6,582.6,78.7,583.6z"/>
	<path d="M100.5,584.5c0.1,1.1-0.1,2.2-0.4,3.3l-0.6,3l0.1-0.2l-1.7,8.3h-5.3l2.5-11.8c0.2-0.6,0.2-1.1,0.2-1.7
		c-0.1-1.7-1.2-2.8-3-2.8c-2.2,0-3.7,1.4-4.3,4.6l-0.7,3.6l-1.6,8.1h-5.3l1.6-8.7l3.9-20.7H82l0.9-4.2h0l8.8,0.1L88.4,583l0.2-0.4
		c1.8-3,4.4-4,6.1-4C98.5,578.6,100.3,581.6,100.5,584.5z"/>
	<path d="M122,590.4L122,590.4C122.1,590.4,122,590.5,122,590.4l-14.3,0.1l0,0.3c0.1,2.3,2.1,4.2,6,4.2c2.1,0,4.2-0.5,6.8-1.8
		l-0.8,4.6c-2.1,1-3.9,1.4-7,1.4c-5.1,0-9.9-3.1-10.2-8.6c-0.1-2.4,0.4-4.7,1.4-6.6c0,0,0,0,0,0c0.2-0.3,1.2-1.7,1.8-2.3
		c2-2.1,4.6-3.2,7.4-3.2c5.5,0,9,2.9,9.2,7.7C122.6,587.4,122,590.4,122,590.4z"/>
	<path d="M143.7,595h3.6l-0.8,3.8l0,0.1h-8.3l0.8-4.4c-1.6,2.5-4,4.5-7.2,4.5c-3.9,0-6.8-3.1-7.1-7.8c-0.1-2.5,0.4-4.9,1.4-6.9
		c0,0,0,0,0,0l0.1-0.1l0.1-0.2c0,0.1-0.1,0.1-0.1,0.2l0.1-0.1v0.1c0.5-1.1,1.2-2.1,2-3c0.9-0.9,1.8-1.6,2.9-2.1l0.1-0.2l9.2-13.9
		l8.8,0.1l-5,26L143.7,595z"/>
	<g>
		<g>
			<path class="st7" d="M147.9,573.2l1.6-8.2h-8.9l-0.9,4.2h3.8l-0.6,3.3l-1.9,9.9c-1-2.1-3.2-4.3-5.9-4.3c-1.3,0-2.5,0.3-3.7,0.8
				c-2.2,1-4,2.9-5.2,5.3c0,0,0,0,0,0c-1,2-1.5,4.4-1.4,6.9c0.2,4.7,3.2,7.8,7.1,7.8c3.2,0,5.6-2,7.2-4.5l-0.8,4.4h8.4l0.9-4h-3.6
				l0.6-3.9L147.9,573.2z M134.1,594.8c-2.5,0-3.8-1.9-4-4.3c-0.2-4.1,2.4-7.9,5.9-7.9c2.7,0,4.2,1.7,4.3,4.3
				C140.5,591.2,137.5,594.8,134.1,594.8z"/>
		</g>
		<path class="st7" d="M122.6,586.1c-0.2-5-4-7.8-9.3-7.8c-4,0-7.4,2.2-9.2,5.6c0,0,0,0,0,0c-1,1.9-1.6,4.1-1.4,6.6
			c0.3,5.6,5.1,8.6,10.2,8.6c3.1,0,4.9-0.4,7-1.4l0.8-4.6c-2.6,1.3-4.7,1.8-6.8,1.8c-3.9,0-5.9-2-6-4.2l0-0.3H122c0,0,0-0.1,0-0.1
			c0,0,0,0,0,0C122.5,588.8,122.6,587.4,122.6,586.1z M117.5,587h-9.3c0.9-2.8,2.8-4.5,5.4-4.5c2.5,0,3.9,1.1,4,3.1
			C117.6,586,117.6,586.5,117.5,587z"/>
		<path class="st7" d="M100.2,587.9l-0.6,2.8l-1.7,8.3h-5.3l2.5-11.8c0.2-0.6,0.2-1.1,0.2-1.7c-0.1-1.7-1.2-2.8-3-2.8
			c-2.2,0-3.7,1.4-4.3,4.6l-0.7,3.6l-1.6,8.1h-5.3l1.6-8.7l3.9-20.7H82l0.9-4.2h8.9l-3.3,17.2c1.3-2.1,3.6-4,6.2-4
			c3,0,5.6,2.1,5.8,6C100.6,585.5,100.5,586.7,100.2,587.9z"/>
		<path class="st7" d="M59.3,573.4c0,0.6-0.1,1.2-0.4,1.7c0,0.1-0.1,0.1-0.1,0.2c-0.6,0.8-1.5,1.2-2.5,1.2c-1.8,0-3.3-1.3-3.4-3.1
			c0-0.5,0.1-1,0.3-1.5c0,0,0,0,0,0c0.5-1,1.5-1.6,2.7-1.6C57.7,570.3,59.3,571.7,59.3,573.4z"/>
		<path class="st7" d="M73.5,582.7c-0.2-0.1-0.4-0.2-0.7-0.3c-0.7-0.2-1.5-0.4-2.3-0.4c-1.7,0-3.4,0.5-3.4,1.8
			c0.1,1.4,2.3,2.2,4.8,3.2c2.8,1.1,5.7,2.7,5.8,5.8c0.2,4-3,6.4-8.7,6.4c-3.4,0-6.3-1-7.9-2.5c-0.9-0.8-1.5-1.8-1.5-2.8
			c-0.1-1.7,1-2.9,2.6-2.9c1.4,0,2.7,1.1,2.7,2.5c0,0.4-0.1,0.9-0.2,1.1c0.2,0.1,0.4,0.3,0.7,0.4c1,0.4,2.2,0.6,3.5,0.6
			c1.9,0,3.7-0.6,3.7-1.9c-0.1-1.5-2.3-2.2-4.7-3.2c-2.8-1.1-5.8-2.5-5.9-5.9c0-1.1,0.2-2.1,0.8-3c1.2-1.9,3.6-3.3,7.5-3.3
			c1.3,0,2.5,0.2,3.6,0.5c1.4,0.4,2.5,1,3.4,1.8c0.8,0.8,1.3,1.8,1.4,2.8c0.1,1.7-1.1,2.8-2.6,2.8c-1.4,0-2.7-1.2-2.8-2.6
			C73.3,583.5,73.3,583.3,73.5,582.7z"/>
		<path class="st7" d="M58.5,579.3c0,0-1.3,6.8-2.3,12.4c-0.7,3.6-1.3,6.8-1.4,7.3h-5.5l3-15.5h-3.8l0.9-4.2H58.5z"/>
		<path class="st7" d="M43.6,586.5L43.6,586.5l2.6-13.3l1.6-8.2h-8.9l-0.9,4.2h3.8l-0.6,3.3l-1.9,9.9c-1-2.1-3.1-4.3-5.9-4.3
			c-1.3,0-2.5,0.3-3.7,0.8c-2.1,1-3.8,2.7-4.9,4.9c0,0,0,0,0,0c-1.1,2.1-1.7,4.7-1.6,7.4c0.2,4.7,3.2,7.8,7.1,7.8
			c3.2,0,5.6-2,7.2-4.5l-0.8,4.4h8.4l0.9-4h-3.6l0.6-3.9L43.6,586.5z M32.3,594.8c-2.5,0-3.8-1.9-4-4.3c-0.2-4.1,2.4-7.9,5.9-7.9
			c2.7,0,4.2,1.7,4.3,4.3C38.7,591.2,35.8,594.8,32.3,594.8z"/>
	</g>
</g>
<g>
	<path d="M0,686h132.4l14.2-21.7l-0.1-0.1v0h-8.3l0.8-4.4c-1.6,2.5-4,4.5-7.2,4.5c-3.9,0-6.8-3.1-7.1-7.8c-0.1-2.5,0.4-4.9,1.4-6.9
		l-4,6.1c0,0,0,0,0,0c0,0,0,0.1,0,0.1h-14.3l0,0.3c0.1,2.3,2.1,4.2,6,4.2c2.1,0,4.2-0.5,6.8-1.8l-0.8,4.6c-2.1,1-3.9,1.4-7,1.4
		c-5.1,0-9.9-3.1-10.2-8.6c-0.1-2.4,0.4-4.7,1.4-6.6c0,0,0,0.1,0,0.1l-4.4,6.6l-1.7,8.3h-5.3l2.5-11.8c0.2-0.6,0.2-1.1,0.2-1.7
		c-0.1-1.7-1.2-2.8-3-2.8c-2.2,0-3.7,1.4-4.3,4.6l-0.7,3.6l-1.6,8.1h-5.3l1.6-8.7l3.9-20.7H82l0.9-4.2l-9,13.6
		c1.4,0.4,2.5,1,3.4,1.8c0.8,0.8,1.3,1.8,1.4,2.8c0.1,1.7-1.1,2.8-2.6,2.8c-1.4,0-2.7-1.2-2.8-2.6c0-0.4,0-0.6,0.2-1.1
		c-0.2-0.1-0.4-0.2-0.7-0.3c-0.7-0.2-1.5-0.4-2.3-0.4c-1.7,0-3.4,0.5-3.4,1.8c0.1,1.4,2.3,2.2,4.8,3.2c2.8,1.1,5.7,2.7,5.8,5.8
		c0.2,4-3,6.4-8.7,6.4c-3.4,0-6.3-1-7.9-2.5c-0.9-0.8-1.5-1.8-1.5-2.8c-0.1-1.7,1-2.8,2.6-2.8c1.4,0,2.7,1.1,2.7,2.5
		c0,0.4-0.1,0.9-0.2,1.1c0.2,0.1,0.4,0.3,0.7,0.4c1,0.4,2.2,0.6,3.5,0.6c1.9,0,3.7-0.6,3.7-1.9c-0.1-1.5-2.3-2.2-4.7-3.2
		c-2.8-1.1-5.8-2.5-5.9-5.9c0-1.1,0.2-2.1,0.8-3c0,0,0,0,0,0l-6.5,9.8c-0.7,3.6-1.3,6.8-1.4,7.3h-5.5l3-15.5h-3.7l0.9-4.2h6.6l2.7-4
		c-0.6,0.8-1.5,1.2-2.5,1.2c-1.8,0-3.3-1.3-3.4-3.1c0-0.5,0.1-1,0.3-1.5l-9.7,14.5l0,0l-0.9,4.6l-0.6,3.9h3.6l-0.9,4h-8.4l0.8-4.4
		c-1.6,2.5-4,4.5-7.2,4.5c-3.9,0-6.8-3.1-7.1-7.8c-0.1-2.7,0.5-5.2,1.6-7.4L0,686z"/>
	<path d="M47.6,630.5L43.4,652l0.1-0.2l-0.9,4.6l-0.6,3.9h3.6l-0.9,4h-8.4l0.8-4.4c-1.6,2.5-4,4.5-7.2,4.5c-3.9,0-6.8-3.1-7.1-7.8
		c-0.1-2.7,0.5-5.2,1.6-7.4c0,0,0,0,0,0l0.1-0.1c0,0,1.2-1.8,1.9-2.6c0.9-0.9,1.8-1.6,2.9-2.1l0.1-0.2l9.2-13.9L47.6,630.5z"/>
	<path d="M58.4,644.8c-0.2,0.9-1.3,7.2-2.3,12.5l0.1-0.2c-0.7,3.6-1.3,6.8-1.4,7.3h-5.5l3-15.5h-3.8l0.9-4.2h6.6L58.4,644.8z"/>
	<path d="M59.3,638.8c0,0.5-0.2,1.4-0.2,1.4l-0.1,0.2c0,0.1-0.1,0.1-0.1,0.2c-0.6,0.8-1.5,1.2-2.5,1.2c-1.8,0-3.3-1.3-3.4-3.1
		c0-0.5,0.1-1,0.3-1.5c0,0,0,0,0,0v0.1l0-0.1l0.2-0.3c0.1-0.1,0.1-0.2,0.2-0.3c0.6-0.6,1.4-0.9,2.2-0.9
		C57.7,635.8,59.2,637.1,59.3,638.8z"/>
	<path d="M78.7,649c0.1,1.7-1.1,2.8-2.6,2.8c-1.4,0-2.7-1.2-2.8-2.6c0-0.4,0-0.6,0.2-1.1c-0.2-0.1-0.4-0.2-0.7-0.3
		c-0.7-0.2-1.5-0.4-2.3-0.4c-1.7,0-3.4,0.5-3.4,1.8c0.1,1.4,2.3,2.2,4.8,3.2c2.8,1.1,5.7,2.7,5.8,5.8c0.2,4-3,6.4-8.7,6.4
		c-3.4,0-6.3-1-7.9-2.5c-0.9-0.8-1.5-1.8-1.5-2.8c-0.1-1.7,1-2.9,2.6-2.9c1.4,0,2.7,1.1,2.7,2.5c0,0.4-0.1,0.9-0.2,1.1
		c0.2,0.1,0.4,0.3,0.7,0.4c1,0.4,2.2,0.6,3.5,0.6c1.9,0,3.7-0.6,3.7-1.9c-0.1-1.5-2.3-2.2-4.7-3.2c-2.8-1.1-5.8-2.5-5.9-5.9
		c0-1.1,0.2-2.1,0.8-3c0.1-0.1,0.5-0.6,0.8-0.9c1-1.1,3-2.3,6.7-2.3c1.3,0,2.5,0.2,3.6,0.5l0-0.1c1.4,0.4,2.5,1,3.4,1.8
		C78.1,647,78.6,648,78.7,649z"/>
	<path d="M100.5,649.9c0.1,1.1-0.1,2.2-0.4,3.3l-0.6,3l0.1-0.2l-1.7,8.3h-5.3l2.5-11.8c0.2-0.6,0.2-1.1,0.2-1.7
		c-0.1-1.7-1.2-2.8-3-2.8c-2.2,0-3.7,1.4-4.3,4.6l-0.7,3.6l-1.6,8.1h-5.3l1.6-8.7l3.9-20.7H82l0.9-4.2h0l8.8,0.1l-3.3,17.5l0.2-0.4
		c1.8-3,4.4-4,6.1-4C98.5,644,100.3,647,100.5,649.9z"/>
	<path d="M122,655.8L122,655.8C122.1,655.8,122,655.8,122,655.8l-14.3,0.1l0,0.3c0.1,2.3,2.1,4.2,6,4.2c2.1,0,4.2-0.5,6.8-1.8
		l-0.8,4.6c-2.1,1-3.9,1.4-7,1.4c-5.1,0-9.9-3.1-10.2-8.6c-0.1-2.4,0.4-4.7,1.4-6.6c0,0,0,0,0,0c0.2-0.3,1.2-1.7,1.8-2.3
		c2-2.1,4.6-3.2,7.4-3.2c5.5,0,9,2.9,9.2,7.7C122.6,652.8,122,655.8,122,655.8z"/>
	<path d="M143.7,660.4h3.6l-0.8,3.8l0,0.1h-8.3l0.8-4.4c-1.6,2.5-4,4.5-7.2,4.5c-3.9,0-6.8-3.1-7.1-7.8c-0.1-2.5,0.4-4.9,1.4-6.9
		c0,0,0,0,0,0l0.1-0.1l0.1-0.2c0,0.1-0.1,0.1-0.1,0.2l0.1-0.1v0.1c0.5-1.1,1.2-2.1,2-3c0.9-0.9,1.8-1.6,2.9-2.1l0.1-0.2l9.2-13.9
		l8.8,0.1l-5,26L143.7,660.4z"/>
	<g>
		<g>
			<path class="st3" d="M147.9,638.6l1.6-8.2h-8.9l-0.9,4.2h3.8l-0.6,3.3l-1.9,9.9c-1-2.1-3.2-4.3-5.9-4.3c-1.3,0-2.5,0.3-3.7,0.8
				c-2.2,1-4,2.9-5.2,5.3c0,0,0,0,0,0c-1,2-1.5,4.4-1.4,6.9c0.2,4.7,3.2,7.8,7.1,7.8c3.2,0,5.6-2,7.2-4.5l-0.8,4.4h8.4l0.9-4h-3.6
				l0.6-3.9L147.9,638.6z M134.1,660.1c-2.5,0-3.8-1.9-4-4.3c-0.2-4.1,2.4-7.9,5.9-7.9c2.7,0,4.2,1.7,4.3,4.3
				C140.5,656.6,137.5,660.1,134.1,660.1z"/>
		</g>
		<path class="st3" d="M122.6,651.5c-0.2-5-4-7.8-9.3-7.8c-4,0-7.4,2.2-9.2,5.6c0,0,0,0,0,0c-1,1.9-1.6,4.1-1.4,6.6
			c0.3,5.6,5.1,8.6,10.2,8.6c3.1,0,4.9-0.4,7-1.4l0.8-4.6c-2.6,1.3-4.7,1.8-6.8,1.8c-3.9,0-5.9-2-6-4.2l0-0.3H122c0,0,0-0.1,0-0.1
			c0,0,0,0,0,0C122.5,654.2,122.6,652.8,122.6,651.5z M117.5,652.4h-9.3c0.9-2.8,2.8-4.5,5.4-4.5c2.5,0,3.9,1.1,4,3.1
			C117.6,651.4,117.6,651.9,117.5,652.4z"/>
		<path class="st3" d="M100.2,653.3l-0.6,2.8l-1.7,8.3h-5.3l2.5-11.8c0.2-0.6,0.2-1.1,0.2-1.7c-0.1-1.7-1.2-2.8-3-2.8
			c-2.2,0-3.7,1.4-4.3,4.6l-0.7,3.6l-1.6,8.1h-5.3l1.6-8.7l3.9-20.7H82l0.9-4.2h8.9l-3.3,17.2c1.3-2.1,3.6-4,6.2-4
			c3,0,5.6,2.1,5.8,6C100.6,650.9,100.5,652,100.2,653.3z"/>
		<path class="st3" d="M59.3,638.8c0,0.6-0.1,1.2-0.4,1.7c0,0.1-0.1,0.1-0.1,0.2c-0.6,0.8-1.5,1.2-2.5,1.2c-1.8,0-3.3-1.3-3.4-3.1
			c0-0.5,0.1-1,0.3-1.5c0,0,0,0,0,0c0.5-1,1.5-1.6,2.7-1.6C57.7,635.7,59.3,637,59.3,638.8z"/>
		<path class="st3" d="M73.5,648.1c-0.2-0.1-0.4-0.2-0.7-0.3c-0.7-0.2-1.5-0.4-2.3-0.4c-1.7,0-3.4,0.5-3.4,1.8
			c0.1,1.4,2.3,2.2,4.8,3.2c2.8,1.1,5.7,2.7,5.8,5.8c0.2,4-3,6.4-8.7,6.4c-3.4,0-6.3-1-7.9-2.5c-0.9-0.8-1.5-1.8-1.5-2.8
			c-0.1-1.7,1-2.9,2.6-2.9c1.4,0,2.7,1.1,2.7,2.5c0,0.4-0.1,0.9-0.2,1.1c0.2,0.1,0.4,0.3,0.7,0.4c1,0.4,2.2,0.6,3.5,0.6
			c1.9,0,3.7-0.6,3.7-1.9c-0.1-1.5-2.3-2.2-4.7-3.2c-2.8-1.1-5.8-2.5-5.9-5.9c0-1.1,0.2-2.1,0.8-3c1.2-1.9,3.6-3.3,7.5-3.3
			c1.3,0,2.5,0.2,3.6,0.5c1.4,0.4,2.5,1,3.4,1.8c0.8,0.8,1.3,1.8,1.4,2.8c0.1,1.7-1.1,2.8-2.6,2.8c-1.4,0-2.7-1.2-2.8-2.6
			C73.3,648.8,73.3,648.7,73.5,648.1z"/>
		<path class="st3" d="M58.5,644.7c0,0-1.3,6.8-2.3,12.4c-0.7,3.6-1.3,6.8-1.4,7.3h-5.5l3-15.5h-3.8l0.9-4.2H58.5z"/>
		<path class="st3" d="M43.6,651.9L43.6,651.9l2.6-13.3l1.6-8.2h-8.9l-0.9,4.2h3.8L41,638l-1.9,9.9c-1-2.1-3.1-4.3-5.9-4.3
			c-1.3,0-2.5,0.3-3.7,0.8c-2.1,1-3.8,2.7-4.9,4.9c0,0,0,0,0,0c-1.1,2.1-1.7,4.7-1.6,7.4c0.2,4.7,3.2,7.8,7.1,7.8
			c3.2,0,5.6-2,7.2-4.5l-0.8,4.4h8.4l0.9-4h-3.6l0.6-3.9L43.6,651.9z M32.3,660.1c-2.5,0-3.8-1.9-4-4.3c-0.2-4.1,2.4-7.9,5.9-7.9
			c2.7,0,4.2,1.7,4.3,4.3C38.7,656.6,35.8,660.1,32.3,660.1z"/>
	</g>
</g>
<g>
	<path d="M35.5,995.6c-0.2,0.9-1.3,7.2-2.3,12.5l0.1-0.2c-0.7,3.6-1.3,6.8-1.4,7.3h-5.5l3-15.5h-3.8l0.9-4.2h6.6L35.5,995.6z"/>
	<path d="M36.3,989.6c0,0.5-0.2,1.4-0.2,1.4l-0.1,0.2c0,0.1-0.1,0.1-0.1,0.2c-0.6,0.8-1.5,1.2-2.5,1.2c-1.8,0-3.3-1.3-3.4-3.1
		c0-0.5,0.1-1,0.3-1.5c0,0,0,0,0,0v0.1l0-0.1l0.2-0.3c0.1-0.1,0.1-0.2,0.2-0.3c0.6-0.6,1.4-0.9,2.2-0.9
		C34.7,986.6,36.2,988,36.3,989.6z"/>
	<path d="M55.7,999.8c0.1,1.7-1.1,2.8-2.6,2.8c-1.4,0-2.7-1.2-2.8-2.6c0-0.4,0-0.6,0.2-1.1c-0.2-0.1-0.4-0.2-0.7-0.3
		c-0.7-0.2-1.5-0.4-2.3-0.4c-1.7,0-3.4,0.5-3.4,1.8c0.1,1.4,2.3,2.2,4.8,3.2c2.8,1.1,5.7,2.7,5.8,5.8c0.2,4-3,6.4-8.7,6.4
		c-3.4,0-6.3-1-7.9-2.5c-0.9-0.8-1.5-1.8-1.5-2.8c-0.1-1.7,1-2.9,2.6-2.9c1.4,0,2.7,1.1,2.7,2.5c0,0.4-0.1,0.9-0.2,1.1
		c0.2,0.1,0.4,0.3,0.7,0.4c1,0.4,2.2,0.6,3.5,0.6c1.9,0,3.7-0.6,3.7-1.9c-0.1-1.5-2.3-2.2-4.7-3.2c-2.8-1.1-5.8-2.5-5.9-5.9
		c0-1.1,0.2-2.1,0.8-3c0.1-0.1,0.5-0.6,0.8-0.9c1-1.1,3-2.3,6.7-2.3c1.3,0,2.5,0.2,3.6,0.5l0-0.1c1.4,0.4,2.5,1,3.4,1.8
		C55.2,997.9,55.6,998.8,55.7,999.8z"/>
	<path d="M77.5,1000.8c0.1,1.1-0.1,2.2-0.4,3.3l-0.6,3l0.1-0.2l-1.7,8.3h-5.3l2.5-11.8c0.2-0.6,0.2-1.1,0.2-1.7
		c-0.1-1.7-1.2-2.8-3-2.8c-2.2,0-3.7,1.4-4.3,4.6l-0.7,3.6l-1.6,8.1h-5.3l1.6-8.7l3.9-20.7H59l0.9-4.2h0l8.8,0.1l-3.3,17.5l0.2-0.4
		c1.8-3,4.4-4,6.1-4C75.5,994.8,77.4,997.8,77.5,1000.8z"/>
	<g>
		<g>
			<path d="M124.9,989.4l1.6-8.2h-8.9l-0.9,4.2h3.8l-0.6,3.3l-1.9,9.9c-1-2.1-3.2-4.3-5.9-4.3c-1.3,0-2.5,0.3-3.7,0.8
				c-2.2,1-4,2.9-5.2,5.3c0,0,0,0,0,0c-1,2-1.5,4.4-1.4,6.9c0.2,4.7,3.2,7.8,7.1,7.8c3.2,0,5.6-2,7.2-4.5l-0.8,4.4h8.4l0.9-4h-3.6
				l0.6-3.9L124.9,989.4z M111.1,1011c-2.5,0-3.8-1.9-4-4.3c-0.2-4.1,2.4-7.9,5.9-7.9c2.7,0,4.2,1.7,4.3,4.3
				C117.5,1007.4,114.6,1011,111.1,1011z"/>
		</g>
		<path d="M99.6,1002.4c-0.2-5-4-7.8-9.3-7.8c-4,0-7.4,2.2-9.2,5.6c0,0,0,0,0,0c-1,1.9-1.6,4.1-1.4,6.6c0.3,5.6,5.1,8.6,10.2,8.6
			c3.1,0,4.9-0.4,7-1.4l0.8-4.6c-2.6,1.3-4.7,1.8-6.8,1.8c-3.9,0-5.9-2-6-4.2l0-0.3h14.3c0,0,0-0.1,0-0.1c0,0,0,0,0,0
			C99.5,1005.1,99.7,1003.6,99.6,1002.4z M94.5,1003.2h-9.3c0.9-2.8,2.8-4.5,5.4-4.5c2.5,0,3.9,1.1,4,3.1
			C94.6,1002.3,94.6,1002.7,94.5,1003.2z"/>
		<path d="M77.2,1004.1l-0.6,2.8l-1.7,8.3h-5.3l2.5-11.8c0.2-0.6,0.2-1.1,0.2-1.7c-0.1-1.7-1.2-2.8-3-2.8c-2.2,0-3.7,1.4-4.3,4.6
			l-0.7,3.6l-1.6,8.1h-5.3l1.6-8.7l3.9-20.7H59l0.9-4.2h8.9l-3.3,17.2c1.3-2.1,3.6-4,6.2-4c3,0,5.6,2.1,5.8,6
			C77.6,1001.8,77.5,1002.9,77.2,1004.1z"/>
		<path d="M36.4,989.6c0,0.6-0.1,1.2-0.4,1.7c0,0.1-0.1,0.1-0.1,0.2c-0.6,0.8-1.5,1.2-2.5,1.2c-1.8,0-3.3-1.3-3.4-3.1
			c0-0.5,0.1-1,0.3-1.5c0,0,0,0,0,0c0.5-1,1.5-1.6,2.7-1.6C34.8,986.6,36.3,987.9,36.4,989.6z"/>
		<path d="M50.6,999c-0.2-0.1-0.4-0.2-0.7-0.3c-0.7-0.2-1.5-0.4-2.3-0.4c-1.7,0-3.4,0.5-3.4,1.8c0.1,1.4,2.3,2.2,4.8,3.2
			c2.8,1.1,5.7,2.7,5.8,5.8c0.2,4-3,6.4-8.7,6.4c-3.4,0-6.3-1-7.9-2.5c-0.9-0.8-1.5-1.8-1.5-2.8c-0.1-1.7,1-2.9,2.6-2.9
			c1.4,0,2.7,1.1,2.7,2.5c0,0.4-0.1,0.9-0.2,1.1c0.2,0.1,0.4,0.3,0.7,0.4c1,0.4,2.2,0.6,3.5,0.6c1.9,0,3.7-0.6,3.7-1.9
			c-0.1-1.5-2.3-2.2-4.7-3.2c-2.8-1.1-5.8-2.5-5.9-5.9c0-1.1,0.2-2.1,0.8-3c1.2-1.9,3.6-3.3,7.5-3.3c1.3,0,2.5,0.2,3.6,0.5
			c1.4,0.4,2.5,1,3.4,1.8c0.8,0.8,1.3,1.8,1.4,2.8c0.1,1.7-1.1,2.8-2.6,2.8c-1.4,0-2.7-1.2-2.8-2.6C50.3,999.7,50.4,999.5,50.6,999z
			"/>
		<path d="M35.6,995.5c0,0-1.3,6.8-2.3,12.4c-0.7,3.6-1.3,6.8-1.4,7.3h-5.5l3-15.5h-3.8l0.9-4.2H35.6z"/>
		<path d="M20.6,1002.7L20.6,1002.7l2.6-13.3l1.6-8.2h-8.9l-0.9,4.2h3.8l-0.6,3.3l-1.9,9.9c-1-2.1-3.1-4.3-5.9-4.3
			c-1.3,0-2.5,0.3-3.7,0.8c-2.1,1-3.8,2.7-4.9,4.9c0,0,0,0,0,0c-1.1,2.1-1.7,4.7-1.6,7.4c0.2,4.7,3.2,7.8,7.1,7.8
			c3.2,0,5.6-2,7.2-4.5l-0.8,4.4h8.4l0.9-4h-3.6l0.6-3.9L20.6,1002.7z M9.3,1011c-2.5,0-3.8-1.9-4-4.3c-0.2-4.1,2.4-7.9,5.9-7.9
			c2.7,0,4.2,1.7,4.3,4.3C15.8,1007.4,12.8,1011,9.3,1011z"/>
	</g>
</g>
<g>
	<path class="st3" d="M35.5,1037.2c-0.2,0.9-1.3,7.2-2.3,12.5l0.1-0.2c-0.7,3.6-1.3,6.8-1.4,7.3h-5.5l3-15.5h-3.8l0.9-4.2h6.6
		L35.5,1037.2z"/>
	<path class="st3" d="M36.3,1031.3c0,0.5-0.2,1.4-0.2,1.4l-0.1,0.2c0,0.1-0.1,0.1-0.1,0.2c-0.6,0.8-1.5,1.2-2.5,1.2
		c-1.8,0-3.3-1.3-3.4-3.1c0-0.5,0.1-1,0.3-1.5c0,0,0,0,0,0v0.1l0-0.1l0.2-0.3c0.1-0.1,0.1-0.2,0.2-0.3c0.6-0.6,1.4-0.9,2.2-0.9
		C34.7,1028.3,36.2,1029.6,36.3,1031.3z"/>
	<path class="st3" d="M55.7,1041.4c0.1,1.7-1.1,2.8-2.6,2.8c-1.4,0-2.7-1.2-2.8-2.6c0-0.4,0-0.6,0.2-1.1c-0.2-0.1-0.4-0.2-0.7-0.3
		c-0.7-0.2-1.5-0.4-2.3-0.4c-1.7,0-3.4,0.5-3.4,1.8c0.1,1.4,2.3,2.2,4.8,3.2c2.8,1.1,5.7,2.7,5.8,5.8c0.2,4-3,6.4-8.7,6.4
		c-3.4,0-6.3-1-7.9-2.5c-0.9-0.8-1.5-1.8-1.5-2.8c-0.1-1.7,1-2.8,2.6-2.8c1.4,0,2.7,1.1,2.7,2.5c0,0.4-0.1,0.9-0.2,1.1
		c0.2,0.1,0.4,0.3,0.7,0.4c1,0.4,2.2,0.6,3.5,0.6c1.9,0,3.7-0.6,3.7-1.9c-0.1-1.5-2.3-2.2-4.7-3.2c-2.8-1.1-5.8-2.5-5.9-5.9
		c0-1.1,0.2-2.1,0.8-3c0.1-0.1,0.5-0.6,0.8-0.9c1-1.1,3-2.3,6.7-2.3c1.3,0,2.5,0.2,3.6,0.5l0-0.1c1.4,0.4,2.5,1,3.4,1.8
		C55.2,1039.5,55.6,1040.4,55.7,1041.4z"/>
	<path class="st3" d="M77.5,1042.4c0.1,1.1-0.1,2.2-0.4,3.3l-0.6,3l0.1-0.2l-1.7,8.3h-5.3l2.5-11.8c0.2-0.6,0.2-1.1,0.2-1.7
		c-0.1-1.7-1.2-2.8-3-2.8c-2.2,0-3.7,1.4-4.3,4.6l-0.7,3.6l-1.6,8.1h-5.3l1.6-8.7l3.9-20.7H59l0.9-4.2h0l8.8,0.1l-3.3,17.5l0.2-0.4
		c1.8-3,4.4-4,6.1-4C75.5,1036.4,77.4,1039.4,77.5,1042.4z"/>
	<g>
		<g>
			<path class="st3" d="M124.9,1031.1l1.6-8.2h-8.9l-0.9,4.2h3.8l-0.6,3.3l-1.9,9.9c-1-2.1-3.2-4.3-5.9-4.3c-1.3,0-2.5,0.3-3.7,0.8
				c-2.2,1-4,2.9-5.2,5.3c0,0,0,0,0,0c-1,2-1.5,4.4-1.4,6.9c0.2,4.7,3.2,7.8,7.1,7.8c3.2,0,5.6-2,7.2-4.5l-0.8,4.4h8.4l0.9-4h-3.6
				l0.6-3.9L124.9,1031.1z M111.1,1052.6c-2.5,0-3.8-1.9-4-4.3c-0.2-4.1,2.4-7.9,5.9-7.9c2.7,0,4.2,1.7,4.3,4.3
				C117.5,1049.1,114.6,1052.6,111.1,1052.6z"/>
		</g>
		<path class="st3" d="M99.6,1044c-0.2-5-4-7.8-9.3-7.8c-4,0-7.4,2.2-9.2,5.6c0,0,0,0,0,0c-1,1.9-1.6,4.1-1.4,6.6
			c0.3,5.6,5.1,8.6,10.2,8.6c3.1,0,4.9-0.4,7-1.4l0.8-4.6c-2.6,1.3-4.7,1.8-6.8,1.8c-3.9,0-5.9-2-6-4.2l0-0.3h14.3c0,0,0-0.1,0-0.1
			c0,0,0,0,0,0C99.5,1046.7,99.7,1045.2,99.6,1044z M94.5,1044.8h-9.3c0.9-2.8,2.8-4.5,5.4-4.5c2.5,0,3.9,1.1,4,3.1
			C94.6,1043.9,94.6,1044.3,94.5,1044.8z"/>
		<path class="st3" d="M77.2,1045.7l-0.6,2.8l-1.7,8.3h-5.3l2.5-11.8c0.2-0.6,0.2-1.1,0.2-1.7c-0.1-1.7-1.2-2.8-3-2.8
			c-2.2,0-3.7,1.4-4.3,4.6l-0.7,3.6l-1.6,8.1h-5.3l1.6-8.7l3.9-20.7H59l0.9-4.2h8.9l-3.3,17.2c1.3-2.1,3.6-4,6.2-4
			c3,0,5.6,2.1,5.8,6C77.6,1043.4,77.5,1044.5,77.2,1045.7z"/>
		<path class="st3" d="M36.4,1031.2c0,0.6-0.1,1.2-0.4,1.7c0,0.1-0.1,0.1-0.1,0.2c-0.6,0.8-1.5,1.2-2.5,1.2c-1.8,0-3.3-1.3-3.4-3.1
			c0-0.5,0.1-1,0.3-1.5c0,0,0,0,0,0c0.5-1,1.5-1.6,2.7-1.6C34.8,1028.2,36.3,1029.5,36.4,1031.2z"/>
		<path class="st3" d="M50.6,1040.6c-0.2-0.1-0.4-0.2-0.7-0.3c-0.7-0.2-1.5-0.4-2.3-0.4c-1.7,0-3.4,0.5-3.4,1.8
			c0.1,1.4,2.3,2.2,4.8,3.2c2.8,1.1,5.7,2.7,5.8,5.8c0.2,4-3,6.4-8.7,6.4c-3.4,0-6.3-1-7.9-2.5c-0.9-0.8-1.5-1.8-1.5-2.8
			c-0.1-1.7,1-2.8,2.6-2.8c1.4,0,2.7,1.1,2.7,2.5c0,0.4-0.1,0.9-0.2,1.1c0.2,0.1,0.4,0.3,0.7,0.4c1,0.4,2.2,0.6,3.5,0.6
			c1.9,0,3.7-0.6,3.7-1.9c-0.1-1.5-2.3-2.2-4.7-3.2c-2.8-1.1-5.8-2.5-5.9-5.9c0-1.1,0.2-2.1,0.8-3c1.2-1.9,3.6-3.3,7.5-3.3
			c1.3,0,2.5,0.2,3.6,0.5c1.4,0.4,2.5,1,3.4,1.8c0.8,0.8,1.3,1.8,1.4,2.8c0.1,1.7-1.1,2.8-2.6,2.8c-1.4,0-2.7-1.2-2.8-2.6
			C50.3,1041.3,50.4,1041.1,50.6,1040.6z"/>
		<path class="st3" d="M35.6,1037.1c0,0-1.3,6.8-2.3,12.4c-0.7,3.6-1.3,6.8-1.4,7.3h-5.5l3-15.5h-3.8l0.9-4.2H35.6z"/>
		<path class="st3" d="M20.6,1044.3L20.6,1044.3l2.6-13.3l1.6-8.2h-8.9l-0.9,4.2h3.8l-0.6,3.3l-1.9,9.9c-1-2.1-3.1-4.3-5.9-4.3
			c-1.3,0-2.5,0.3-3.7,0.8c-2.1,1-3.8,2.7-4.9,4.9c0,0,0,0,0,0c-1.1,2.1-1.7,4.7-1.6,7.4c0.2,4.7,3.2,7.8,7.1,7.8
			c3.2,0,5.6-2,7.2-4.5l-0.8,4.4h8.4l0.9-4h-3.6l0.6-3.9L20.6,1044.3z M9.3,1052.6c-2.5,0-3.8-1.9-4-4.3c-0.2-4.1,2.4-7.9,5.9-7.9
			c2.7,0,4.2,1.7,4.3,4.3C15.8,1049.1,12.8,1052.6,9.3,1052.6z"/>
	</g>
</g>
<g>
	<path class="st7" d="M35.5,1076.8c-0.2,0.9-1.3,7.2-2.3,12.5l0.1-0.2c-0.7,3.6-1.3,6.8-1.4,7.3h-5.5l3-15.5h-3.8l0.9-4.2h6.6
		L35.5,1076.8z"/>
	<path class="st7" d="M36.3,1070.9c0,0.5-0.2,1.4-0.2,1.4l-0.1,0.2c0,0.1-0.1,0.1-0.1,0.2c-0.6,0.8-1.5,1.2-2.5,1.2
		c-1.8,0-3.3-1.3-3.4-3.1c0-0.5,0.1-1,0.3-1.5c0,0,0,0,0,0v0.1l0-0.1l0.2-0.3c0.1-0.1,0.1-0.2,0.2-0.3c0.6-0.6,1.4-0.9,2.2-0.9
		C34.7,1067.9,36.2,1069.2,36.3,1070.9z"/>
	<path class="st7" d="M55.7,1081c0.1,1.7-1.1,2.8-2.6,2.8c-1.4,0-2.7-1.2-2.8-2.6c0-0.4,0-0.6,0.2-1.1c-0.2-0.1-0.4-0.2-0.7-0.3
		c-0.7-0.2-1.5-0.4-2.3-0.4c-1.7,0-3.4,0.5-3.4,1.8c0.1,1.4,2.3,2.2,4.8,3.2c2.8,1.1,5.7,2.7,5.8,5.8c0.2,4-3,6.4-8.7,6.4
		c-3.4,0-6.3-1-7.9-2.5c-0.9-0.8-1.5-1.8-1.5-2.8c-0.1-1.7,1-2.8,2.6-2.8c1.4,0,2.7,1.1,2.7,2.5c0,0.4-0.1,0.9-0.2,1.1
		c0.2,0.1,0.4,0.3,0.7,0.4c1,0.4,2.2,0.6,3.5,0.6c1.9,0,3.7-0.6,3.7-1.9c-0.1-1.5-2.3-2.2-4.7-3.2c-2.8-1.1-5.8-2.5-5.9-5.9
		c0-1.1,0.2-2.1,0.8-3c0.1-0.1,0.5-0.6,0.8-0.9c1-1.1,3-2.3,6.7-2.3c1.3,0,2.5,0.2,3.6,0.5l0-0.1c1.4,0.4,2.5,1,3.4,1.8
		C55.2,1079.1,55.6,1080,55.7,1081z"/>
	<path class="st7" d="M77.5,1082c0.1,1.1-0.1,2.2-0.4,3.3l-0.6,3l0.1-0.2l-1.7,8.3h-5.3l2.5-11.8c0.2-0.6,0.2-1.1,0.2-1.7
		c-0.1-1.7-1.2-2.8-3-2.8c-2.2,0-3.7,1.4-4.3,4.6l-0.7,3.6l-1.6,8.1h-5.3l1.6-8.7l3.9-20.7H59l0.9-4.2h0l8.8,0.1l-3.3,17.5l0.2-0.4
		c1.8-3,4.4-4,6.1-4C75.5,1076,77.4,1079,77.5,1082z"/>
	<g>
		<g>
			<path class="st7" d="M124.9,1070.7l1.6-8.2h-8.9l-0.9,4.2h3.8l-0.6,3.3l-1.9,9.9c-1-2.1-3.2-4.3-5.9-4.3c-1.3,0-2.5,0.3-3.7,0.8
				c-2.2,1-4,2.9-5.2,5.3c0,0,0,0,0,0c-1,2-1.5,4.4-1.4,6.9c0.2,4.7,3.2,7.8,7.1,7.8c3.2,0,5.6-2,7.2-4.5l-0.8,4.4h8.4l0.9-4h-3.6
				l0.6-3.9L124.9,1070.7z M111.1,1092.2c-2.5,0-3.8-1.9-4-4.3c-0.2-4.1,2.4-7.9,5.9-7.9c2.7,0,4.2,1.7,4.3,4.3
				C117.5,1088.7,114.6,1092.2,111.1,1092.2z"/>
		</g>
		<path class="st7" d="M99.6,1083.6c-0.2-5-4-7.8-9.3-7.8c-4,0-7.4,2.2-9.2,5.6c0,0,0,0,0,0c-1,1.9-1.6,4.1-1.4,6.6
			c0.3,5.6,5.1,8.6,10.2,8.6c3.1,0,4.9-0.4,7-1.4l0.8-4.6c-2.6,1.3-4.7,1.8-6.8,1.8c-3.9,0-5.9-2-6-4.2l0-0.3h14.3c0,0,0-0.1,0-0.1
			c0,0,0,0,0,0C99.5,1086.3,99.7,1084.8,99.6,1083.6z M94.5,1084.4h-9.3c0.9-2.8,2.8-4.5,5.4-4.5c2.5,0,3.9,1.1,4,3.1
			C94.6,1083.5,94.6,1083.9,94.5,1084.4z"/>
		<path class="st7" d="M77.2,1085.3l-0.6,2.8l-1.7,8.3h-5.3l2.5-11.8c0.2-0.6,0.2-1.1,0.2-1.7c-0.1-1.7-1.2-2.8-3-2.8
			c-2.2,0-3.7,1.4-4.3,4.6l-0.7,3.6l-1.6,8.1h-5.3l1.6-8.7l3.9-20.7H59l0.9-4.2h8.9l-3.3,17.2c1.3-2.1,3.6-4,6.2-4
			c3,0,5.6,2.1,5.8,6C77.6,1083,77.5,1084.1,77.2,1085.3z"/>
		<path class="st7" d="M36.4,1070.9c0,0.6-0.1,1.2-0.4,1.7c0,0.1-0.1,0.1-0.1,0.2c-0.6,0.8-1.5,1.2-2.5,1.2c-1.8,0-3.3-1.3-3.4-3.1
			c0-0.5,0.1-1,0.3-1.5c0,0,0,0,0,0c0.5-1,1.5-1.6,2.7-1.6C34.8,1067.8,36.3,1069.1,36.4,1070.9z"/>
		<path class="st7" d="M50.6,1080.2c-0.2-0.1-0.4-0.2-0.7-0.3c-0.7-0.2-1.5-0.4-2.3-0.4c-1.7,0-3.4,0.5-3.4,1.8
			c0.1,1.4,2.3,2.2,4.8,3.2c2.8,1.1,5.7,2.7,5.8,5.8c0.2,4-3,6.4-8.7,6.4c-3.4,0-6.3-1-7.9-2.5c-0.9-0.8-1.5-1.8-1.5-2.8
			c-0.1-1.7,1-2.8,2.6-2.8c1.4,0,2.7,1.1,2.7,2.5c0,0.4-0.1,0.9-0.2,1.1c0.2,0.1,0.4,0.3,0.7,0.4c1,0.4,2.2,0.6,3.5,0.6
			c1.9,0,3.7-0.6,3.7-1.9c-0.1-1.5-2.3-2.2-4.7-3.2c-2.8-1.1-5.8-2.5-5.9-5.9c0-1.1,0.2-2.1,0.8-3c1.2-1.9,3.6-3.3,7.5-3.3
			c1.3,0,2.5,0.2,3.6,0.5c1.4,0.4,2.5,1,3.4,1.8c0.8,0.8,1.3,1.8,1.4,2.8c0.1,1.7-1.1,2.8-2.6,2.8c-1.4,0-2.7-1.2-2.8-2.6
			C50.3,1080.9,50.4,1080.7,50.6,1080.2z"/>
		<path class="st7" d="M35.6,1076.7c0,0-1.3,6.8-2.3,12.4c-0.7,3.6-1.3,6.8-1.4,7.3h-5.5l3-15.5h-3.8l0.9-4.2H35.6z"/>
		<path class="st7" d="M20.6,1083.9L20.6,1083.9l2.6-13.3l1.6-8.2h-8.9l-0.9,4.2h3.8l-0.6,3.3l-1.9,9.9c-1-2.1-3.1-4.3-5.9-4.3
			c-1.3,0-2.5,0.3-3.7,0.8c-2.1,1-3.8,2.7-4.9,4.9c0,0,0,0,0,0c-1.1,2.1-1.7,4.7-1.6,7.4c0.2,4.7,3.2,7.8,7.1,7.8
			c3.2,0,5.6-2,7.2-4.5l-0.8,4.4h8.4l0.9-4h-3.6l0.6-3.9L20.6,1083.9z M9.3,1092.2c-2.5,0-3.8-1.9-4-4.3c-0.2-4.1,2.4-7.9,5.9-7.9
			c2.7,0,4.2,1.7,4.3,4.3C15.8,1088.7,12.8,1092.2,9.3,1092.2z"/>
	</g>
</g>
</svg>
