<?xml version="1.0" encoding="utf-8"?>
<!-- Generator: Adobe Illustrator 22.0.0, SVG Export Plug-In . SVG Version: 6.00 Build 0)  -->
<svg version="1.1" id="Layer_1" xmlns="http://www.w3.org/2000/svg" xmlns:xlink="http://www.w3.org/1999/xlink" x="0px" y="0px"
	 width="449px" height="1192.7px" viewBox="0 0 449 1192.7" style="enable-background:new 0 0 449 1192.7;" xml:space="preserve">
<style type="text/css">
	.st0{fill:url(#SVGID_1_);}
	.st1{fill:url(#SVGID_2_);}
	.st2{fill:#3D3F3F;}
	.st3{fill:url(#SVGID_3_);}
	.st4{fill:url(#SVGID_4_);}
	.st5{fill:url(#SVGID_5_);}
	.st6{fill:#FFFFFF;}
	.st7{opacity:0.5;}
	.st8{fill:url(#SVGID_6_);}
	.st9{fill:url(#SVGID_7_);}
	.st10{fill:url(#SVGID_8_);}
	.st11{fill:url(#SVGID_9_);}
	.st12{fill:url(#SVGID_10_);}
	.st13{fill:url(#SVGID_11_);}
	.st14{fill:url(#SVGID_12_);}
	.st15{fill:url(#SVGID_13_);}
	.st16{fill:url(#SVGID_14_);}
	.st17{fill:url(#SVGID_15_);}
	.st18{fill:url(#SVGID_16_);}
	.st19{fill:url(#SVGID_17_);}
	.st20{fill:url(#SVGID_18_);}
	.st21{fill:url(#SVGID_19_);}
	.st22{fill:url(#SVGID_20_);}
	.st23{fill:url(#SVGID_21_);}
	.st24{fill:url(#SVGID_22_);}
	.st25{fill:url(#SVGID_23_);}
	.st26{fill:url(#SVGID_24_);}
	.st27{fill:url(#SVGID_25_);}
	.st28{fill:url(#SVGID_26_);}
	.st29{fill:url(#SVGID_27_);}
	.st30{fill:url(#SVGID_28_);}
	.st31{fill:url(#SVGID_29_);}
	.st32{fill:url(#SVGID_30_);}
	.st33{fill:url(#SVGID_31_);}
	.st34{fill:url(#SVGID_32_);}
	.st35{fill:url(#SVGID_33_);}
	.st36{fill:url(#SVGID_34_);}
	.st37{fill:url(#SVGID_35_);}
	.st38{fill:url(#SVGID_36_);}
	.st39{fill:url(#SVGID_37_);}
</style>
<g>
	<linearGradient id="SVGID_1_" gradientUnits="userSpaceOnUse" x1="253.7541" y1="170.6282" x2="253.7541" y2="161.2642">
		<stop  offset="0" style="stop-color:#BA8F45"/>
		<stop  offset="0.5181" style="stop-color:#C49D52"/>
		<stop  offset="1" style="stop-color:#CCA95A"/>
	</linearGradient>
	<path class="st0" d="M251.2,161.3h5.2v1.8h-1.7v7.6h-1.8V163h-1.7V161.3z"/>
	<linearGradient id="SVGID_2_" gradientUnits="userSpaceOnUse" x1="261.9659" y1="170.8637" x2="261.9659" y2="161.0286">
		<stop  offset="0" style="stop-color:#BA8F45"/>
		<stop  offset="0.5181" style="stop-color:#C49D52"/>
		<stop  offset="1" style="stop-color:#CCA95A"/>
	</linearGradient>
	<path class="st1" d="M262,161c1.3,0,2.5,0.5,3.4,1.4c1,1,1.4,2.1,1.4,3.5c0,1.4-0.5,2.5-1.4,3.5c-0.9,0.9-2.1,1.4-3.4,1.4
		c-1.4,0-2.6-0.5-3.5-1.5c-0.9-1-1.4-2.1-1.4-3.5c0-0.9,0.2-1.7,0.6-2.5c0.4-0.8,1-1.3,1.8-1.8C260.3,161.2,261.1,161,262,161z
		 M262,162.8c-0.9,0-1.6,0.3-2.2,0.9c-0.6,0.6-0.9,1.4-0.9,2.3c0,1,0.4,1.9,1.1,2.5c0.6,0.5,1.2,0.7,2,0.7c0.8,0,1.6-0.3,2.2-0.9
		c0.6-0.6,0.9-1.4,0.9-2.3c0-0.9-0.3-1.6-0.9-2.3C263.6,163.1,262.8,162.8,262,162.8z"/>
</g>
<g>
	<path class="st2" d="M15.5,221.8c0,2.1-1.2,3.2-3.6,3.2c-2.2,0-3.4-1.1-3.4-3.2v-51.1H0V222c0,6.2,5.2,10.5,11.8,10.5
		c6.6,0,11.8-4.2,11.8-10.5v-51.4h-8.1V221.8z"/>
	<path class="st2" d="M74.3,170.6H61.9v61.1h12.4c4.8,0,10.8-1.8,10.8-9.6v-14.5c0-3.2-1.5-5.5-4.8-7c3.3-1.4,4.8-3.7,4.8-7v-13.4
		C85.2,172.5,79.1,170.6,74.3,170.6z M76.8,222.3c0,2.1-1.1,3-2.7,3h-3.6v-21.7h3.2c1.8,0,3.1,1.2,3.1,3.2V222.3z M76.8,194.6
		c0,2.1-1.2,3.2-3.1,3.2h-3.2v-20.7h3.6c1.6,0,2.7,0.8,2.7,2.9V194.6z"/>
	<rect x="154.7" y="170.6" class="st2" width="8.6" height="61.1"/>
	<path class="st2" d="M107.4,170.6h-8.3h-0.3l-8.6,61.1h8.6l1.3-9.9h6.3l1.3,9.9h8.6l-8.6-61.1H107.4z M101,215.5l2.3-18.9l2.3,18.9
		H101z"/>
	<polygon class="st2" points="140.1,207.6 129.2,170.6 129.2,170.6 121.7,170.6 121.7,231.8 129.2,231.8 129.2,194.9 140,231.8 
		140.1,231.7 140.1,231.8 147.6,231.8 147.6,170.6 140.1,170.6 	"/>
	<polygon class="st2" points="170,177.2 182.8,177.2 169.2,225.4 169.2,231.8 190.5,231.8 190.5,225.4 177.9,225.4 191.4,177.2 
		191.4,170.6 170,170.6 	"/>
	<path class="st2" d="M236.5,170.6h-12.7v61.1h12.7c6.5,0,11.2-2.8,11.2-10.8v-39.5C247.7,173.5,243,170.6,236.5,170.6z
		 M239.2,221.5c0,2.8-0.9,3.9-3.2,3.9h-3.6v-48.2h3.6c2.3,0,3.2,1.1,3.2,3.9V221.5z"/>
	<path class="st2" d="M43.2,170.6H30.7v61.1h8.6v-26.6h3.3c2,0,3.2,1.3,3.2,3.1v15.9l0,7.6H54V224v-14.6v-0.1c0-3.3-1.6-5.5-4.8-7
		c3.2-1.5,4.8-3.8,4.8-7v-15C54,172.5,48,170.6,43.2,170.6z M45.5,195.7c0,2.2-1.1,3.2-3,3.2h-3.2v-21.8h3.6c1.6,0,2.6,0.8,2.6,2.9
		V195.7z"/>
	<polygon class="st2" points="206,178.9 206,195.9 215.7,195.9 215.7,204.2 206,204.2 206,223.4 217.6,223.4 217.6,231.7 
		217.3,231.7 217.3,231.8 197.5,231.8 197.5,170.6 199.7,170.6 199.7,170.6 217.6,170.6 217.6,178.9 	"/>
</g>
<g>
	<linearGradient id="SVGID_3_" gradientUnits="userSpaceOnUse" x1="258.0293" y1="251.6588" x2="258.0293" y2="242.054">
		<stop  offset="0" style="stop-color:#BA8F45"/>
		<stop  offset="0.5181" style="stop-color:#C49D52"/>
		<stop  offset="1" style="stop-color:#CCA95A"/>
	</linearGradient>
	<path class="st3" d="M254.2,242.1h1.9l2.1,6.6l2.1-6.6h1.9l1.5,9.6h-1.9l-1.1-6.2l-2.1,6.2h-1.3l-2.1-6.2l-1.1,6.2h-1.9
		L254.2,242.1z"/>
	<linearGradient id="SVGID_4_" gradientUnits="userSpaceOnUse" x1="267.1005" y1="251.6588" x2="267.1005" y2="242.054">
		<stop  offset="0" style="stop-color:#BA8F45"/>
		<stop  offset="0.5181" style="stop-color:#C49D52"/>
		<stop  offset="1" style="stop-color:#CCA95A"/>
	</linearGradient>
	<path class="st4" d="M264.4,242.1h5.3v1.9h-1.9v7.7h-1.9V244h-1.5L264.4,242.1L264.4,242.1z"/>
	<linearGradient id="SVGID_5_" gradientUnits="userSpaceOnUse" x1="273.5037" y1="251.8722" x2="273.5037" y2="242.054">
		<stop  offset="0" style="stop-color:#BA8F45"/>
		<stop  offset="0.5181" style="stop-color:#C49D52"/>
		<stop  offset="1" style="stop-color:#CCA95A"/>
	</linearGradient>
	<path class="st5" d="M271.3,242.1h1.9v7.9h2.6v1.9h-4.5L271.3,242.1L271.3,242.1z"/>
</g>
<g>
	<path class="st2" d="M15.5,303c0,2.1-1.2,3.2-3.6,3.2c-2.2,0-3.4-1.1-3.4-3.2v-51.1H0v51.4c0,6.2,5.2,10.5,11.8,10.5
		c6.6,0,11.8-4.2,11.8-10.5v-51.4h-8.1V303z"/>
	<path class="st2" d="M74.3,251.9H61.9V313h12.4c4.8,0,10.8-1.8,10.8-9.6v-14.5c0-3.2-1.5-5.5-4.8-7c3.3-1.4,4.8-3.7,4.8-7v-13.4
		C85.2,253.7,79.1,251.9,74.3,251.9z M76.8,303.5c0,2.1-1.1,3-2.7,3h-3.6v-21.7h3.2c1.8,0,3.1,1.2,3.1,3.2V303.5z M76.8,275.8
		c0,2.1-1.2,3.2-3.1,3.2h-3.2v-20.7h3.6c1.6,0,2.7,0.8,2.7,2.9V275.8z"/>
	<rect x="154.7" y="251.9" class="st2" width="8.6" height="61.1"/>
	<path class="st2" d="M107.4,251.9h-8.3h-0.3L90.2,313h8.6l1.3-9.9h6.3l1.3,9.9h8.6l-8.6-61.1H107.4z M101,296.7l2.3-18.9l2.3,18.9
		H101z"/>
	<polygon class="st2" points="140.1,288.8 129.2,251.9 129.2,251.9 121.7,251.9 121.7,313 129.2,313 129.2,276.1 140,313 140.1,313 
		140.1,313 147.6,313 147.6,251.9 140.1,251.9 	"/>
	<polygon class="st2" points="170,258.5 182.8,258.5 169.2,306.7 169.2,313 190.5,313 190.5,306.7 177.9,306.7 191.4,258.5 
		191.4,251.9 170,251.9 	"/>
	<path class="st2" d="M236.5,251.9h-12.7V313h12.7c6.5,0,11.2-2.8,11.2-10.8v-39.5C247.7,254.7,243,251.9,236.5,251.9z M239.2,302.7
		c0,2.8-0.9,3.9-3.2,3.9h-3.6v-48.2h3.6c2.3,0,3.2,1.1,3.2,3.9V302.7z"/>
	<path class="st2" d="M43.2,251.9H30.7V313h8.6v-26.6h3.3c2,0,3.2,1.3,3.2,3.1v15.9l0,7.6H54v-7.8v-14.6v-0.1c0-3.3-1.6-5.5-4.8-7
		c3.2-1.5,4.8-3.8,4.8-7v-15C54,253.7,48,251.9,43.2,251.9z M45.5,276.9c0,2.2-1.1,3.2-3,3.2h-3.2v-21.8h3.6c1.6,0,2.6,0.8,2.6,2.9
		V276.9z"/>
	<polygon class="st2" points="206,260.2 206,277.1 215.7,277.1 215.7,285.5 206,285.5 206,304.6 217.6,304.6 217.6,313 217.3,313 
		217.3,313 197.5,313 197.5,251.9 199.7,251.9 199.7,251.8 217.6,251.8 217.6,260.2 	"/>
</g>
<g>
	<path class="st6" d="M15.5,374.5c0,2.1-1.2,3.2-3.6,3.2c-2.2,0-3.4-1.1-3.4-3.2v-51.1H0v51.4c0,6.2,5.2,10.5,11.8,10.5
		c6.6,0,11.8-4.2,11.8-10.5v-51.4h-8.1V374.5z"/>
	<path class="st6" d="M74.3,323.4H61.9v61.1h12.4c4.8,0,10.8-1.8,10.8-9.6v-14.5c0-3.2-1.5-5.5-4.8-7c3.3-1.4,4.8-3.7,4.8-7V333
		C85.2,325.2,79.1,323.4,74.3,323.4z M76.8,375c0,2.1-1.1,3-2.7,3h-3.6v-21.7h3.2c1.8,0,3.1,1.2,3.1,3.2V375z M76.8,347.3
		c0,2.1-1.2,3.2-3.1,3.2h-3.2v-20.7h3.6c1.6,0,2.7,0.8,2.7,2.9V347.3z"/>
	<rect x="154.7" y="323.4" class="st6" width="8.6" height="61.1"/>
	<path class="st6" d="M107.4,323.4h-8.3h-0.3l-8.6,61.1h8.6l1.3-9.9h6.3l1.3,9.9h8.6l-8.6-61.1H107.4z M101,368.2l2.3-18.9l2.3,18.9
		H101z"/>
	<polygon class="st6" points="140.1,360.3 129.2,323.4 129.2,323.4 121.7,323.4 121.7,384.5 129.2,384.5 129.2,347.6 140,384.5 
		140.1,384.5 140.1,384.5 147.6,384.5 147.6,323.4 140.1,323.4 	"/>
	<polygon class="st6" points="170,330 182.8,330 169.2,378.2 169.2,384.5 190.5,384.5 190.5,378.2 177.9,378.2 191.4,330 
		191.4,323.4 170,323.4 	"/>
	<path class="st6" d="M236.5,323.4h-12.7v61.1h12.7c6.5,0,11.2-2.8,11.2-10.8v-39.5C247.7,326.2,243,323.4,236.5,323.4z
		 M239.2,374.2c0,2.8-0.9,3.9-3.2,3.9h-3.6v-48.2h3.6c2.3,0,3.2,1.1,3.2,3.9V374.2z"/>
	<path class="st6" d="M43.2,323.4H30.7v61.1h8.6v-26.6h3.3c2,0,3.2,1.3,3.2,3.1v15.9l0,7.6H54v-7.8v-14.6v-0.1c0-3.3-1.6-5.5-4.8-7
		c3.2-1.5,4.8-3.8,4.8-7v-15C54,325.2,48,323.4,43.2,323.4z M45.5,348.4c0,2.2-1.1,3.2-3,3.2h-3.2v-21.8h3.6c1.6,0,2.6,0.8,2.6,2.9
		V348.4z"/>
	<polygon class="st6" points="206,331.7 206,348.6 215.7,348.6 215.7,357 206,357 206,376.1 217.6,376.1 217.6,384.4 217.3,384.4 
		217.3,384.5 197.5,384.5 197.5,323.4 199.7,323.4 199.7,323.3 217.6,323.3 217.6,331.7 	"/>
</g>
<g>
	<path class="st2" d="M15.5,446c0,2.1-1.2,3.2-3.6,3.2c-2.2,0-3.4-1.1-3.4-3.2v-51.1H0v51.4c0,6.2,5.2,10.5,11.8,10.5
		c6.6,0,11.8-4.2,11.8-10.5v-51.4h-8.1V446z"/>
	<path class="st2" d="M74.3,394.9H61.9V456h12.4c4.8,0,10.8-1.8,10.8-9.6v-14.5c0-3.2-1.5-5.5-4.8-7c3.3-1.4,4.8-3.7,4.8-7v-13.4
		C85.2,396.7,79.1,394.9,74.3,394.9z M76.8,446.5c0,2.1-1.1,3-2.7,3h-3.6v-21.7h3.2c1.8,0,3.1,1.2,3.1,3.2V446.5z M76.8,418.8
		c0,2.1-1.2,3.2-3.1,3.2h-3.2v-20.7h3.6c1.6,0,2.7,0.8,2.7,2.9V418.8z"/>
	<rect x="154.7" y="394.9" class="st2" width="8.6" height="61.1"/>
	<path class="st2" d="M107.4,394.9h-8.3h-0.3L90.2,456h8.6l1.3-9.9h6.3l1.3,9.9h8.6l-8.6-61.1H107.4z M101,439.7l2.3-18.9l2.3,18.9
		H101z"/>
	<polygon class="st2" points="140.1,431.8 129.2,394.9 129.2,394.9 121.7,394.9 121.7,456 129.2,456 129.2,419.1 140,456 140.1,456 
		140.1,456 147.6,456 147.6,394.9 140.1,394.9 	"/>
	<polygon class="st2" points="170,401.5 182.8,401.5 169.2,449.7 169.2,456 190.5,456 190.5,449.7 177.9,449.7 191.4,401.5 
		191.4,394.9 170,394.9 	"/>
	<path class="st2" d="M236.5,394.9h-12.7V456h12.7c6.5,0,11.2-2.8,11.2-10.8v-39.5C247.7,397.7,243,394.9,236.5,394.9z M239.2,445.7
		c0,2.8-0.9,3.9-3.2,3.9h-3.6v-48.2h3.6c2.3,0,3.2,1.1,3.2,3.9V445.7z"/>
	<path class="st2" d="M43.2,394.9H30.7V456h8.6v-26.6h3.3c2,0,3.2,1.3,3.2,3.1v15.9l0,7.6H54v-7.8v-14.6v-0.1c0-3.3-1.6-5.5-4.8-7
		c3.2-1.5,4.8-3.8,4.8-7v-15C54,396.7,48,394.9,43.2,394.9z M45.5,419.9c0,2.2-1.1,3.2-3,3.2h-3.2v-21.8h3.6c1.6,0,2.6,0.8,2.6,2.9
		V419.9z"/>
	<polygon class="st2" points="206,403.2 206,420.1 215.7,420.1 215.7,428.4 206,428.4 206,447.6 217.6,447.6 217.6,455.9 
		217.3,455.9 217.3,456 197.5,456 197.5,394.9 199.7,394.9 199.7,394.8 217.6,394.8 217.6,403.2 	"/>
</g>
<g class="st7">
	<path class="st2" d="M15.5,394.9v50.4c0,2.1-1.2,3.2-3.6,3.2c-2.2,0-3.4-1.1-3.4-3.2v-50.4H0v50.6c0,6.2,5.2,10.5,11.8,10.5
		c6.6,0,11.8-4.2,11.8-10.5v-50.6H15.5z"/>
	<path class="st2" d="M74.4,394.9H61.9V456h12.4c4.8,0,10.8-1.8,10.8-9.6v-14.5c0-3.2-1.5-5.5-4.8-7c3.3-1.4,4.8-3.7,4.8-7v-13.4
		C85.2,396.7,79.2,394.9,74.4,394.9z M76.8,446.5c0,2.1-1.1,3-2.7,3h-3.6v-21.7h3.2c1.8,0,3.1,1.2,3.1,3.2V446.5z M76.8,418.8
		c0,2.1-1.2,3.2-3.1,3.2h-3.2v-20.7h3.6c1.6,0,2.7,0.8,2.7,2.9V418.8z"/>
	<rect x="154.8" y="394.9" class="st2" width="8.6" height="61.1"/>
	<path class="st2" d="M107.5,394.9h-8.3h-0.3L90.2,456h8.6l1.3-9.9h6.3l1.3,9.9h8.6l-8.6-61.1H107.5z M101,439.7l2.3-18.9l2.3,18.9
		H101z"/>
	<polygon class="st2" points="140.1,431.8 129.2,394.9 129.2,394.9 121.7,394.9 121.7,456 129.2,456 129.2,419.1 140.1,456 
		140.1,456 140.1,456 147.6,456 147.6,394.9 140.1,394.9 	"/>
	<polygon class="st2" points="170,401.5 182.8,401.5 169.3,449.7 169.3,456 190.6,456 190.6,449.6 177.9,449.6 191.4,401.5 
		191.4,394.9 170,394.9 	"/>
	<path class="st2" d="M236.5,394.9h-12.7V456h12.7c6.5,0,11.2-2.8,11.2-10.8v-39.5C247.7,397.7,243,394.9,236.5,394.9z M239.2,445.7
		c0,2.8-0.9,3.9-3.2,3.9h-3.6v-48.2h3.6c2.3,0,3.2,1.1,3.2,3.9V445.7z"/>
	<path class="st2" d="M43.2,394.9H30.8V456h8.6v-26.6h3.3c2,0,3.2,1.3,3.2,3.1v15.9l0,7.6H54v-7.8v-14.6v-0.1c0-3.3-1.6-5.5-4.8-7
		c3.2-1.5,4.8-3.8,4.8-7v-15C54,396.7,48,394.9,43.2,394.9z M45.6,419.9c0,2.2-1.1,3.2-3,3.2h-3.2v-21.8H43c1.6,0,2.6,0.8,2.6,2.9
		V419.9z"/>
	<polygon class="st2" points="206.1,403.2 206.1,420.1 215.7,420.1 215.7,428.4 206.1,428.4 206.1,447.6 217.7,447.6 217.7,455.9 
		217.4,455.9 217.4,456 197.6,456 197.6,394.9 199.7,394.9 199.7,394.8 217.7,394.8 217.7,403.2 	"/>
</g>
<g>
	<linearGradient id="SVGID_6_" gradientUnits="userSpaceOnUse" x1="253.1909" y1="89.8149" x2="253.1909" y2="80.4317">
		<stop  offset="0" style="stop-color:#BA8F45"/>
		<stop  offset="0.5181" style="stop-color:#C49D52"/>
		<stop  offset="1" style="stop-color:#CCA95A"/>
	</linearGradient>
	<path class="st8" d="M249.5,80.4h1.9l1.8,3.4l1.7-3.4h1.9l-2.7,5.3v4.1h-1.8v-4.1L249.5,80.4z"/>
	<linearGradient id="SVGID_7_" gradientUnits="userSpaceOnUse" x1="261.8019" y1="89.8149" x2="261.8019" y2="80.4317">
		<stop  offset="0" style="stop-color:#BA8F45"/>
		<stop  offset="0.5181" style="stop-color:#C49D52"/>
		<stop  offset="1" style="stop-color:#CCA95A"/>
	</linearGradient>
	<path class="st9" d="M258.2,80.4h1.9l1.8,3.4l1.7-3.4h1.9l-2.7,5.3v4.1h-1.8v-4.1L258.2,80.4z"/>
	<linearGradient id="SVGID_8_" gradientUnits="userSpaceOnUse" x1="270.4869" y1="90.0509" x2="270.4869" y2="80.1957">
		<stop  offset="0" style="stop-color:#BA8F45"/>
		<stop  offset="0.5181" style="stop-color:#C49D52"/>
		<stop  offset="1" style="stop-color:#CCA95A"/>
	</linearGradient>
	<path class="st10" d="M275,82.1l-1.2,1.2c-0.8-0.9-1.8-1.3-2.9-1.3c-0.9,0-1.7,0.3-2.3,0.9s-0.9,1.4-0.9,2.3c0,0.6,0.1,1.2,0.4,1.7
		c0.3,0.5,0.7,0.9,1.2,1.1c0.5,0.3,1,0.4,1.7,0.4c0.5,0,1-0.1,1.4-0.3c0.4-0.2,0.9-0.5,1.4-1.1l1.2,1.3c-0.7,0.7-1.3,1.1-2,1.4
		c-0.6,0.3-1.3,0.4-2.1,0.4c-1.5,0-2.7-0.5-3.6-1.4s-1.4-2.1-1.4-3.6c0-0.9,0.2-1.8,0.6-2.5c0.4-0.7,1-1.3,1.8-1.8s1.6-0.7,2.5-0.7
		c0.8,0,1.5,0.2,2.2,0.5C273.9,81,274.5,81.5,275,82.1z"/>
</g>
<g>
	<path class="st2" d="M15.5,141c0,2.1-1.2,3.2-3.6,3.2c-2.2,0-3.4-1.1-3.4-3.2V89.8H0v51.4c0,6.2,5.2,10.5,11.8,10.5
		c6.6,0,11.8-4.2,11.8-10.5V89.8h-8.1V141z"/>
	<path class="st2" d="M74.3,89.8H61.9V151h12.4c4.8,0,10.8-1.8,10.8-9.6v-14.5c0-3.2-1.5-5.5-4.8-7c3.3-1.4,4.8-3.7,4.8-7V99.5
		C85.2,91.7,79.1,89.8,74.3,89.8z M76.8,141.5c0,2.1-1.1,3-2.7,3h-3.6v-21.7h3.2c1.8,0,3.1,1.2,3.1,3.2V141.5z M76.8,113.8
		c0,2.1-1.2,3.2-3.1,3.2h-3.2V96.3h3.6c1.6,0,2.7,0.8,2.7,2.9V113.8z"/>
	<rect x="154.7" y="89.8" class="st2" width="8.6" height="61.1"/>
	<path class="st2" d="M107.4,89.8h-8.3h-0.3L90.2,151h8.6l1.3-9.9h6.3l1.3,9.9h8.6l-8.6-61.1H107.4z M101,134.7l2.3-18.9l2.3,18.9
		H101z"/>
	<polygon class="st2" points="140.1,126.8 129.2,89.8 129.2,89.8 121.7,89.8 121.7,151 129.2,151 129.2,114.1 140,151 140.1,151 
		140.1,151 147.6,151 147.6,89.8 140.1,89.8 	"/>
	<polygon class="st2" points="170,96.4 182.8,96.4 169.2,144.6 169.2,151 190.5,151 190.5,144.6 177.9,144.6 191.4,96.4 191.4,89.8 
		170,89.8 	"/>
	<path class="st2" d="M236.5,89.8h-12.7V151h12.7c6.5,0,11.2-2.8,11.2-10.8v-39.5C247.7,92.7,243,89.8,236.5,89.8z M239.2,140.7
		c0,2.8-0.9,3.9-3.2,3.9h-3.6V96.3h3.6c2.3,0,3.2,1.1,3.2,3.9V140.7z"/>
	<path class="st2" d="M43.2,89.8H30.7V151h8.6v-26.6h3.3c2,0,3.2,1.3,3.2,3.1v15.9l0,7.6H54v-7.8v-14.6v-0.1c0-3.3-1.6-5.5-4.8-7
		c3.2-1.5,4.8-3.8,4.8-7v-15C54,91.7,48,89.8,43.2,89.8z M45.5,114.9c0,2.2-1.1,3.2-3,3.2h-3.2V96.3h3.6c1.6,0,2.6,0.8,2.6,2.9
		V114.9z"/>
	<polygon class="st2" points="206,98.1 206,115.1 215.7,115.1 215.7,123.4 206,123.4 206,142.6 217.6,142.6 217.6,150.9 
		217.3,150.9 217.3,151 197.5,151 197.5,89.8 199.7,89.8 199.7,89.8 217.6,89.8 217.6,98.1 	"/>
</g>
<g>
	<linearGradient id="SVGID_9_" gradientUnits="userSpaceOnUse" x1="253.7978" y1="9.3387" x2="253.7978" y2="0">
		<stop  offset="0" style="stop-color:#BA8F45"/>
		<stop  offset="0.5181" style="stop-color:#C49D52"/>
		<stop  offset="1" style="stop-color:#CCA95A"/>
	</linearGradient>
	<path class="st11" d="M249.5,0h1.9l2.3,6.6l2.5-6.6h1.9l-3.3,9.3h-1.9L249.5,0z"/>
	<linearGradient id="SVGID_10_" gradientUnits="userSpaceOnUse" x1="262.929" y1="9.3387" x2="262.929" y2="0">
		<stop  offset="0" style="stop-color:#BA8F45"/>
		<stop  offset="0.5181" style="stop-color:#C49D52"/>
		<stop  offset="1" style="stop-color:#CCA95A"/>
	</linearGradient>
	<path class="st12" d="M262.2,0h1.9l3.5,9.3h-1.9l-0.8-1.9H261l-0.8,1.9h-1.9L262.2,0z M263.2,2.5L262,5.6h2.5L263.2,2.5z"/>
	<linearGradient id="SVGID_11_" gradientUnits="userSpaceOnUse" x1="273.0977" y1="9.3387" x2="273.0977" y2="0">
		<stop  offset="0" style="stop-color:#BA8F45"/>
		<stop  offset="0.5181" style="stop-color:#C49D52"/>
		<stop  offset="1" style="stop-color:#CCA95A"/>
	</linearGradient>
	<path class="st13" d="M269.3,0h1.9l3.9,6.2V0h1.9v9.3h-1.9l-3.9-6.2v6.2h-1.9V0z"/>
</g>
<g>
	<path class="st2" d="M15.5,60.3c0,2.1-1.2,3.2-3.6,3.2c-2.2,0-3.4-1.1-3.4-3.2V9.2H0v51.4C0,66.8,5.2,71,11.8,71
		c6.6,0,11.8-4.2,11.8-10.5V9.2h-8.1V60.3z"/>
	<path class="st2" d="M74.3,9.2H61.9v61.1h12.4c4.8,0,10.8-1.8,10.8-9.6V46.1c0-3.2-1.5-5.5-4.8-7c3.3-1.4,4.8-3.7,4.8-7V18.8
		C85.2,11,79.1,9.2,74.3,9.2z M76.8,60.8c0,2.1-1.1,3-2.7,3h-3.6V42.2h3.2c1.8,0,3.1,1.2,3.1,3.2V60.8z M76.8,33.1
		c0,2.1-1.2,3.2-3.1,3.2h-3.2V15.7h3.6c1.6,0,2.7,0.8,2.7,2.9V33.1z"/>
	<rect x="154.7" y="9.2" class="st2" width="8.6" height="61.1"/>
	<path class="st2" d="M107.4,9.2h-8.3h-0.3l-8.6,61.1h8.6l1.3-9.9h6.3l1.3,9.9h8.6l-8.6-61.1H107.4z M101,54l2.3-18.9l2.3,18.9H101z
		"/>
	<polygon class="st2" points="140.1,46.1 129.2,9.2 129.2,9.2 121.7,9.2 121.7,70.3 129.2,70.3 129.2,33.4 140,70.3 140.1,70.3 
		140.1,70.3 147.6,70.3 147.6,9.2 140.1,9.2 	"/>
	<polygon class="st2" points="170,15.8 182.8,15.8 169.2,64 169.2,70.3 190.5,70.3 190.5,64 177.9,64 191.4,15.8 191.4,9.2 170,9.2 
			"/>
	<path class="st2" d="M236.5,9.2h-12.7v61.1h12.7c6.5,0,11.2-2.8,11.2-10.8V20C247.7,12,243,9.2,236.5,9.2z M239.2,60
		c0,2.8-0.9,3.9-3.2,3.9h-3.6V15.7h3.6c2.3,0,3.2,1.1,3.2,3.9V60z"/>
	<path class="st2" d="M43.2,9.2H30.7v61.1h8.6V43.7h3.3c2,0,3.2,1.3,3.2,3.1v15.9l0,7.6H54v-7.8V47.9v-0.1c0-3.3-1.6-5.5-4.8-7
		c3.2-1.5,4.8-3.8,4.8-7v-15C54,11,48,9.2,43.2,9.2z M45.5,34.2c0,2.2-1.1,3.2-3,3.2h-3.2V15.7h3.6c1.6,0,2.6,0.8,2.6,2.9V34.2z"/>
	<polygon class="st2" points="206,17.5 206,34.4 215.7,34.4 215.7,42.7 206,42.7 206,61.9 217.6,61.9 217.6,70.2 217.3,70.2 
		217.3,70.3 197.5,70.3 197.5,9.2 199.7,9.2 199.7,9.1 217.6,9.1 217.6,17.5 	"/>
</g>
<g>
	<g>
		<linearGradient id="SVGID_12_" gradientUnits="userSpaceOnUse" x1="48.0349" y1="563.1887" x2="48.0349" y2="467.1887">
			<stop  offset="0" style="stop-color:#BA8F45"/>
			<stop  offset="0.5181" style="stop-color:#C49D52"/>
			<stop  offset="1" style="stop-color:#CCA95A"/>
		</linearGradient>
		<rect x="0" y="467.2" class="st14" width="96" height="96"/>
		<g>
			<g>
				<g>
					<g>
						<g id="XMLID_37_">
							<g>
								<path class="st2" d="M73.7,490.3c-0.1-0.3-0.3-0.5-0.6-0.7l-9.9-5.3c-0.4-0.2-0.9-0.2-1.3,0l-9.5,5.3
									c-0.4,0.2-0.7,0.7-0.7,1.1l0.1,31.5l-3.6-2c-0.4-0.2-0.9-0.2-1.3,0l-2.7,1.7l0.1-31.2c0-0.1,0-0.2,0-0.3
									c0-0.1-0.1-0.2-0.1-0.3c0-0.1-0.1-0.1-0.1-0.2l-0.1-0.1c-0.1-0.1-0.1-0.1-0.2-0.2l-0.1-0.1c0,0-0.1-0.1-0.1-0.1l-9.9-5.3
									c-0.4-0.2-0.9-0.2-1.2,0l-9.5,5.3c-0.2,0.1-0.3,0.2-0.4,0.3c-0.1,0.1-0.1,0.2-0.2,0.3c-0.1,0.2-0.1,0.3-0.1,0.5l0.1,44.4
									c0,0.5,0.3,0.9,0.6,1.1L47,550c0.2,0.1,0.4,0.2,0.6,0.2c0.2,0,0.4-0.1,0.6-0.2L73,536.3c0.4-0.2,0.6-0.7,0.6-1.1l0.1-44.4
									v-0.1L73.7,490.3z M33.1,486.9l7.2,3.9l-7.1,4.1l-7.1-4.2L33.1,486.9z M32,538.4l-7-4L24.9,493l7.1,4.1V538.4z M34.6,497.2
									l7.1-4.2l-0.1,41.4l-7,4V497.2z M47.7,547.3l-11.7-6.7l7.6-4.3c0.4-0.2,0.7-0.7,0.7-1.1l0-10.1l3.4-2.2l4.2,2.4l0,10
									c0,0.5,0.2,0.9,0.7,1.1l7.5,4.1L47.7,547.3z M61.5,538.3l-7-3.8L54.4,493l7.1,4.2L61.5,538.3z M55.7,490.8l6.9-3.8l7.2,3.9
									l-7.1,4.1L55.7,490.8z M71.1,534.4l-7,3.8v-41.1l7.1-4.2L71.1,534.4z"/>
							</g>
						</g>
					</g>
				</g>
			</g>
		</g>
	</g>
	<g>
		<g>
			<linearGradient id="SVGID_13_" gradientUnits="userSpaceOnUse" x1="298.6555" y1="493.0519" x2="298.6555" y2="486.211">
				<stop  offset="0" style="stop-color:#BA8F45"/>
				<stop  offset="0.5181" style="stop-color:#C49D52"/>
				<stop  offset="1" style="stop-color:#CCA95A"/>
			</linearGradient>
			<path class="st15" d="M295.5,486.2h1.4l1.7,4.9l1.8-4.9h1.4l-2.4,6.8H298L295.5,486.2z"/>
			<linearGradient id="SVGID_14_" gradientUnits="userSpaceOnUse" x1="305.3443" y1="493.0519" x2="305.3443" y2="486.211">
				<stop  offset="0" style="stop-color:#BA8F45"/>
				<stop  offset="0.5181" style="stop-color:#C49D52"/>
				<stop  offset="1" style="stop-color:#CCA95A"/>
			</linearGradient>
			<path class="st16" d="M304.8,486.2h1.4l2.6,6.8h-1.4l-0.6-1.4h-2.9l-0.6,1.4h-1.4L304.8,486.2z M305.6,488l-0.9,2.3h1.8
				L305.6,488z"/>
			<linearGradient id="SVGID_15_" gradientUnits="userSpaceOnUse" x1="312.7932" y1="493.0519" x2="312.7932" y2="486.211">
				<stop  offset="0" style="stop-color:#BA8F45"/>
				<stop  offset="0.5181" style="stop-color:#C49D52"/>
				<stop  offset="1" style="stop-color:#CCA95A"/>
			</linearGradient>
			<path class="st17" d="M310,486.2h1.4l2.9,4.6v-4.6h1.4v6.8h-1.4l-2.9-4.6v4.6H310V486.2z"/>
		</g>
		<g>
			<path class="st6" d="M124.1,530.4c0,1.5-0.9,2.4-2.6,2.4c-1.6,0-2.5-0.8-2.5-2.4v-37.5h-6.2v37.6c0,4.6,3.8,7.7,8.7,7.7
				c4.9,0,8.7-3.1,8.7-7.7v-37.6h-6V530.4z"/>
			<path class="st6" d="M167.2,492.9h-9.1v44.8h9.1c3.5,0,7.9-1.3,7.9-7.1V520c0-2.4-1.1-4-3.5-5.1c2.4-1,3.5-2.7,3.5-5.1V500
				C175.1,494.3,170.7,492.9,167.2,492.9z M169,530.8c0,1.5-0.8,2.2-2,2.2h-2.6v-15.9h2.3c1.4,0,2.3,0.9,2.3,2.4V530.8z M169,510.5
				c0,1.5-0.9,2.4-2.3,2.4h-2.3v-15.1h2.6c1.2,0,2,0.6,2,2.2V510.5z"/>
			<rect x="226.1" y="492.9" class="st6" width="6.3" height="44.8"/>
			<path class="st6" d="M191.4,492.9h-6.1h-0.2l-6.3,44.8h6.3l1-7.3h4.6l1,7.3h6.3l-6.3-44.8H191.4z M186.7,525.8l1.7-13.8l1.7,13.8
				H186.7z"/>
			<polygon class="st6" points="215.3,520 207.4,492.9 207.4,492.9 201.9,492.9 201.9,537.7 207.4,537.7 207.4,510.7 215.3,537.7 
				215.3,537.7 215.3,537.7 220.8,537.7 220.8,492.9 215.3,492.9 			"/>
			<polygon class="st6" points="237.3,497.8 246.6,497.8 236.7,533.1 236.7,537.7 252.3,537.7 252.3,533.1 243,533.1 252.9,497.8 
				252.9,492.9 237.3,492.9 			"/>
			<path class="st6" d="M286,492.9h-9.3v44.8h9.3c4.8,0,8.2-2.1,8.2-7.9v-28.9C294.2,495,290.8,492.9,286,492.9z M288,530.2
				c0,2-0.6,2.8-2.3,2.8H283v-35.3h2.6c1.7,0,2.3,0.8,2.3,2.8V530.2z"/>
			<path class="st6" d="M144.4,492.9h-9.1v44.8h6.3v-19.5h2.4c1.4,0,2.3,0.9,2.3,2.3v11.7l0,5.5h6V532v-10.7v-0.1
				c0-2.4-1.2-4-3.5-5.1c2.3-1.1,3.5-2.8,3.5-5.1v-11C152.3,494.3,147.9,492.9,144.4,492.9z M146.1,511.3c0,1.6-0.8,2.4-2.2,2.4
				h-2.3v-15.9h2.6c1.2,0,1.9,0.6,1.9,2.2V511.3z"/>
			<polygon class="st6" points="263.7,499 263.7,511.4 270.7,511.4 270.7,517.5 263.7,517.5 263.7,531.6 272.2,531.6 272.2,537.7 
				272,537.7 272,537.7 257.4,537.7 257.4,492.9 259,492.9 259,492.9 272.2,492.9 272.2,499 			"/>
		</g>
	</g>
</g>
<g>
	<linearGradient id="SVGID_16_" gradientUnits="userSpaceOnUse" x1="48.3013" y1="664.566" x2="48.3013" y2="568.566">
		<stop  offset="0" style="stop-color:#BA8F45"/>
		<stop  offset="0.5181" style="stop-color:#C49D52"/>
		<stop  offset="1" style="stop-color:#CCA95A"/>
	</linearGradient>
	<rect x="0.3" y="568.6" class="st18" width="96" height="96"/>
	<g>
		<g>
			<g>
				<g>
					<g id="XMLID_1_">
						<g>
							<path class="st2" d="M74,591.7c-0.1-0.3-0.3-0.5-0.6-0.7l-9.9-5.3c-0.4-0.2-0.9-0.2-1.3,0l-9.5,5.3c-0.4,0.2-0.7,0.7-0.7,1.1
								l0.1,31.5l-3.6-2c-0.4-0.2-0.9-0.2-1.3,0l-2.7,1.7l0.1-31.2c0-0.1,0-0.2,0-0.3c0-0.1-0.1-0.2-0.1-0.3c0-0.1-0.1-0.1-0.1-0.2
								l-0.1-0.1c-0.1-0.1-0.1-0.1-0.2-0.2l-0.1-0.1c0,0-0.1-0.1-0.1-0.1l-9.9-5.3c-0.4-0.2-0.9-0.2-1.2,0l-9.5,5.3
								c-0.2,0.1-0.3,0.2-0.4,0.3c-0.1,0.1-0.1,0.2-0.2,0.3c-0.1,0.2-0.1,0.3-0.1,0.5l0.1,44.4c0,0.5,0.3,0.9,0.6,1.1l23.9,13.6
								c0.2,0.1,0.4,0.2,0.6,0.2c0.2,0,0.4-0.1,0.6-0.2l24.8-13.6c0.4-0.2,0.6-0.7,0.6-1.1l0.1-44.4v-0.1L74,591.7z M33.4,588.3
								l7.2,3.9l-7.1,4.1l-7.1-4.2L33.4,588.3z M32.3,639.8l-7-4l-0.1-41.4l7.1,4.1V639.8z M34.9,598.6l7.1-4.2l-0.1,41.4l-7,4
								V598.6z M47.9,648.7L36.2,642l7.6-4.3c0.4-0.2,0.7-0.7,0.7-1.1l0-10.1l3.4-2.2l4.2,2.4l0,10c0,0.5,0.2,0.9,0.7,1.1l7.5,4.1
								L47.9,648.7z M61.7,639.7l-7-3.8l-0.1-41.4l7.1,4.2L61.7,639.7z M56,592.2l6.9-3.8l7.2,3.9l-7.1,4.1L56,592.2z M71.3,635.8
								l-7,3.8v-41.1l7.1-4.2L71.3,635.8z"/>
						</g>
					</g>
				</g>
			</g>
		</g>
	</g>
</g>
<g>
	<path class="st6" d="M124.4,631.8c0,1.5-0.9,2.4-2.6,2.4c-1.6,0-2.5-0.8-2.5-2.4v-37.5H113v37.6c0,4.6,3.8,7.7,8.7,7.7
		c4.9,0,8.7-3.1,8.7-7.7v-37.6h-6V631.8z"/>
	<path class="st6" d="M167.5,594.3h-9.1v44.8h9.1c3.5,0,7.9-1.3,7.9-7.1v-10.6c0-2.4-1.1-4-3.5-5.1c2.4-1,3.5-2.7,3.5-5.1v-9.8
		C175.4,595.6,171,594.3,167.5,594.3z M169.3,632.1c0,1.5-0.8,2.2-2,2.2h-2.6v-15.9h2.3c1.4,0,2.3,0.9,2.3,2.4V632.1z M169.3,611.8
		c0,1.5-0.9,2.4-2.3,2.4h-2.3v-15.1h2.6c1.2,0,2,0.6,2,2.2V611.8z"/>
	<rect x="226.4" y="594.3" class="st6" width="6.3" height="44.8"/>
	<path class="st6" d="M191.7,594.3h-6.1h-0.2l-6.3,44.8h6.3l1-7.3h4.6l1,7.3h6.3l-6.3-44.8H191.7z M187,627.2l1.7-13.8l1.7,13.8H187
		z"/>
	<polygon class="st6" points="215.6,621.3 207.6,594.3 207.6,594.3 202.1,594.3 202.1,639.1 207.6,639.1 207.6,612 215.6,639.1 
		215.6,639.1 215.6,639.1 221.1,639.1 221.1,594.3 215.6,594.3 	"/>
	<polygon class="st6" points="237.5,599.1 246.9,599.1 237,634.4 237,639.1 252.6,639.1 252.6,634.4 243.3,634.4 253.2,599.1 
		253.2,594.3 237.5,594.3 	"/>
	<path class="st6" d="M286.2,594.3H277v44.8h9.3c4.8,0,8.2-2.1,8.2-7.9v-28.9C294.4,596.4,291,594.3,286.2,594.3z M288.2,631.5
		c0,2-0.6,2.8-2.3,2.8h-2.6v-35.3h2.6c1.7,0,2.3,0.8,2.3,2.8V631.5z"/>
	<path class="st6" d="M144.6,594.3h-9.1v44.8h6.3v-19.5h2.4c1.4,0,2.3,0.9,2.3,2.3v11.7l0,5.5h6v-5.7v-10.7v-0.1
		c0-2.4-1.2-4-3.5-5.1c2.3-1.1,3.5-2.8,3.5-5.1v-11C152.6,595.6,148.2,594.3,144.6,594.3z M146.4,612.7c0,1.6-0.8,2.4-2.2,2.4h-2.3
		v-15.9h2.6c1.2,0,1.9,0.6,1.9,2.2V612.7z"/>
	<polygon class="st6" points="263.9,600.4 263.9,612.8 271,612.8 271,618.9 263.9,618.9 263.9,632.9 272.4,632.9 272.4,639 
		272.2,639 272.2,639.1 257.7,639.1 257.7,594.3 259.3,594.3 259.3,594.3 272.4,594.3 272.4,600.4 	"/>
</g>
<g>
	<linearGradient id="SVGID_17_" gradientUnits="userSpaceOnUse" x1="48.3013" y1="770.566" x2="48.3013" y2="674.566">
		<stop  offset="0" style="stop-color:#BA8F45"/>
		<stop  offset="0.5181" style="stop-color:#C49D52"/>
		<stop  offset="1" style="stop-color:#CCA95A"/>
	</linearGradient>
	<rect x="0.3" y="674.6" class="st19" width="96" height="96"/>
	<g>
		<g>
			<g>
				<g>
					<g id="XMLID_2_">
						<g>
							<path class="st2" d="M74,697.7c-0.1-0.3-0.3-0.5-0.6-0.7l-9.9-5.3c-0.4-0.2-0.9-0.2-1.3,0l-9.5,5.3c-0.4,0.2-0.7,0.7-0.7,1.1
								l0.1,31.5l-3.6-2c-0.4-0.2-0.9-0.2-1.3,0l-2.7,1.7l0.1-31.2c0-0.1,0-0.2,0-0.3c0-0.1-0.1-0.2-0.1-0.3c0-0.1-0.1-0.1-0.1-0.2
								l-0.1-0.1c-0.1-0.1-0.1-0.1-0.2-0.2l-0.1-0.1c0,0-0.1-0.1-0.1-0.1l-9.9-5.3c-0.4-0.2-0.9-0.2-1.2,0l-9.5,5.3
								c-0.2,0.1-0.3,0.2-0.4,0.3c-0.1,0.1-0.1,0.2-0.2,0.3c-0.1,0.2-0.1,0.3-0.1,0.5l0.1,44.4c0,0.5,0.3,0.9,0.6,1.1l23.9,13.6
								c0.2,0.1,0.4,0.2,0.6,0.2c0.2,0,0.4-0.1,0.6-0.2l24.8-13.6c0.4-0.2,0.6-0.7,0.6-1.1l0.1-44.4v-0.1L74,697.7z M33.4,694.3
								l7.2,3.9l-7.1,4.1l-7.1-4.2L33.4,694.3z M32.3,745.8l-7-4l-0.1-41.4l7.1,4.1V745.8z M34.9,704.6l7.1-4.2l-0.1,41.4l-7,4
								V704.6z M47.9,754.7L36.2,748l7.6-4.3c0.4-0.2,0.7-0.7,0.7-1.1l0-10.1l3.4-2.2l4.2,2.4l0,10c0,0.5,0.2,0.9,0.7,1.1l7.5,4.1
								L47.9,754.7z M61.7,745.7l-7-3.8l-0.1-41.4l7.1,4.2L61.7,745.7z M56,698.2l6.9-3.8l7.2,3.9l-7.1,4.1L56,698.2z M71.3,741.8
								l-7,3.8v-41.1l7.1-4.2L71.3,741.8z"/>
						</g>
					</g>
				</g>
			</g>
		</g>
	</g>
</g>
<g>
	<path class="st6" d="M124.4,737.8c0,1.5-0.9,2.4-2.6,2.4c-1.6,0-2.5-0.8-2.5-2.4v-37.5H113v37.6c0,4.6,3.8,7.7,8.7,7.7
		c4.9,0,8.7-3.1,8.7-7.7v-37.6h-6V737.8z"/>
	<path class="st6" d="M167.5,700.3h-9.1v44.8h9.1c3.5,0,7.9-1.3,7.9-7.1v-10.6c0-2.4-1.1-4-3.5-5.1c2.4-1,3.5-2.7,3.5-5.1v-9.8
		C175.4,701.6,171,700.3,167.5,700.3z M169.3,738.1c0,1.5-0.8,2.2-2,2.2h-2.6v-15.9h2.3c1.4,0,2.3,0.9,2.3,2.4V738.1z M169.3,717.8
		c0,1.5-0.9,2.4-2.3,2.4h-2.3v-15.1h2.6c1.2,0,2,0.6,2,2.2V717.8z"/>
	<rect x="226.4" y="700.3" class="st6" width="6.3" height="44.8"/>
	<path class="st6" d="M191.7,700.3h-6.1h-0.2l-6.3,44.8h6.3l1-7.3h4.6l1,7.3h6.3l-6.3-44.8H191.7z M187,733.2l1.7-13.8l1.7,13.8H187
		z"/>
	<polygon class="st6" points="215.6,727.3 207.6,700.3 207.6,700.3 202.1,700.3 202.1,745.1 207.6,745.1 207.6,718 215.6,745.1 
		215.6,745.1 215.6,745.1 221.1,745.1 221.1,700.3 215.6,700.3 	"/>
	<polygon class="st6" points="237.5,705.1 246.9,705.1 237,740.4 237,745.1 252.6,745.1 252.6,740.4 243.3,740.4 253.2,705.1 
		253.2,700.3 237.5,700.3 	"/>
	<path class="st6" d="M286.2,700.3H277v44.8h9.3c4.8,0,8.2-2.1,8.2-7.9v-28.9C294.4,702.4,291,700.3,286.2,700.3z M288.2,737.5
		c0,2-0.6,2.8-2.3,2.8h-2.6v-35.3h2.6c1.7,0,2.3,0.8,2.3,2.8V737.5z"/>
	<path class="st6" d="M144.6,700.3h-9.1v44.8h6.3v-19.5h2.4c1.4,0,2.3,0.9,2.3,2.3v11.7l0,5.5h6v-5.7v-10.7v-0.1
		c0-2.4-1.2-4-3.5-5.1c2.3-1.1,3.5-2.8,3.5-5.1v-11C152.6,701.6,148.2,700.3,144.6,700.3z M146.4,718.7c0,1.6-0.8,2.4-2.2,2.4h-2.3
		v-15.9h2.6c1.2,0,1.9,0.6,1.9,2.2V718.7z"/>
	<polygon class="st6" points="263.9,706.4 263.9,718.8 271,718.8 271,724.9 263.9,724.9 263.9,738.9 272.4,738.9 272.4,745 
		272.2,745 272.2,745.1 257.7,745.1 257.7,700.3 259.3,700.3 259.3,700.3 272.4,700.3 272.4,706.4 	"/>
</g>
<g>
	<linearGradient id="SVGID_18_" gradientUnits="userSpaceOnUse" x1="48.5676" y1="876.566" x2="48.5676" y2="780.566">
		<stop  offset="0" style="stop-color:#BA8F45"/>
		<stop  offset="0.5181" style="stop-color:#C49D52"/>
		<stop  offset="1" style="stop-color:#CCA95A"/>
	</linearGradient>
	<rect x="0.6" y="780.6" class="st20" width="96" height="96"/>
	<g>
		<g>
			<g>
				<g>
					<g id="XMLID_3_">
						<g>
							<path class="st2" d="M74.2,803.7c-0.1-0.3-0.3-0.5-0.6-0.7l-9.9-5.3c-0.4-0.2-0.9-0.2-1.3,0L53,803c-0.4,0.2-0.7,0.7-0.7,1.1
								l0.1,31.5l-3.6-2c-0.4-0.2-0.9-0.2-1.3,0l-2.7,1.7l0.1-31.2c0-0.1,0-0.2,0-0.3c0-0.1-0.1-0.2-0.1-0.3c0-0.1-0.1-0.1-0.1-0.2
								l-0.1-0.1c-0.1-0.1-0.1-0.1-0.2-0.2l-0.1-0.1c0,0-0.1-0.1-0.1-0.1l-9.9-5.3c-0.4-0.2-0.9-0.2-1.2,0l-9.5,5.3
								c-0.2,0.1-0.3,0.2-0.4,0.3c-0.1,0.1-0.1,0.2-0.2,0.3c-0.1,0.2-0.1,0.3-0.1,0.5l0.1,44.4c0,0.5,0.3,0.9,0.6,1.1l23.9,13.6
								c0.2,0.1,0.4,0.2,0.6,0.2c0.2,0,0.4-0.1,0.6-0.2l24.8-13.6c0.4-0.2,0.6-0.7,0.6-1.1l0.1-44.4v-0.1L74.2,803.7z M33.7,800.3
								l7.2,3.9l-7.1,4.1l-7.1-4.2L33.7,800.3z M32.5,851.8l-7-4l-0.1-41.4l7.1,4.1V851.8z M35.1,810.6l7.1-4.2l-0.1,41.4l-7,4
								V810.6z M48.2,860.7L36.5,854l7.6-4.3c0.4-0.2,0.7-0.7,0.7-1.1l0-10.1l3.4-2.2l4.2,2.4l0,10c0,0.5,0.2,0.9,0.7,1.1l7.5,4.1
								L48.2,860.7z M62,851.7l-7-3.8l-0.1-41.4l7.1,4.2L62,851.7z M56.2,804.2l6.9-3.8l7.2,3.9l-7.1,4.1L56.2,804.2z M71.6,847.8
								l-7,3.8v-41.1l7.1-4.2L71.6,847.8z"/>
						</g>
					</g>
				</g>
			</g>
		</g>
	</g>
</g>
<g>
	<path class="st6" d="M124.6,843.8c0,1.5-0.9,2.4-2.6,2.4c-1.6,0-2.5-0.8-2.5-2.4v-37.5h-6.2v37.6c0,4.6,3.8,7.7,8.7,7.7
		c4.9,0,8.7-3.1,8.7-7.7v-37.6h-6V843.8z"/>
	<path class="st6" d="M167.7,806.3h-9.1v44.8h9.1c3.5,0,7.9-1.3,7.9-7.1v-10.6c0-2.4-1.1-4-3.5-5.1c2.4-1,3.5-2.7,3.5-5.1v-9.8
		C175.7,807.6,171.2,806.3,167.7,806.3z M169.5,844.1c0,1.5-0.8,2.2-2,2.2h-2.6v-15.9h2.3c1.4,0,2.3,0.9,2.3,2.4V844.1z
		 M169.5,823.8c0,1.5-0.9,2.4-2.3,2.4h-2.3v-15.1h2.6c1.2,0,2,0.6,2,2.2V823.8z"/>
	<rect x="226.6" y="806.3" class="st6" width="6.3" height="44.8"/>
	<path class="st6" d="M192,806.3h-6.1h-0.2l-6.3,44.8h6.3l1-7.3h4.6l1,7.3h6.3l-6.3-44.8H192z M187.2,839.2l1.7-13.8l1.7,13.8H187.2
		z"/>
	<polygon class="st6" points="215.9,833.3 207.9,806.3 207.9,806.3 202.4,806.3 202.4,851.1 207.9,851.1 207.9,824 215.9,851.1 
		215.9,851.1 215.9,851.1 221.4,851.1 221.4,806.3 215.9,806.3 	"/>
	<polygon class="st6" points="237.8,811.1 247.2,811.1 237.2,846.4 237.2,851.1 252.8,851.1 252.8,846.4 243.6,846.4 253.5,811.1 
		253.5,806.3 237.8,806.3 	"/>
	<path class="st6" d="M286.5,806.3h-9.3v44.8h9.3c4.8,0,8.2-2.1,8.2-7.9v-28.9C294.7,808.4,291.3,806.3,286.5,806.3z M288.5,843.5
		c0,2-0.6,2.8-2.3,2.8h-2.6v-35.3h2.6c1.7,0,2.3,0.8,2.3,2.8V843.5z"/>
	<path class="st6" d="M144.9,806.3h-9.1v44.8h6.3v-19.5h2.4c1.4,0,2.3,0.9,2.3,2.3v11.7l0,5.5h6v-5.7v-10.7v-0.1
		c0-2.4-1.2-4-3.5-5.1c2.3-1.1,3.5-2.8,3.5-5.1v-11C152.8,807.6,148.4,806.3,144.9,806.3z M146.6,824.7c0,1.6-0.8,2.4-2.2,2.4h-2.3
		v-15.9h2.6c1.2,0,1.9,0.6,1.9,2.2V824.7z"/>
	<polygon class="st6" points="264.2,812.4 264.2,824.8 271.3,824.8 271.3,830.9 264.2,830.9 264.2,844.9 272.7,844.9 272.7,851 
		272.5,851 272.5,851.1 258,851.1 258,806.3 259.6,806.3 259.6,806.3 272.7,806.3 272.7,812.4 	"/>
</g>
<g>
	<linearGradient id="SVGID_19_" gradientUnits="userSpaceOnUse" x1="298.5468" y1="594.4088" x2="298.5468" y2="587.3652">
		<stop  offset="0" style="stop-color:#BA8F45"/>
		<stop  offset="0.5181" style="stop-color:#C49D52"/>
		<stop  offset="1" style="stop-color:#CCA95A"/>
	</linearGradient>
	<path class="st21" d="M295.8,587.4h1.4l1.3,2.5l1.3-2.5h1.4l-2.1,4v3.1h-1.4v-3.1L295.8,587.4z"/>
	<linearGradient id="SVGID_20_" gradientUnits="userSpaceOnUse" x1="305.0107" y1="594.4088" x2="305.0107" y2="587.3652">
		<stop  offset="0" style="stop-color:#BA8F45"/>
		<stop  offset="0.5181" style="stop-color:#C49D52"/>
		<stop  offset="1" style="stop-color:#CCA95A"/>
	</linearGradient>
	<path class="st22" d="M302.3,587.4h1.4l1.3,2.5l1.3-2.5h1.4l-2.1,4v3.1h-1.4v-3.1L302.3,587.4z"/>
	<linearGradient id="SVGID_21_" gradientUnits="userSpaceOnUse" x1="311.5302" y1="594.5859" x2="311.5302" y2="587.188">
		<stop  offset="0" style="stop-color:#BA8F45"/>
		<stop  offset="0.5181" style="stop-color:#C49D52"/>
		<stop  offset="1" style="stop-color:#CCA95A"/>
	</linearGradient>
	<path class="st23" d="M314.9,588.6l-0.9,0.9c-0.6-0.7-1.4-1-2.2-1c-0.7,0-1.2,0.2-1.7,0.7s-0.7,1-0.7,1.7c0,0.5,0.1,0.9,0.3,1.3
		c0.2,0.4,0.5,0.7,0.9,0.9c0.4,0.2,0.8,0.3,1.2,0.3c0.4,0,0.7-0.1,1.1-0.2s0.7-0.4,1.1-0.8l0.9,0.9c-0.5,0.5-1,0.9-1.5,1.1
		c-0.5,0.2-1,0.3-1.6,0.3c-1.1,0-2-0.3-2.7-1c-0.7-0.7-1-1.6-1-2.7c0-0.7,0.2-1.3,0.5-1.9c0.3-0.5,0.8-1,1.4-1.3
		c0.6-0.3,1.2-0.5,1.9-0.5c0.6,0,1.1,0.1,1.7,0.4C314.1,587.8,314.6,588.2,314.9,588.6z"/>
</g>
<g>
	<linearGradient id="SVGID_22_" gradientUnits="userSpaceOnUse" x1="297.6774" y1="700.4232" x2="297.6774" y2="693.6493">
		<stop  offset="0" style="stop-color:#BA8F45"/>
		<stop  offset="0.5181" style="stop-color:#C49D52"/>
		<stop  offset="1" style="stop-color:#CCA95A"/>
	</linearGradient>
	<path class="st24" d="M295.8,693.6h3.7v1.3h-1.2v5.5H297v-5.5h-1.2V693.6z"/>
	<linearGradient id="SVGID_23_" gradientUnits="userSpaceOnUse" x1="303.6177" y1="700.5936" x2="303.6177" y2="693.4789">
		<stop  offset="0" style="stop-color:#BA8F45"/>
		<stop  offset="0.5181" style="stop-color:#C49D52"/>
		<stop  offset="1" style="stop-color:#CCA95A"/>
	</linearGradient>
	<path class="st25" d="M303.6,693.5c1,0,1.8,0.3,2.5,1c0.7,0.7,1,1.5,1,2.5c0,1-0.3,1.8-1,2.5c-0.7,0.7-1.5,1-2.5,1
		c-1,0-1.9-0.4-2.5-1.1c-0.7-0.7-1-1.5-1-2.5c0-0.6,0.2-1.2,0.5-1.8c0.3-0.5,0.7-1,1.3-1.3C302.4,693.6,303,693.5,303.6,693.5z
		 M303.6,694.7c-0.6,0-1.2,0.2-1.6,0.7c-0.4,0.4-0.6,1-0.6,1.7c0,0.7,0.3,1.3,0.8,1.8c0.4,0.3,0.9,0.5,1.4,0.5
		c0.6,0,1.1-0.2,1.6-0.7c0.4-0.4,0.6-1,0.6-1.6c0-0.6-0.2-1.2-0.6-1.6S304.2,694.7,303.6,694.7z"/>
</g>
<g>
	<linearGradient id="SVGID_24_" gradientUnits="userSpaceOnUse" x1="301.1786" y1="806.5001" x2="301.1786" y2="799.5883">
		<stop  offset="0" style="stop-color:#BA8F45"/>
		<stop  offset="0.5181" style="stop-color:#C49D52"/>
		<stop  offset="1" style="stop-color:#CCA95A"/>
	</linearGradient>
	<path class="st26" d="M298.4,799.6h1.4l1.5,4.8l1.5-4.8h1.4l1.1,6.9h-1.4l-0.8-4.5l-1.5,4.5h-0.9l-1.5-4.5l-0.8,4.5H297
		L298.4,799.6z"/>
	<linearGradient id="SVGID_25_" gradientUnits="userSpaceOnUse" x1="307.7065" y1="806.5001" x2="307.7065" y2="799.5883">
		<stop  offset="0" style="stop-color:#BA8F45"/>
		<stop  offset="0.5181" style="stop-color:#C49D52"/>
		<stop  offset="1" style="stop-color:#CCA95A"/>
	</linearGradient>
	<path class="st27" d="M305.8,799.6h3.8v1.4h-1.4v5.5h-1.4V801h-1.1L305.8,799.6L305.8,799.6z"/>
	<linearGradient id="SVGID_26_" gradientUnits="userSpaceOnUse" x1="312.3143" y1="806.6537" x2="312.3143" y2="799.5883">
		<stop  offset="0" style="stop-color:#BA8F45"/>
		<stop  offset="0.5181" style="stop-color:#C49D52"/>
		<stop  offset="1" style="stop-color:#CCA95A"/>
	</linearGradient>
	<path class="st28" d="M310.7,799.6h1.4v5.7h1.8v1.4h-3.2L310.7,799.6L310.7,799.6z"/>
</g>
<g>
	<linearGradient id="SVGID_27_" gradientUnits="userSpaceOnUse" x1="254.3217" y1="1050.2523" x2="254.3217" y2="1040.8883">
		<stop  offset="0" style="stop-color:#BA8F45"/>
		<stop  offset="0.5181" style="stop-color:#C49D52"/>
		<stop  offset="1" style="stop-color:#CCA95A"/>
	</linearGradient>
	<path class="st29" d="M251.7,1040.9h5.2v1.8h-1.7v7.6h-1.8v-7.6h-1.7V1040.9z"/>
	<linearGradient id="SVGID_28_" gradientUnits="userSpaceOnUse" x1="262.5335" y1="1050.4878" x2="262.5335" y2="1040.6528">
		<stop  offset="0" style="stop-color:#BA8F45"/>
		<stop  offset="0.5181" style="stop-color:#C49D52"/>
		<stop  offset="1" style="stop-color:#CCA95A"/>
	</linearGradient>
	<path class="st30" d="M262.6,1040.7c1.3,0,2.5,0.5,3.4,1.4c1,1,1.4,2.1,1.4,3.5c0,1.4-0.5,2.5-1.4,3.5c-0.9,0.9-2.1,1.4-3.4,1.4
		c-1.4,0-2.6-0.5-3.5-1.5c-0.9-1-1.4-2.1-1.4-3.5c0-0.9,0.2-1.7,0.6-2.5c0.4-0.8,1-1.3,1.8-1.8
		C260.9,1040.9,261.7,1040.7,262.6,1040.7z M262.5,1042.4c-0.9,0-1.6,0.3-2.2,0.9c-0.6,0.6-0.9,1.4-0.9,2.3c0,1,0.4,1.9,1.1,2.5
		c0.6,0.5,1.2,0.7,2,0.7c0.8,0,1.6-0.3,2.2-0.9c0.6-0.6,0.9-1.4,0.9-2.3c0-0.9-0.3-1.6-0.9-2.3
		C264.1,1042.7,263.4,1042.4,262.5,1042.4z"/>
</g>
<g>
	<linearGradient id="SVGID_29_" gradientUnits="userSpaceOnUse" x1="258.5969" y1="1131.283" x2="258.5969" y2="1121.6781">
		<stop  offset="0" style="stop-color:#BA8F45"/>
		<stop  offset="0.5181" style="stop-color:#C49D52"/>
		<stop  offset="1" style="stop-color:#CCA95A"/>
	</linearGradient>
	<path class="st31" d="M254.8,1121.7h1.9l2.1,6.6l2.1-6.6h1.9l1.5,9.6h-1.9l-1.1-6.2l-2.1,6.2H258l-2.1-6.2l-1.1,6.2h-1.9
		L254.8,1121.7z"/>
	<linearGradient id="SVGID_30_" gradientUnits="userSpaceOnUse" x1="267.6682" y1="1131.283" x2="267.6682" y2="1121.6781">
		<stop  offset="0" style="stop-color:#BA8F45"/>
		<stop  offset="0.5181" style="stop-color:#C49D52"/>
		<stop  offset="1" style="stop-color:#CCA95A"/>
	</linearGradient>
	<path class="st32" d="M265,1121.7h5.3v1.9h-1.9v7.7h-1.9v-7.7H265L265,1121.7L265,1121.7z"/>
	<linearGradient id="SVGID_31_" gradientUnits="userSpaceOnUse" x1="274.0713" y1="1131.4963" x2="274.0713" y2="1121.6781">
		<stop  offset="0" style="stop-color:#BA8F45"/>
		<stop  offset="0.5181" style="stop-color:#C49D52"/>
		<stop  offset="1" style="stop-color:#CCA95A"/>
	</linearGradient>
	<path class="st33" d="M271.8,1121.7h1.9v7.9h2.6v1.9h-4.5L271.8,1121.7L271.8,1121.7z"/>
</g>
<g>
	<linearGradient id="SVGID_32_" gradientUnits="userSpaceOnUse" x1="253.7585" y1="969.439" x2="253.7585" y2="960.0558">
		<stop  offset="0" style="stop-color:#BA8F45"/>
		<stop  offset="0.5181" style="stop-color:#C49D52"/>
		<stop  offset="1" style="stop-color:#CCA95A"/>
	</linearGradient>
	<path class="st34" d="M250.1,960.1h1.9l1.8,3.4l1.7-3.4h1.9l-2.7,5.3v4.1h-1.8v-4.1L250.1,960.1z"/>
	<linearGradient id="SVGID_33_" gradientUnits="userSpaceOnUse" x1="262.3695" y1="969.439" x2="262.3695" y2="960.0558">
		<stop  offset="0" style="stop-color:#BA8F45"/>
		<stop  offset="0.5181" style="stop-color:#C49D52"/>
		<stop  offset="1" style="stop-color:#CCA95A"/>
	</linearGradient>
	<path class="st35" d="M258.7,960.1h1.9l1.8,3.4l1.7-3.4h1.9l-2.7,5.3v4.1h-1.8v-4.1L258.7,960.1z"/>
	<linearGradient id="SVGID_34_" gradientUnits="userSpaceOnUse" x1="271.0545" y1="969.675" x2="271.0545" y2="959.8198">
		<stop  offset="0" style="stop-color:#BA8F45"/>
		<stop  offset="0.5181" style="stop-color:#C49D52"/>
		<stop  offset="1" style="stop-color:#CCA95A"/>
	</linearGradient>
	<path class="st36" d="M275.6,961.7l-1.2,1.2c-0.8-0.9-1.8-1.3-2.9-1.3c-0.9,0-1.7,0.3-2.3,0.9c-0.6,0.6-0.9,1.4-0.9,2.3
		c0,0.6,0.1,1.2,0.4,1.7c0.3,0.5,0.7,0.9,1.2,1.1c0.5,0.3,1,0.4,1.7,0.4c0.5,0,1-0.1,1.4-0.3c0.4-0.2,0.9-0.5,1.4-1.1l1.2,1.3
		c-0.7,0.7-1.3,1.1-2,1.4c-0.6,0.3-1.3,0.4-2.1,0.4c-1.5,0-2.7-0.5-3.6-1.4c-0.9-0.9-1.4-2.1-1.4-3.6c0-0.9,0.2-1.8,0.6-2.5
		c0.4-0.7,1-1.3,1.8-1.8s1.6-0.7,2.5-0.7c0.8,0,1.5,0.2,2.2,0.5C274.5,960.6,275.1,961.1,275.6,961.7z"/>
</g>
<g>
	<linearGradient id="SVGID_35_" gradientUnits="userSpaceOnUse" x1="254.3655" y1="888.9628" x2="254.3655" y2="879.6241">
		<stop  offset="0" style="stop-color:#BA8F45"/>
		<stop  offset="0.5181" style="stop-color:#C49D52"/>
		<stop  offset="1" style="stop-color:#CCA95A"/>
	</linearGradient>
	<path class="st37" d="M250.1,879.6h1.9l2.3,6.6l2.5-6.6h1.9l-3.3,9.3h-1.9L250.1,879.6z"/>
	<linearGradient id="SVGID_36_" gradientUnits="userSpaceOnUse" x1="263.4966" y1="888.9628" x2="263.4966" y2="879.6241">
		<stop  offset="0" style="stop-color:#BA8F45"/>
		<stop  offset="0.5181" style="stop-color:#C49D52"/>
		<stop  offset="1" style="stop-color:#CCA95A"/>
	</linearGradient>
	<path class="st38" d="M262.8,879.6h1.9l3.5,9.3h-1.9l-0.8-1.9h-3.9l-0.8,1.9h-1.9L262.8,879.6z M263.8,882.1l-1.2,3.1h2.5
		L263.8,882.1z"/>
	<linearGradient id="SVGID_37_" gradientUnits="userSpaceOnUse" x1="273.6653" y1="888.9628" x2="273.6653" y2="879.6241">
		<stop  offset="0" style="stop-color:#BA8F45"/>
		<stop  offset="0.5181" style="stop-color:#C49D52"/>
		<stop  offset="1" style="stop-color:#CCA95A"/>
	</linearGradient>
	<path class="st39" d="M269.8,879.6h1.9l3.9,6.2v-6.2h1.9v9.3h-1.9l-3.9-6.2v6.2h-1.9V879.6z"/>
</g>
<g>
	<g>
		<path class="st6" d="M15.5,1100.8c0,2.1-1.2,3.2-3.6,3.2c-2.2,0-3.4-1.1-3.4-3.2v-51.1H0v51.4c0,6.2,5.2,10.5,11.8,10.5
			c6.6,0,11.8-4.2,11.8-10.5v-51.4h-8.1V1100.8z"/>
		<path class="st6" d="M74.3,1049.6H61.9v61.1h12.4c4.8,0,10.8-1.8,10.8-9.6v-14.5c0-3.2-1.5-5.5-4.8-7c3.3-1.4,4.8-3.7,4.8-7v-13.4
			C85.2,1051.5,79.1,1049.6,74.3,1049.6z M76.8,1101.3c0,2.1-1.1,3-2.7,3h-3.6v-21.7h3.2c1.8,0,3.1,1.2,3.1,3.2V1101.3z
			 M76.8,1073.6c0,2.1-1.2,3.2-3.1,3.2h-3.2v-20.7h3.6c1.6,0,2.7,0.8,2.7,2.9V1073.6z"/>
		<rect x="154.7" y="1049.6" class="st6" width="8.6" height="61.1"/>
		<path class="st6" d="M107.4,1049.6h-8.3h-0.3l-8.6,61.1h8.6l1.3-9.9h6.3l1.3,9.9h8.6l-8.6-61.1H107.4z M101,1094.5l2.3-18.9
			l2.3,18.9H101z"/>
		<polygon class="st6" points="140.1,1086.6 129.2,1049.6 129.2,1049.6 121.7,1049.6 121.7,1110.8 129.2,1110.8 129.2,1073.9 
			140,1110.8 140.1,1110.8 140.1,1110.8 147.6,1110.8 147.6,1049.6 140.1,1049.6 		"/>
		<polygon class="st6" points="170,1056.2 182.8,1056.2 169.2,1104.4 169.2,1110.8 190.5,1110.8 190.5,1104.4 177.9,1104.4 
			191.4,1056.2 191.4,1049.6 170,1049.6 		"/>
		<path class="st6" d="M236.5,1049.6h-12.7v61.1h12.7c6.5,0,11.2-2.8,11.2-10.8v-39.5C247.7,1052.5,243,1049.6,236.5,1049.6z
			 M239.2,1100.5c0,2.8-0.9,3.9-3.2,3.9h-3.6v-48.2h3.6c2.3,0,3.2,1.1,3.2,3.9V1100.5z"/>
		<path class="st6" d="M43.2,1049.6H30.7v61.1h8.6v-26.6h3.3c2,0,3.2,1.3,3.2,3.1v15.9l0,7.6H54v-7.8v-14.6v-0.1
			c0-3.3-1.6-5.5-4.8-7c3.2-1.5,4.8-3.8,4.8-7v-15C54,1051.5,48,1049.6,43.2,1049.6z M45.5,1074.7c0,2.2-1.1,3.2-3,3.2h-3.2v-21.8
			h3.6c1.6,0,2.6,0.8,2.6,2.9V1074.7z"/>
		<polygon class="st6" points="206,1057.9 206,1074.9 215.7,1074.9 215.7,1083.2 206,1083.2 206,1102.4 217.6,1102.4 217.6,1110.7 
			217.3,1110.7 217.3,1110.8 197.5,1110.8 197.5,1049.6 199.7,1049.6 199.7,1049.6 217.6,1049.6 217.6,1057.9 		"/>
	</g>
	<g>
		<path class="st6" d="M15.5,1182c0,2.1-1.2,3.2-3.6,3.2c-2.2,0-3.4-1.1-3.4-3.2v-51.1H0v51.4c0,6.2,5.2,10.5,11.8,10.5
			c6.6,0,11.8-4.2,11.8-10.5v-51.4h-8.1V1182z"/>
		<path class="st6" d="M74.3,1130.9H61.9v61.1h12.4c4.8,0,10.8-1.8,10.8-9.6v-14.5c0-3.2-1.5-5.5-4.8-7c3.3-1.4,4.8-3.7,4.8-7v-13.4
			C85.2,1132.7,79.1,1130.9,74.3,1130.9z M76.8,1182.6c0,2.1-1.1,3-2.7,3h-3.6v-21.7h3.2c1.8,0,3.1,1.2,3.1,3.2V1182.6z
			 M76.8,1154.8c0,2.1-1.2,3.2-3.1,3.2h-3.2v-20.7h3.6c1.6,0,2.7,0.8,2.7,2.9V1154.8z"/>
		<rect x="154.7" y="1130.9" class="st6" width="8.6" height="61.1"/>
		<path class="st6" d="M107.4,1130.9h-8.3h-0.3l-8.6,61.1h8.6l1.3-9.9h6.3l1.3,9.9h8.6l-8.6-61.1H107.4z M101,1175.8l2.3-18.9
			l2.3,18.9H101z"/>
		<polygon class="st6" points="140.1,1167.8 129.2,1130.9 129.2,1130.9 121.7,1130.9 121.7,1192 129.2,1192 129.2,1155.1 140,1192 
			140.1,1192 140.1,1192 147.6,1192 147.6,1130.9 140.1,1130.9 		"/>
		<polygon class="st6" points="170,1137.5 182.8,1137.5 169.2,1185.7 169.2,1192 190.5,1192 190.5,1185.7 177.9,1185.7 
			191.4,1137.5 191.4,1130.9 170,1130.9 		"/>
		<path class="st6" d="M236.5,1130.9h-12.7v61.1h12.7c6.5,0,11.2-2.8,11.2-10.8v-39.5C247.7,1133.7,243,1130.9,236.5,1130.9z
			 M239.2,1181.7c0,2.8-0.9,3.9-3.2,3.9h-3.6v-48.2h3.6c2.3,0,3.2,1.1,3.2,3.9V1181.7z"/>
		<path class="st6" d="M43.2,1130.9H30.7v61.1h8.6v-26.6h3.3c2,0,3.2,1.3,3.2,3.1v15.9l0,7.6H54v-7.8v-14.6v-0.1
			c0-3.3-1.6-5.5-4.8-7c3.2-1.5,4.8-3.8,4.8-7v-15C54,1132.7,48,1130.9,43.2,1130.9z M45.5,1155.9c0,2.2-1.1,3.2-3,3.2h-3.2v-21.8
			h3.6c1.6,0,2.6,0.8,2.6,2.9V1155.9z"/>
		<polygon class="st6" points="206,1139.2 206,1156.1 215.7,1156.1 215.7,1164.5 206,1164.5 206,1183.6 217.6,1183.6 217.6,1192 
			217.3,1192 217.3,1192 197.5,1192 197.5,1130.9 199.7,1130.9 199.7,1130.9 217.6,1130.9 217.6,1139.2 		"/>
	</g>
	<g>
		<path class="st6" d="M15.5,1020c0,2.1-1.2,3.2-3.6,3.2c-2.2,0-3.4-1.1-3.4-3.2v-51.1H0v51.4c0,6.2,5.2,10.5,11.8,10.5
			c6.6,0,11.8-4.2,11.8-10.5v-51.4h-8.1V1020z"/>
		<path class="st6" d="M74.3,968.8H61.9v61.1h12.4c4.8,0,10.8-1.8,10.8-9.6v-14.5c0-3.2-1.5-5.5-4.8-7c3.3-1.4,4.8-3.7,4.8-7v-13.4
			C85.2,970.7,79.1,968.8,74.3,968.8z M76.8,1020.5c0,2.1-1.1,3-2.7,3h-3.6v-21.7h3.2c1.8,0,3.1,1.2,3.1,3.2V1020.5z M76.8,992.8
			c0,2.1-1.2,3.2-3.1,3.2h-3.2v-20.7h3.6c1.6,0,2.7,0.8,2.7,2.9V992.8z"/>
		<rect x="154.7" y="968.8" class="st6" width="8.6" height="61.1"/>
		<path class="st6" d="M107.4,968.8h-8.3h-0.3l-8.6,61.1h8.6l1.3-9.9h6.3l1.3,9.9h8.6l-8.6-61.1H107.4z M101,1013.7l2.3-18.9
			l2.3,18.9H101z"/>
		<polygon class="st6" points="140.1,1005.8 129.2,968.8 129.2,968.8 121.7,968.8 121.7,1030 129.2,1030 129.2,993.1 140,1030 
			140.1,1030 140.1,1030 147.6,1030 147.6,968.8 140.1,968.8 		"/>
		<polygon class="st6" points="170,975.4 182.8,975.4 169.2,1023.6 169.2,1030 190.5,1030 190.5,1023.6 177.9,1023.6 191.4,975.4 
			191.4,968.8 170,968.8 		"/>
		<path class="st6" d="M236.5,968.8h-12.7v61.1h12.7c6.5,0,11.2-2.8,11.2-10.8v-39.5C247.7,971.7,243,968.8,236.5,968.8z
			 M239.2,1019.7c0,2.8-0.9,3.9-3.2,3.9h-3.6v-48.2h3.6c2.3,0,3.2,1.1,3.2,3.9V1019.7z"/>
		<path class="st6" d="M43.2,968.8H30.7v61.1h8.6v-26.6h3.3c2,0,3.2,1.3,3.2,3.1v15.9l0,7.6H54v-7.8v-14.6v-0.1c0-3.3-1.6-5.5-4.8-7
			c3.2-1.5,4.8-3.8,4.8-7v-15C54,970.7,48,968.8,43.2,968.8z M45.5,993.9c0,2.2-1.1,3.2-3,3.2h-3.2v-21.8h3.6c1.6,0,2.6,0.8,2.6,2.9
			V993.9z"/>
		<polygon class="st6" points="206,977.1 206,994.1 215.7,994.1 215.7,1002.4 206,1002.4 206,1021.6 217.6,1021.6 217.6,1029.9 
			217.3,1029.9 217.3,1030 197.5,1030 197.5,968.8 199.7,968.8 199.7,968.8 217.6,968.8 217.6,977.1 		"/>
	</g>
	<g>
		<path class="st6" d="M15.5,939.3c0,2.1-1.2,3.2-3.6,3.2c-2.2,0-3.4-1.1-3.4-3.2v-51.1H0v51.4c0,6.2,5.2,10.5,11.8,10.5
			c6.6,0,11.8-4.2,11.8-10.5v-51.4h-8.1V939.3z"/>
		<path class="st6" d="M74.3,888.2H61.9v61.1h12.4c4.8,0,10.8-1.8,10.8-9.6v-14.5c0-3.2-1.5-5.5-4.8-7c3.3-1.4,4.8-3.7,4.8-7v-13.4
			C85.2,890,79.1,888.2,74.3,888.2z M76.8,939.8c0,2.1-1.1,3-2.7,3h-3.6v-21.7h3.2c1.8,0,3.1,1.2,3.1,3.2V939.8z M76.8,912.1
			c0,2.1-1.2,3.2-3.1,3.2h-3.2v-20.7h3.6c1.6,0,2.7,0.8,2.7,2.9V912.1z"/>
		<rect x="154.7" y="888.2" class="st6" width="8.6" height="61.1"/>
		<path class="st6" d="M107.4,888.2h-8.3h-0.3l-8.6,61.1h8.6l1.3-9.9h6.3l1.3,9.9h8.6l-8.6-61.1H107.4z M101,933l2.3-18.9l2.3,18.9
			H101z"/>
		<polygon class="st6" points="140.1,925.1 129.2,888.2 129.2,888.2 121.7,888.2 121.7,949.3 129.2,949.3 129.2,912.4 140,949.3 
			140.1,949.3 140.1,949.3 147.6,949.3 147.6,888.2 140.1,888.2 		"/>
		<polygon class="st6" points="170,894.8 182.8,894.8 169.2,943 169.2,949.3 190.5,949.3 190.5,943 177.9,943 191.4,894.8 
			191.4,888.2 170,888.2 		"/>
		<path class="st6" d="M236.5,888.2h-12.7v61.1h12.7c6.5,0,11.2-2.8,11.2-10.8V899C247.7,891,243,888.2,236.5,888.2z M239.2,939
			c0,2.8-0.9,3.9-3.2,3.9h-3.6v-48.2h3.6c2.3,0,3.2,1.1,3.2,3.9V939z"/>
		<path class="st6" d="M43.2,888.2H30.7v61.1h8.6v-26.6h3.3c2,0,3.2,1.3,3.2,3.1v15.9l0,7.6H54v-7.8v-14.6v-0.1c0-3.3-1.6-5.5-4.8-7
			c3.2-1.5,4.8-3.8,4.8-7v-15C54,890,48,888.2,43.2,888.2z M45.5,913.2c0,2.2-1.1,3.2-3,3.2h-3.2v-21.8h3.6c1.6,0,2.6,0.8,2.6,2.9
			V913.2z"/>
		<polygon class="st6" points="206,896.5 206,913.4 215.7,913.4 215.7,921.8 206,921.8 206,940.9 217.6,940.9 217.6,949.2 
			217.3,949.2 217.3,949.3 197.5,949.3 197.5,888.2 199.7,888.2 199.7,888.1 217.6,888.1 217.6,896.5 		"/>
	</g>
</g>
</svg>
